<svg xmlns="http://www.w3.org/2000/svg" viewBox="0 0 1400 1400" id="female-teacher-teaching-boy-in-school">
  <ellipse cx="700" cy="1193.956" fill="#26292c" opacity=".31" rx="658.528" ry="67.5"></ellipse>
  <polygon fill="#09a44a" points="713.697 1169.703 740.126 1169.703 800.782 487.077 774.352 487.077 713.697 1169.703"></polygon>
  <path fill="#161a1c" d="M713.6969,1169.7026s.0772-1.1582.2687-3.4575c.1974-2.32.4888-5.7434.87-10.2294.7845-9.0284,1.9389-22.3212,3.4271-39.4521,3.0109-34.34,7.37-84.0536,12.7681-145.6218,10.8925-123.2776,25.978-294.01,42.7573-483.9144l.0457-.5157h.5181l26.395,0h.6533l-.0553.6163c-29.3885,328.457-54.097,604.61-61.0742,682.5876l-.0119.1335-.1333-.0005c-9.09-.0391-15.7066-.0674-20.0694-.0861-4.3306-.0258-6.36-.0595-6.36-.0595.9949-.0057,8.461-.0468,26.4291-.1457l-.145.1324c6.8815-77.9862,31.2513-354.1691,60.2367-682.6619l.5638.6161h-.0341l-26.395,0,.5633-.5155c-16.952,189.7149-32.1927,360.2772-43.1974,483.4318-5.547,61.6151-10.0263,111.3663-13.12,145.7323-1.561,17.1848-2.7724,30.519-3.5949,39.5759-.4183,4.5178-.7374,7.9651-.9538,10.3014C713.83,1168.4933,713.6969,1169.7026,713.6969,1169.7026Z"></path>
  <polygon fill="#09a44a" points="983.288 1169.703 1009.717 1169.703 921.663 487.077 895.234 487.077 983.288 1169.703"></polygon>
  <path fill="#161a1c" d="M983.2879,1169.7026s-.1776-1.1551-.4883-3.4534c-.3087-2.3189-.7644-5.7407-1.3614-10.2253-1.184-9.0262-2.927-22.3161-5.1733-39.4435-4.47-34.3344-10.941-84.04-18.9552-145.5973C941.3526,847.7238,919.253,677.0184,894.6728,487.15l-.0827-.6383h.6438l26.395,0h.5324l.0633.4939c42.18,328.5779,77.6409,604.8119,87.6368,682.6784l.0213.1651-.1655-.0009-20.0639-.0822c-4.3317-.0254-6.3654-.063-6.3654-.063s2.1-.0379,6.443-.0633l19.9863-.0822-.1441.1639c-10.0911-77.8541-45.89-354.0449-88.4714-682.571l.5613.4935h-.0341l-26.395,0,.5609-.6379c24.3868,189.74,46.312,360.3294,62.1434,483.5051,7.876,61.6271,14.2352,111.3885,18.6282,145.7614,2.18,17.19,3.8721,30.5277,5.0212,39.5868.5645,4.52.995,7.9688,1.287,10.3061C983.16,1168.49,983.2879,1169.7026,983.2879,1169.7026Z"></path>
  <path fill="#e0e0e0" d="M617.4515,808.05l41.1193-515.1173a6.6191,6.6191,0,0,1,6.6939-6.0918l312.3444,4.518a6.6192,6.6192,0,0,1,6.4969,7.2117l-46.3539,515.116a6.6194,6.6194,0,0,1-6.69,6.0253l-307.11-4.5167A6.6192,6.6192,0,0,1,617.4515,808.05Z"></path>
  <path fill="#161a1c" d="M617.4513,808.05c.0282,0-.0318.373.0409,1.099a6.5839,6.5839,0,0,0,5.4233,5.8535c2.103.2042,4.62.1,7.433.1729,11.3034.142,27.9493.3509,49.383.62,42.8977.5886,104.9474,1.4395,181.6174,2.4913l60.1793.8484q3.9239.0558,7.8868.1117a10.129,10.129,0,0,0,3.7777-.3265,6.1543,6.1543,0,0,0,2.9457-2.1837,6.3861,6.3861,0,0,0,1.2062-3.5136l.3592-4.0151q.36-4.0249.7235-8.0875,1.4549-16.25,2.9625-33.0949c4.0247-44.9078,8.3249-92.89,12.85-143.3821,4.533-50.4921,9.2914-103.4932,14.2243-158.4379q3.7039-41.2085,7.5326-83.8037,1.914-21.28,3.8549-42.8623.97-10.7889,1.9476-21.648.4882-5.4292.9783-10.8754l.49-5.45.2455-2.7281a6.539,6.539,0,0,0-.1829-2.51,6.0788,6.0788,0,0,0-3.1-3.7536,5.99,5.99,0,0,0-2.4011-.6333l-2.714-.0522-10.9218-.158q-10.905-.1583-21.74-.315l-43.0439-.6249q-42.74-.6225-84.155-1.226-41.38-.6055-81.2234-1.1888-19.9038-.2922-39.3792-.5785l-19.3582-.2848q-4.8112-.0711-9.5933-.1413a6.1421,6.1421,0,0,0-6.4873,4.81c-8.1344,101.0487-15.4594,192.0447-21.6115,268.4663-6.1771,76.428-11.1758,138.2768-14.6315,181.0342-1.7515,21.3612-3.1116,37.95-4.0352,49.2146-.4731,5.6149-.834,9.9-1.0779,12.7964-.2492,2.8824-.4059,4.3565-.4059,4.3565s.0793-1.48.2905-4.3659c.2187-2.8987.5419-7.1863.9659-12.8052.8751-11.2682,2.1639-27.863,3.8234-49.2314,3.3709-42.7641,8.247-104.6227,14.2728-181.0629,6.0886-76.4655,13.3384-167.5137,21.3891-268.62a7.134,7.134,0,0,1,2.7105-4.2313,7.2992,7.2992,0,0,1,4.8121-1.41q4.7822.0682,9.5935.1363l19.3585.2751,39.3794.5607q39.808.5689,81.2236,1.1609,41.3807.5946,84.1554,1.2088l43.0439.62q10.8348.1566,21.74.3139,5.4526.0791,10.9219.1579l2.7563.0535a7.1249,7.1249,0,0,1,2.8518.7529,7.2122,7.2122,0,0,1,3.68,4.4558,7.7012,7.7012,0,0,1,.2211,2.92l-.2455,2.7283-.49,5.45q-.49,5.446-.9787,10.8753-.9777,10.8583-1.9487,21.648-1.9426,21.5775-3.8592,42.8617-3.8342,42.5592-7.55,83.8021c-4.9556,54.9428-9.7358,107.9419-14.29,158.4321-4.5618,50.4885-8.8967,98.468-12.954,143.3727q-1.5237,16.8387-2.9938,33.0921-.3675,4.0625-.7318,8.0868l-.3635,4.0147a7.2959,7.2959,0,0,1-1.3788,3.96,7.0423,7.0423,0,0,1-3.3718,2.4941,10.9326,10.9326,0,0,1-4.0832.372q-3.963-.0608-7.8866-.12-31.3887-.4807-60.1783-.9219c-76.6677-1.2033-138.7155-2.1773-181.6122-2.8509-21.4323-.3613-38.0771-.642-49.38-.8324-2.8253-.0924-5.3025-.0033-7.46-.2312a6.6167,6.6167,0,0,1-4.4091-2.9315,6.4659,6.4659,0,0,1-1.0425-3.0868A4.6984,4.6984,0,0,1,617.4513,808.05Z"></path>
  <polygon fill="#fff" points="630.659 805.019 669.503 300.122 971.011 304.647 927.311 808.525 630.659 805.019"></polygon>
  <path fill="#161a1c" d="M630.659,805.0191l296.6569,3.0685-.4409.3994c11.713-135.4555,26.9546-311.7146,43.5722-503.8884l.5552.6148-2.7056-.0406-298.8019-4.525.5318-.4853C646.9459,596.1533,631.0292,800.27,630.659,805.0191c.36-4.7472,15.8532-208.899,38.32-504.937l.0374-.4929.4948.0072c91.9668,1.3679,192.9983,2.8707,298.803,4.4443.9269.0139,1.8535.0278,2.7057.04l.6086.0092-.0529.6061C954.86,496.8618,939.5287,673.1133,927.7468,808.5627l-.0352.4052-.4061-.0052C745.4206,806.5446,634.1793,805.066,630.659,805.0191Z"></path>
  <path fill="#161a1c" d="M898.17 539.038c0 .3128-44.6275.5663-99.6652.5663-55.0572 0-99.6751-.2535-99.6751-.5663s44.6179-.566 99.6751-.566C853.5427 538.472 898.17 538.7255 898.17 539.038ZM895.0173 557.7486c0 .3128-44.1854.5661-98.6784.5661-54.5121 0-98.688-.2533-98.688-.5661s44.1759-.566 98.688-.566C850.8319 557.1826 895.0173 557.4361 895.0173 557.7486ZM793.5991 578.0254c0 .3126-21.48.5661-47.9717.5661-26.5007 0-47.9765-.2535-47.9765-.5661s21.4758-.5659 47.9765-.5659C772.1187 577.46 793.5991 577.7127 793.5991 578.0254Z"></path>
  <path fill="#ebebeb" d="M762.09,513.0969H706.6374a7.8032,7.8032,0,0,1-7.5331-9.8383h0a7.8033,7.8033,0,0,1,7.5331-5.7681H762.09a7.8033,7.8033,0,0,1,7.4068,10.2588h0A7.8032,7.8032,0,0,1,762.09,513.0969Z"></path>
  <g>
    <path fill="#161a1c" d="M888.218 693.7869c0 .3126-44.6275.5661-99.6655.5661-55.0568 0-99.6748-.2535-99.6748-.5661s44.618-.5659 99.6748-.5659C843.5905 693.221 888.218 693.4743 888.218 693.7869ZM885.0651 712.4975c0 .3128-44.1854.5661-98.6784.5661-54.5121 0-98.688-.2533-98.688-.5661s44.1759-.5659 98.688-.5659C840.88 711.9316 885.0651 712.1851 885.0651 712.4975ZM783.6469 732.7743c0 .3126-21.48.5661-47.9719.5661-26.5 0-47.9763-.2535-47.9763-.5661s21.4758-.5661 47.9763-.5661C762.1665 732.2082 783.6469 732.4617 783.6469 732.7743Z"></path>
    <path fill="#ebebeb" d="M752.1375,667.8459H696.6852a7.8032,7.8032,0,0,1-7.5331-9.8383h0a7.8032,7.8032,0,0,1,7.5331-5.7681h55.4523a7.8032,7.8032,0,0,1,7.4068,10.2587h0A7.8033,7.8033,0,0,1,752.1375,667.8459Z"></path>
  </g>
  <path fill="#161a1c" d="M913.4784 398.5723c0 .3128-44.6275.5663-99.6655.5663-55.0572 0-99.6751-.2535-99.6751-.5663s44.6179-.566 99.6751-.566C868.8509 398.0063 913.4784 398.26 913.4784 398.5723ZM910.3255 417.2831c0 .3126-44.1858.5661-98.6787.5661-54.5119 0-98.688-.2535-98.688-.5661s44.1761-.5662 98.688-.5662C866.14 416.7169 910.3255 416.97 910.3255 417.2831ZM808.9072 437.56c0 .3128-21.4806.5661-47.9719.5661-26.5007 0-47.9765-.2533-47.9765-.5661s21.4758-.5659 47.9765-.5659C787.4266 436.9938 808.9072 437.2473 808.9072 437.56Z"></path>
  <polygon points="745.072 816.976 743.155 838.579 769.584 838.579 771.501 816.976 745.072 816.976" opacity=".3"></polygon>
  <path fill="#ebebeb" d="M777.3978,372.6312H721.9455a7.8028,7.8028,0,0,1-7.5331-9.8382h0a7.8029,7.8029,0,0,1,7.5331-5.768h55.4523a7.8032,7.8032,0,0,1,7.4068,10.2586h0A7.803,7.803,0,0,1,777.3978,372.6312Z"></path>
  <g>
    <path fill="#161a1c" d="M1184.8449,345.4185c4.573-4.3219,7.9215-10.4167,7.3664-16.6845s-5.9612-12.2152-12.2462-11.9088a15.4316,15.4316,0,0,0-21.7809-18.7471c.8123-2.957-1.1549-6.563-4.5627-8.51-2.6627-1.5214-13.1339-1.8267-16.5149,4.11L1121.73,343.631a32.7114,32.7114,0,0,0-2.3681,46.3286,16.1483,16.1483,0,0,0,15.7388,25.623c.6954,8.7626,10.214,15.7008,18.7691,13.6808s13.9638-12.4838,10.6654-20.6316c7.2021,2.904,15.7709-2.5321,18.37-9.8495s.5174-15.5392-3.063-22.43a17.0666,17.0666,0,0,0,5.0029-30.9339Z"></path>
    <path fill="#ffc92a" d="M1145.8152,302.4465c6.8773,2.7584,7.9276,8.5516,9.0653,13.3977,2.4477,10.43-2.1211,25.3064-8.4546,33.9477s-12.9156,12.8035-23.5992,13.6092q1.1446-24.36,2.2889-48.72Z"></path>
    <path fill="#161a1c" d="M1147.8791,330.6472a16.8861,16.8861,0,0,0-.0247-21.651c3.343-3.6582,2.6451-9.7008-.2231-13.7424s-7.3665-6.5545-11.713-8.9354c-1.6909-11.4862-13.8531-20.3147-25.2983-18.3635-5.277-9.0232-17.6815-11.23-27.8932-8.9949-2.4941.5455-5,1.3-7.5471,1.116a43.5143,43.5143,0,0,1-5.4942-1.1466c-10.0922-2.0658-20.6922,4.415-25.3107,13.6229a18.8826,18.8826,0,0,1-2.4648,4.2642c-1.4372,1.6139-3.51,2.4788-5.3077,3.6788a16.306,16.306,0,0,0-7.0524,11.602c-.4361,3.9443.5366,8.2289-1.3747,11.707-.9578,1.7436-2.5655,3.0945-3.3437,4.9255-2.255,5.3054,3.39,11.2723,1.8886,16.8383-.3061,1.1356-.8985,2.1722-1.2948,3.28a10.06,10.06,0,0,0,.1322,7.0579c.69,1.7234,1.882,3.34,1.8651,5.196-.0123,1.4088-.7283,2.7021-1.1038,4.06-.9185,3.321,5.4633,16.8055,8.2475,18.8354l86.9194,6.7156a16.2894,16.2894,0,0,0,13.5313-13.1347,5.9594,5.9594,0,0,1,1.0292-3.1432,6.9757,6.9757,0,0,1,2.48-1.3809c5.8051-2.6244,7.0059-10.2671,6.8485-16.636a7.7386,7.7386,0,0,1,.23-2.6523A9.7311,9.7311,0,0,1,1147.8791,330.6472Z"></path>
    <path fill="#fbbf9e" d="M1122.9537,329.0706c1.3082-15.3745-7.1382-33.7205-21.9141-42.2911-9.3143-5.4031-16.8319-5.947-21.8586-6.8837a35.3091,35.3091,0,0,0-20.8057,2.9014c-4.8706.7985-23.536,15.6848-25.64,33.077-2.3371,19.3219-4.4285,43.0043-2.9629,57.6057,2.9469,29.3605,25.0338,34.346,25.0338,34.346.0057-.0441-5.3717,48.104-5.3717,48.104l40.5017,38.0886,20.517-54.7074Z"></path>
    <path fill="#f7996e" d="M1054.8064,407.8259a74.4357,74.4357,0,0,0,39.6929-8.1388s-11.5526,19.9111-40.5159,15.5134Z"></path>
    <path fill="#fbbf9e" d="M1116.6823,356.3748c.13-2.1667,2.9277-7.1311,5.0871-7.3421,5.7653-.5617,16.0381.4892,15.2994,15.0066-1.01,19.8442-20.7254,14.7368-20.7318,14.1659C1116.3324,377.7594,1116.234,363.8551,1116.6823,356.3748Z"></path>
    <path fill="#f7996e" d="M1122.181,371.2345c.09-.0588.3334.26.9034.5574a3.4633,3.4633,0,0,0,2.5822.1846c2.1358-.6622,4.07-3.9011,4.348-7.4732a11.43,11.43,0,0,0-.7148-5,3.9949,3.9949,0,0,0-2.466-2.7847,1.7631,1.7631,0,0,0-2.0882.8421c-.2949.5423-.1881.9452-.2952.9727-.0576.0478-.4091-.3529-.2075-1.164a2.2032,2.2032,0,0,1,.845-1.2048,2.6137,2.6137,0,0,1,1.937-.4077c1.5255.1844,2.83,1.6619,3.4542,3.2609a11.751,11.751,0,0,1,.9169,5.5925c-.33,3.9924-2.5678,7.6295-5.4795,8.3132a3.71,3.71,0,0,1-3.1348-.6865C1122.1915,371.7166,1122.1108,371.267,1122.181,371.2345Z"></path>
    <path fill="#161a1c" d="M1028.3173,315.8959c4.1537-2.2721,6.9089-5.531,6.9348-10.265,2.612.9455,5.5085-2.32,7.1922-4.5285s3.6506-3.2593,3.6929-6.0367a3.1369,3.1369,0,0,1,.2922-1.5987,3.3664,3.3664,0,0,1,2.24-1.1389,13.3127,13.3127,0,0,0,9.2889-8.7257,28.1533,28.1533,0,0,0,13.463,3.035,10.7606,10.7606,0,0,0,18.2272.2661,9.6431,9.6431,0,0,0,6.17,5.1274,28.5522,28.5522,0,0,0,8.2006.9267,11.3954,11.3954,0,0,0,6.7385,13.3193c.6926.2579,1.4964.52,1.7824,1.2015a2.8714,2.8714,0,0,1-.4352,2.1928,8.9711,8.9711,0,0,0,5.3342,11.75c-3.3913,2.3262-3.3947,8.1654-.0061,10.4964.6956.4777,1.607,1.0569,1.4472,1.8859a1.8955,1.8955,0,0,1-.4846.82c-1.5914,1.8765-3.1884,3.9336-3.51,6.373s1.1729,5.2851,3.62,5.5347c-1.3553,1.0711-2.6437,2.4756-2.7735,4.1981s1.512,3.58,3.1566,3.0518c.6993-.2245,10.69-1.5915,11.1592-2.1559,6.0562-7.2927-.5135-16.1221-.5183-25.6014s-2.7717-18.8191-7.0149-27.2952a45.0354,45.0354,0,0,0-6.4874-9.97,60.003,60.003,0,0,0-10.4382-8.6651c-4.8315-3.41-9.8047-6.8224-15.4716-8.5125-10.5567-3.1481-21.9059.0924-32.1581,4.1247a46.66,46.66,0,0,0-11.1453,5.7255c-4.0075,3.0119-7.0654,7.1055-9.7689,11.3271-3.9064,6.1006-7.2414,12.7317-8.3624,19.8887"></path>
    <path fill="#09a44a" d="M1024.8315,308.73a7.5873,7.5873,0,0,1,1.1944-2.0653c.4595-.6352,1.0986-1.3679,1.718-2.3191a9.2525,9.2525,0,0,0,1.3315-3.64,28.9069,28.9069,0,0,0,.2045-4.9113,21.822,21.822,0,0,1,.5055-5.88,16.5455,16.5455,0,0,1,2.9785-6.0939,16.2624,16.2624,0,0,1,2.6062-2.6628,24.3719,24.3719,0,0,1,3.2717-2.1445,12.322,12.322,0,0,0,3.1682-2.4216,16.0611,16.0611,0,0,0,2.1015-3.6217,26.6626,26.6626,0,0,1,13.3108-12.8374,23.6972,23.6972,0,0,1,4.8816-1.5109,21.3618,21.3618,0,0,1,5.2477-.2793,24.4241,24.4241,0,0,1,2.66.3716c.8786.19,1.7424.43,2.61.6377a12.7974,12.7974,0,0,0,5.3.3212c1.7962-.2439,3.5757-.7805,5.436-1.1274a34.8746,34.8746,0,0,1,11.4974-.3658,30.2372,30.2372,0,0,1,5.7541,1.4189,19.5907,19.5907,0,0,1,9.5918,7.1846c.2268.3419.4533.683.6771,1.02l-.3084-.1441a23.0547,23.0547,0,0,1,25.6308,18.6175l-.1451-.2084a62.9166,62.9166,0,0,1,6.7337,4.086,20.95,20.95,0,0,1,5.3729,5.4168,13.6282,13.6282,0,0,1,2.1717,7.0005,9.3848,9.3848,0,0,1-2.296,6.592l.0023-.3332a16.4522,16.4522,0,0,1,3.9574,10.4566,16.8507,16.8507,0,0,1-2.6524,9.7327,16.3272,16.3272,0,0,1-1.435,1.8848,21.3169,21.3169,0,0,0-1.4715,1.6885,4.2462,4.2462,0,0,0-.8224,1.9024,12.0993,12.0993,0,0,0-.0672,2.0623,32.5963,32.5963,0,0,1-.6615,7.5155,15.7887,15.7887,0,0,1-2.2951,5.6125,9.7531,9.7531,0,0,1-3.2776,3.0343c-1.064.6142-1.9852.8219-2.5108,1.1592a4.5148,4.5148,0,0,0-.7579.5554,2.3058,2.3058,0,0,1,.719-.621c.5238-.365,1.4471-.6007,2.4756-1.2242a9.7073,9.7073,0,0,0,3.17-3.0273,15.6756,15.6756,0,0,0,2.1975-5.5493,32.5868,32.5868,0,0,0,.594-7.4476,12.3385,12.3385,0,0,1,.0568-2.1254,4.6223,4.6223,0,0,1,.875-2.067,21.4969,21.4969,0,0,1,1.4866-1.7289,15.93,15.93,0,0,0,1.3862-1.8441,16.4492,16.4492,0,0,0,2.5376-9.4989,16,16,0,0,0-3.8757-10.14l-.1492-.1677.1515-.1657a8.8782,8.8782,0,0,0,2.1435-6.2458,13.1034,13.1034,0,0,0-2.1051-6.7181,20.4248,20.4248,0,0,0-5.2459-5.2592,62.651,62.651,0,0,0-6.6817-4.0361l-.1245-.068-.0208-.1409a22.49,22.49,0,0,0-24.9659-18.11l-.1917.0325-.1174-.1764c-.2163-.3254-.4348-.6547-.6542-.9846a19.008,19.008,0,0,0-9.3031-6.9636,29.6993,29.6993,0,0,0-5.6312-1.3917,34.3487,34.3487,0,0,0-11.3022.3487c-1.8267.3364-3.6195.8755-5.4708,1.1249a13.7007,13.7007,0,0,1-2.7925.1215,16.3283,16.3283,0,0,1-2.7173-.4627c-.88-.2126-1.74-.4524-2.5973-.64a23.95,23.95,0,0,0-2.5831-.3658,20.8185,20.8185,0,0,0-5.1079.26,23.1474,23.1474,0,0,0-4.772,1.4639,26.2153,26.2153,0,0,0-13.1021,12.5548,16.4385,16.4385,0,0,1-2.182,3.71,12.7157,12.7157,0,0,1-3.2886,2.4962,24.0091,24.0091,0,0,0-3.2344,2.093,15.9224,15.9224,0,0,0-2.5584,2.5838,16.2448,16.2448,0,0,0-2.9543,5.9424,21.6543,21.6543,0,0,0-.5445,5.7951,28.6932,28.6932,0,0,1-.26,4.9514,9.3663,9.3663,0,0,1-1.4128,3.6988c-.6457.9565-1.2983,1.6743-1.7706,2.2946a11.6758,11.6758,0,0,0-.9994,1.4615C1024.9248,308.5456,1024.8459,308.736,1024.8315,308.73Z"></path>
    <path fill="#09a44a" d="M1101.5714 263.0367c-.0334.0425-.506-.3318-1.4413-.8627a13.3617 13.3617 0 0 0-4.2481-1.5219 12.5468 12.5468 0 0 0-6.5762.5568 12.9575 12.9575 0 0 0-6.257 5.0157 10.997 10.997 0 0 0-1.1215 2.1845 2.4818 2.4818 0 0 0 .0186 2.0982l.4432.7037-.7867-.2744a8.2219 8.2219 0 0 0-6.1772.36 7.9314 7.9314 0 0 0-3.5851 3.4675 8.6961 8.6961 0 0 0-.9718 3.2208c-.075.7927-.0382 1.2327-.0835 1.2361-.0179.0019-.0419-.1061-.0723-.3162a5.4848 5.4848 0 0 1-.0453-.9322 8.2978 8.2978 0 0 1 4.5365-7.13 8.6538 8.6538 0 0 1 6.5916-.4567l-.3437.4293a3.0357 3.0357 0 0 1-.0865-2.6 11.4086 11.4086 0 0 1 1.1816-2.3177 13.3081 13.3081 0 0 1 6.57-5.2077 12.683 12.683 0 0 1 6.8454-.4539 12.4236 12.4236 0 0 1 4.2891 1.7381 8.7715 8.7715 0 0 1 1.01.75C1101.4775 262.9142 1101.5842 263.0206 1101.5714 263.0367ZM1132.379 287.7474c.0217.0277-.2284.2755-.7361.667a12.8425 12.8425 0 0 1-2.3376 1.4235 9.4925 9.4925 0 0 1-4.0281.9485A7.1008 7.1008 0 0 1 1120.4423 289l.4431-.04c-.2054.254-.4164.5144-.63.7792-.2281.2526-.48.4908-.7239.74a12.0258 12.0258 0 0 1-5.1416 2.7842 12.3242 12.3242 0 0 1-4.7617.3083 10.9423 10.9423 0 0 1-3.0824-.9007 3.9118 3.9118 0 0 1-1.0011-.6157 17.2031 17.2031 0 0 0 4.1323 1.096 12.5845 12.5845 0 0 0 4.5683-.4206 11.8548 11.8548 0 0 0 4.8777-2.69c.23-.2364.4693-.4606.6853-.6986q.3053-.3738.5986-.7329l.2115-.2592.2322.2187a6.6877 6.6877 0 0 0 4.434 1.69 9.5584 9.5584 0 0 0 3.8618-.7837C1131.231 288.5755 1132.32 287.6573 1132.379 287.7474ZM1141.7509 306.7743c.02.006-.0041.1289-.0705.3625a3.4 3.4 0 0 1-.4992.9329 5.3019 5.3019 0 0 1-3.3236 1.9314 10.1179 10.1179 0 0 1-5.6283-.9567 32.2669 32.2669 0 0 1-3.0565-1.4239 5.4348 5.4348 0 0 1-2.5886-2.6612c-.036-.1118-.0717-.2235-.1046-.3265l.4592.1705a22.7669 22.7669 0 0 1-6.0959 3.1774 10.24 10.24 0 0 1-5.6051.2388 7.3814 7.3814 0 0 1-3.3373-1.7671 4.5662 4.5662 0 0 1-.6735-.7778c-.1306-.1954-.19-.3025-.1739-.3146.044-.0339.3314.3668 1 .9192a7.6843 7.6843 0 0 0 3.2806 1.5315 10.0914 10.0914 0 0 0 5.3447-.3536A23.3013 23.3013 0 0 0 1126.6 304.31l.3309-.2286.1282.3993c.0276.0858.0572.1787.0871.2721a4.9216 4.9216 0 0 0 2.3177 2.3587c.98.5528 2.0168.9976 2.9786 1.4243a9.9859 9.9859 0 0 0 5.3443 1.0483 5.2751 5.2751 0 0 0 3.2126-1.66A8.6062 8.6062 0 0 0 1141.7509 306.7743ZM1126.8153 379.3722a6.3595 6.3595 0 1 1-6.3593-6.36A6.3594 6.3594 0 0 1 1126.8153 379.3722Z"></path>
    <g>
      <path fill="#fbbf9e" d="M848.7673,524.92s-19.7792-8.6194-25.5491-12.312-8.77-4.6158-15.232-5.77-23.5405-3-27.6947,0-22.8482,10.6391-22.8482,10.6391L782.19,530.9333s4.0549,16.7259,8.9544,18.2464,4.0546,1.0137,9.292,0,22.47-9.2921,22.9768-8.9543,18.1929,9.914,18.1929,9.914Z"></path>
      <path fill="#161a1c" d="M773.6615,522.6158H714.96l-2.8282-1.9448a.7758.7758,0,0,1,.0284-1.2974l2.8-1.7493h58.7015Z"></path>
      <path fill="#fbbf9e" d="M744.2027,519.1476s2.8046-3.3543,8.2775-.1078a104.0309,104.0309,0,0,1,9.1525,6.0582,37.2755,37.2755,0,0,0,3.71-1.1132l7.7919,3.7105.8348,4.6379s-9.9252,3.3394-13.0791,1.67-14.6562-10.4346-15.9548-12.2207S744.2027,519.1476,744.2027,519.1476Z"></path>
      <path fill="#fbbf9e" d="M793.9391,538.3811l-3.62-2.3,1.2988-5.0088s7.6064-1.02,8.4411-5.1946,0-4.0815,0-4.0815l-9.8325,1.67,4.5452-3.8032s8.2558-1.02,7.6064-5.844l-1.588-2.27s-7.5089,1.4388-10.6627,2.83-12.0525,7.51-12.0525,7.51h0l7.4208-7.05a16.19,16.19,0,0,0,5.4172-3.2313,2.8807,2.8807,0,0,0-.5418-4.4194h0a2.8768,2.8768,0,0,0-1.793-.454,25.9585,25.9585,0,0,0-7.9059,1.7042c-3.1538,1.4842-12.6155,8.4411-14.0067,12.0588s-1.2059,4.893,1.02,7.1773,7.6991,5.3454,7.6991,5.3454,1.9479,3.71,4.6379,5.1017c0,0,1.5784,6.9927,11.1215,11.0579"></path>
      <path fill="#f7996e" d="M791.1448 549.18a4.7273 4.7273 0 0 1-1.03-.3762 19.27 19.27 0 0 1-2.8284-1.4635 19.5024 19.5024 0 0 1-4.0007-3.2076 15.1878 15.1878 0 0 1-3.6025-5.9334l.18.2329a13.2 13.2 0 0 1-4.8392-5.2216l.1622.1665c-1.5985-.8969-3.2362-1.8813-4.8935-3.021a14.046 14.046 0 0 1-4.5647-4.4668 4.9142 4.9142 0 0 1-.2-3.5343 10.7911 10.7911 0 0 1 1.3425-3.2767 28.211 28.211 0 0 1 5.02-5.1827 63.4794 63.4794 0 0 1 6.0333-4.5075 17.3776 17.3776 0 0 1 3.5135-1.8782 23.1438 23.1438 0 0 1 3.9249-.9692q.9987-.1662 2.0124-.2764a7.03 7.03 0 0 1 2.2-.0362 3.5232 3.5232 0 0 1 2.7188 3.61 3.3591 3.3591 0 0 1-1.0015 2.2271 11.1089 11.1089 0 0 1-1.7075 1.3818 18.592 18.592 0 0 1-3.8942 1.9557l.2167-.1313-3.0239 2.8735-4.3971 4.1752-.746-.92c3.6991-2.495 7.291-4.9244 11.0421-6.9959a26.4874 26.4874 0 0 1 5.9966-2.09c1.9964-.5018 3.9613-.93 5.9085-1.3081l.3531-.0687.205.2952c.5362.7709 1.0611 1.526 1.5812 2.274l.0782.1126.0156.1279a4.2354 4.2354 0 0 1-.7556 2.974 6.3283 6.3283 0 0 1-2.2188 1.86 15.6772 15.6772 0 0 1-5.1105 1.5842l.2623-.114q-2.3625 1.957-4.5633 3.7808l-.3861-.8361 7.3522-1.2038q.87-.1418 1.7161-.2794l.4211-.0685.2093-.0338.1046-.0169.0593-.0094a.4887.4887 0 0 1 .25.0359c.6426.4563.462.7869.559 1.0949a13.4449 13.4449 0 0 1-.3569 3.2995 4.8349 4.8349 0 0 1-1.6374 2.7175 9.7375 9.7375 0 0 1-2.4379 1.5042 18.8329 18.8329 0 0 1-4.7319 1.3041l.2251-.2c-.5485 1.9729-1.0079 3.6247-1.3864 4.986l-.0771-.1959c1.1377.7668 2.0127 1.3567 2.6863 1.8109a4.4315 4.4315 0 0 1 .8366.64 4.3891 4.3891 0 0 1-.935-.4853c-.6972-.4169-1.6028-.9588-2.78-1.6631l-.1094-.0654.0318-.1314c.33-1.3736.7318-3.04 1.2109-5.0314l.04-.168.1853-.032a18.7564 18.7564 0 0 0 4.5324-1.3686c1.5093-.7256 3.2575-1.8536 3.5936-3.7689a13.044 13.044 0 0 0 .2957-3.0746 1.7132 1.7132 0 0 0-.06-.3279c-.0359-.1229-.0919-.0377.1035-.2915l.0114-.041.0039-.029c.0215-.2888-.0345.3743-.0046.3084l.0522-.0027-.0449.008-.1038.0185-.2085.0369-.4192.0743-1.7086.3021-7.3189 1.2875-1.7375.3057 1.3514-1.142 4.5265-3.8249.1069-.09.1561-.024a14.7676 14.7676 0 0 0 4.7269-1.5038c1.4829-.7668 2.64-2.1383 2.4-3.7652l.0936.24c-.5245-.7448-1.054-1.4967-1.5944-2.2646l.5574.2263c-1.9148.3828-3.8716.82-5.8349 1.3225a25.5623 25.5623 0 0 0-5.7332 2.0129c-3.6325 2.02-7.2509 4.4721-10.914 6.95l-.7462-.9208q2.1726-2.0649 4.3954-4.1775l3.0245-2.8724.0892-.0846.1282-.0472a17.5336 17.5336 0 0 0 3.62-1.8147 9.98 9.98 0 0 0 1.531-1.2329 2.1685 2.1685 0 0 0 .6613-1.4548 2.3474 2.3474 0 0 0-1.8012-2.4063 6.2181 6.2181 0 0 0-1.815.0524q-.9845.105-1.9511.2613a22.1479 22.1479 0 0 0-3.7264.9018 16.382 16.382 0 0 0-3.2894 1.7475 63.2182 63.2182 0 0 0-5.9493 4.3917 27.559 27.559 0 0 0-4.8583 4.9244 9.8567 9.8567 0 0 0-1.2315 2.9545 3.9343 3.9343 0 0 0 .1019 2.8659 13.4087 13.4087 0 0 0 4.21 4.1554c1.6063 1.1347 3.2249 2.1378 4.7793 3.0407l.1032.06.06.1073a12.6385 12.6385 0 0 0 4.4361 4.9814l.1359.075.0446.1586a14.9264 14.9264 0 0 0 3.32 5.7182 20.1935 20.1935 0 0 0 3.8049 3.2629C789.7821 548.5415 791.1917 549.0818 791.1448 549.18ZM797.2032 538.6694c-.1266-.0652.4734-1.6049 1.8944-3.8586a36.1868 36.1868 0 0 1 15.5836-13.397c2.4415-1.0665 4.0535-1.4285 4.0991-1.2938.1544.351-6.0742 2.5372-12.0857 7.767C800.624 533.0439 797.527 538.8749 797.2032 538.6694Z"></path>
      <path fill="#f7996e" d="M790.9558 523.0773c.03.2094-1.1229.3819-2.7532 1.0995a10.5792 10.5792 0 0 0-4.8331 4.71 33.0451 33.0451 0 0 0-2.422 6.6465c-.4952 1.7779-.85 2.8822-1.0148 2.8479-.157-.0325-.0973-1.1841.1922-3.03a22.7109 22.7109 0 0 1 2.198-7.0343 10.0875 10.0875 0 0 1 5.5706-4.9244C789.7529 522.8242 790.9507 522.9638 790.9558 523.0773ZM778.4206 521.6133c.1865.2581-1.8214 2.0191-2.5959 5.1674-.8675 3.0822-.6306 5.7756-.9837 5.8175-.2888.0849-1.1082-2.7335-.1636-6.14a8.8872 8.8872 0 0 1 2.1513-3.8888C777.6534 521.7515 778.34 521.4927 778.4206 521.6133Z"></path>
    </g>
    <g>
      <path fill="#161a1c" d="M1077.1331,1137.2913l.016,2.7948s-47.2,19.4844-47.6188,28.4794l94.0806-1.3832-1.7395-31.2877C1107.98,1142.5782,1093.3508,1143.5237,1077.1331,1137.2913Z"></path>
      <path fill="#09a44a" d="M1123.6109,1167.1823l-.4174-7.5251-90.0182,4.0812s-4.1615,1.8834-3.645,4.8271Z"></path>
      <path fill="#fff" d="M1076.824 1140.3552c.0213.4593 2.3213.6332 4.604 2.0775 2.32 1.3839 3.514 3.3563 3.9348 3.1679.4217-.0949-.3039-2.8313-3.0973-4.5306C1079.4872 1139.3459 1076.7176 1139.9347 1076.824 1140.3552ZM1067.0159 1144.5808c-.0988.4467 1.9027 1.1992 3.4918 3.1193 1.645 1.8728 2.0694 3.9681 2.5266 3.9418.4332.0657.7114-2.63-1.31-4.98C1069.7256 1144.2952 1067.0191 1144.1431 1067.0159 1144.5808ZM1061.5849 1156.4729c.419.0925 1.0249-2.2124-.1924-4.7106-1.1988-2.5079-3.38-3.4682-3.5686-3.0829-.2536.3814 1.1614 1.7111 2.1286 3.7773C1060.9676 1154.5 1061.1278 1156.4347 1061.5849 1156.4729Z"></path>
      <g>
        <path fill="#161a1c" d="M1144.4061,1108.9232l-40.06,11.2031,10.0037,22.7153-10.3792,57.4855a6.5166,6.5166,0,0,0,4.5205,7.4606,6.6362,6.6362,0,0,0,6.7415-1.9337c8.8431-9.9152,41.1881-46.5467,40.41-51.0217l-1.28-11.9507c-.2659-2.4786-2.6687-8.3738-2.6687-8.9081Z"></path>
        <path fill="#09a44a" d="M1109.6793,1208.0069l45.5836-57.3382.2389,2.6136c.5235,2.809-.64,4.05-1.8475,5.9962-3.5788,5.768-13.7621,18.8779-38.2307,46.56a6.6324,6.6324,0,0,1-5.7443,2.168Z"></path>
        <path fill="#fff" d="M1121.6977 1179.7232c-.3432.2022-2.0666-2.8973-5.9932-4.2913-3.8825-1.5077-7.3031-.3167-7.418-.6908-.0689-.1467.69-.7 2.1539-1.0391a10.4133 10.4133 0 0 1 5.7673.4574 10.0613 10.0613 0 0 1 4.605 3.3962C1121.6678 1178.7553 1121.85 1179.6577 1121.6977 1179.7232ZM1117.94 1188.3981c-.2775.2943-2.4941-1.5258-5.8543-2.14-3.346-.6867-6.12.1645-6.2575-.21-.2114-.2977 2.7182-1.8861 6.5374-1.1242C1116.1919 1185.6457 1118.2547 1188.202 1117.94 1188.3981ZM1129.1293 1168.3646c-.27.3195-3.6643-2.4964-8.8013-3.8977-5.115-1.48-9.5414-.8631-9.5918-1.2733-.1329-.32 4.4951-1.6082 9.9854-.0353C1126.2263 1164.6768 1129.42 1168.163 1129.1293 1168.3646Z"></path>
      </g>
      <path fill="#09a44a" d="M1113.8882,1135.0254c.19,0,.3595,3.003.4686,7.7349l.0007.03-.008.0518c-.5016,3.3263-1.199,7.5834-2.0077,12.2015-.9576,5.4685-1.89,10.4073-2.6245,13.9718s-1.2688,5.7543-1.4308,5.7262.0792-2.27.6006-5.8717,1.3226-8.5635,2.2807-14.0321c.8088-4.618,1.6-8.8586,2.2589-12.1573l-.0071.08C1113.5287,1138.0284,1113.698,1135.0254,1113.8882,1135.0254Z"></path>
    </g>
    <g>
      <path fill="#161a1c" d="M1170.8856,764.9861c3.1586-15.2425,4.983-29.9111,1.8345-42.5949-7.297-29.3942-20.5545-46.7288-38.06-84.05l-4.41,1.04-131.8935-1.04-5.1534,7.9309c-11.338,30.5344-19.0865,48.7661-22.2771,71.1-3.675,25.7246,2.776,62.9929,17.0705,100.6237,30.8534,81.2231,48.0843,146.1855,49.2714,163.68s3.0474,35.5847,19.2688,90.985c11.8425,40.4471,20.5969,64.6308,20.5969,64.6308,12.3014,6.944,25.35,8.8187,37.2232,2.0729l36.2271-13.9865s-11.1027-95.4014-24.0648-120.708c-9.3316-18.2185-24.5968-26.8712-17.4766-50.6136S1161.1966,811.74,1170.8856,764.9861Z"></path>
      <path fill="#09a44a" d="M1024.7582,687.9485a4.83,4.83,0,0,1,.4945.6307c.3366.4681.7911,1.1,1.3791,1.9181l5.2859,7.5165c4.616,6.64,11.32,16.2822,19.7949,28.4718l.0734.106-.0112.1258c-.9635,10.6595-1.3287,23.0386-1.9884,36.8212-.6556,13.7829-1.3777,28.96-2.1525,45.2543-.853,16.2969-1.7642,33.709-2.7188,51.9573-1.0857,18.2475-2.02,37.3264-3.8462,56.9512-1.9015,16.326-3.5813,32.3609-2.188,47.78.3556,3.8425.8281,7.6439,1.5525,11.3633a74.8007,74.8007,0,0,0,2.7015,10.8886c2.5845,6.9212,5.5866,13.6242,8.4308,20.1437,11.5219,26.0723,22.3143,49.374,31.3009,68.9725l21.3934,46.3718c2.4982,5.444,4.4459,9.6881,5.7914,12.62.6354,1.4129,1.1276,2.5078,1.4809,3.2938.3279.7448.4677,1.1395.4677,1.1395s-.2149-.36-.5794-1.0871q-.5686-1.16-1.59-3.2426c-1.3933-2.9094-3.41-7.121-5.9969-12.5237-5.155-10.9567-12.5781-26.7339-21.7427-46.2121-9.0873-19.5559-19.9592-42.8178-31.5442-68.8825-2.8676-6.5385-5.8624-13.1756-8.5084-20.2316a75.7653,75.7653,0,0,1-2.7557-11.0345,115.6555,115.6555,0,0,1-1.5816-11.4744c-1.4221-15.5628.2678-31.7057,2.166-48.0147,1.8187-19.544,2.7687-38.6568,3.8758-56.8872.9894-18.2441,1.9335-35.6524,2.8174-51.9454.8308-16.29,1.6045-31.4641,2.3074-45.2439.7189-13.7683,1.153-26.1656,2.1919-36.8331l.062.2306c-8.3574-12.27-14.9682-21.977-19.52-28.66-2.2218-3.3-3.94-5.8522-5.1317-7.6226-.554-.8418-.9821-1.4919-1.299-1.9733A4.85,4.85,0,0,1,1024.7582,687.9485Z"></path>
    </g>
    <g>
      <path fill="#ffc92a" d="M1157.99,454.6391s18.9459,5.0347,19.513,29.9835c.5015,22.0731,10.7931,84.1076,11.0766,106.5047s-2.2719,39.27-30.6387,44.0379c-22.9075,3.85-47.189-47.6294-47.189-47.6294l23.3131-20.1987-9.72-40.472s-6.46-13.8917,8.8493-43.0933S1157.99,454.6391,1157.99,454.6391Z"></path>
      <path fill="#ffc92a" d="M1052.5855,416.3345l-10.954,14.4618-34.8428,7.4924s-25.6494,54.5635-24.4549,79.6484,3.9047,37.5388,3.9047,37.5388l-.2258,28.7139s-10.82,23.89-6.0074,34.2426,18.3508,19.9086,18.3508,19.9086l126.4595,1.5928s9.01,5.1761,13.7424-8.3617-2.7955-112.2843-2.7955-112.2843l24.6492-63.52-39.883-21.7475-7.2926-19.2494-47.7205,12.1711Z"></path>
      <path fill="#fbbf9e" d="M1143.2693,573.3573l-5.2641-7.7246-27.2532,11.7894,2.555,8.8262s9.2907,10.4519,18.4652,6.9679,10.7963-13.82,10.7963-13.82Z"></path>
      <path fill="#fbbf9e" d="M1119.69,552.687s3.8082-5.0049,6.6538-6.1115a39.7776,39.7776,0,0,1,4.1105-1.4228s-1.4228-5.217,3.9524-5.6914c0,0,2.0552,1.7391,3.7942,1.7391s3.0037.4743,3.4781,2.53,1.739,7.7464,0,10.4341-4.9009,5.3751-3.4781,12.6474c0,0-1.8971,8.0629-6.0076,10.1181s-6.1657,1.8972-6.1657,1.8972-3.7943,4.5846-6.9561,3.9523-4.5846-.79-4.5846-.79-2.53,3.9139-8.0629.85a6.1672,6.1672,0,0,1-6.1657.4144c-1.4784-.7991-8.6951-8.0627-9.0113-13.596s-.1-9.3369,1.2647-11.3828c2.03-3.0423,4.9768-.2862,4.9768-.2862s.7146-5.247,2.77-7.3023,3.6361-1.739,3.6361-1.739-.6322-6.3238,4.2687-6.7982,4.4267,5.3754,4.5846,8.5372l.1581,3.1618S1114.8744,549.2033,1119.69,552.687Z"></path>
      <path fill="#f7996e" d="M1119.69,552.687c.0181.0932-.6208-.4187-1.8722-.8791a3.7745,3.7745,0,0,0-2.3884-.0837,4.1216,4.1216,0,0,0-2.2964,2.22l-.4162.9043-.0575-.9882c-.0785-1.3519-.2027-2.858-.2592-4.535a13.0164,13.0164,0,0,0-.9041-5.17c-.7118-1.7621-3.1762-2.049-4.9383-1.0942-1.8.9986-2.3706,3.5536-2.2139,5.8408l.0351.5112-.573-.0233c-1.4347-.0584-3.2586,1.2765-4.0828,2.8607a18.899,18.899,0,0,0-1.7294,5.8064l-.1455.9231-.708-.6194c-.9739-.8517-2.469-1.3981-3.4572-.5881a5.9982,5.9982,0,0,0-1.748,3.8188,28.3547,28.3547,0,0,0-.2535,4.7683,22.4393,22.4393,0,0,0,.42,4.86,23.5107,23.5107,0,0,0,5.3251,8.6123c.59.6519,1.2079,1.2862,1.8518,1.8875.3252.295.6544.5808.9871.8348a4.0778,4.0778,0,0,0,1.062.5146,5.6045,5.6045,0,0,0,4.7509-.7135l.322-.2064.3116.17a6.8151,6.8151,0,0,0,4.9322.9226,4.3789,4.3789,0,0,0,2.3424-1.5759l.2393-.3249.3268.0563q1.6512.2849,3.2858.5667c.5213.0815,1.1409.2167,1.5768.2536a3.3148,3.3148,0,0,0,1.3608-.1572,12.2324,12.2324,0,0,0,4.8-3.6067l.1819-.2054.3146-.0055a12.78,12.78,0,0,0,4.36-1.1377,7.7887,7.7887,0,0,0,3.5917-2.4772,22.0786,22.0786,0,0,0,3.6421-7.9414l-.0043.2307a13.3975,13.3975,0,0,1,1.2132-9.5376c.7637-1.3752,1.8076-2.5422,2.4989-3.7014a8.0359,8.0359,0,0,0,.7054-3.916,25.1474,25.1474,0,0,0-.4372-3.9867c-.2833-1.2754-.3819-2.6678-1.0972-3.4123a2.3893,2.3893,0,0,0-1.402-.6725c-.518-.1122-1.1576-.0074-1.8269-.1973a8.7135,8.7135,0,0,1-3.1586-1.7372l.2826.09a4.0165,4.0165,0,0,0-3.3291,1.7768,5.109,5.109,0,0,0-.3565,3.4483l.0618.2885-.2869.0959q-1.5158.5059-2.8731.959a8.6489,8.6489,0,0,0-2.4032,1.0262,20.4678,20.4678,0,0,0-3.17,2.7054c-.7979.812-1.3787,1.4635-1.7727,1.8989a4.1339,4.1339,0,0,1-.62.6425,3.2133,3.2133,0,0,1,.49-.7491c.3533-.4723.8958-1.162,1.663-2.018a19.3619,19.3619,0,0,1,3.1438-2.88,9.0116,9.0116,0,0,1,2.4886-1.1487q1.3711-.4911,2.9032-1.04l-.2247.3837a5.7091,5.7091,0,0,1,.3453-3.95,4.7349,4.7349,0,0,1,3.8732-2.2069l.1513-.0131.1322.1028a8.0289,8.0289,0,0,0,2.8562,1.5271c.8894.1925,2.59-.1,3.6615,1.0647a4.0251,4.0251,0,0,1,.9492,1.9045c.1494.6336.2956,1.2813.4212,1.9429a25.884,25.884,0,0,1,.4956,4.1331,8.9025,8.9025,0,0,1-.7915,4.424c-.799,1.3505-1.7682,2.4286-2.4707,3.7249a12.351,12.351,0,0,0-1.0377,8.8177l.0254.1209-.03.1107a22.9929,22.9929,0,0,1-3.8263,8.4114,8.2172,8.2172,0,0,1-1.8211,1.71,14.6641,14.6641,0,0,1-2.2042,1.1128,13.3442,13.3442,0,0,1-4.9,1.2392l.4956-.21a13.2351,13.2351,0,0,1-5.3466,3.9889,4.4878,4.4878,0,0,1-1.8445.2074c-.6463-.0687-1.0937-.176-1.6527-.2625q-1.5984-.2756-3.2138-.5542l.5654-.2682a5.5023,5.5023,0,0,1-3.0256,2.0782,7.963,7.963,0,0,1-5.8248-1.0311l.6329-.0359a6.7627,6.7627,0,0,1-5.82.8654,5.1678,5.1678,0,0,1-1.3816-.6837c-.39-.298-.7441-.608-1.088-.9213-.6769-.6345-1.3132-1.2921-1.9223-1.9676a24.4426,24.4426,0,0,1-5.553-9.1028,23.0985,23.0985,0,0,1-.4352-5.14,29.2491,29.2491,0,0,1,.2949-4.9574,6.9379,6.9379,0,0,1,2.19-4.49,3.0588,3.0588,0,0,1,2.6024-.4966,5.2368,5.2368,0,0,1,2.18,1.186l-.853.3036a19.6831,19.6831,0,0,1,1.8953-6.1353,6.8067,6.8067,0,0,1,2.114-2.3339,4.4416,4.4416,0,0,1,2.99-.9462l-.5374.4876a9.8392,9.8392,0,0,1,.4558-3.7631,4.99,4.99,0,0,1,2.2566-2.8765,5.2834,5.2834,0,0,1,3.4137-.52,3.5,3.5,0,0,1,2.56,1.9944,13.3591,13.3591,0,0,1,.8768,5.4827c.0185,1.6564.1048,3.1751.1439,4.5262l-.4734-.0839a4.4887,4.4887,0,0,1,2.6387-2.3877,3.9693,3.9693,0,0,1,2.5882.2036A5.8455,5.8455,0,0,1,1119.69,552.687Z"></path>
      <path fill="#f7996e" d="M1136.3517 551.3322c-.0165.1531-.5784.2661-1.4612.0611a5.8986 5.8986 0 0 1-4.3931-5.0534c-.08-.9027.11-1.4432.2638-1.4384.3369-.0126.481 2.09 2.0457 3.8673C1134.3489 550.565 1136.4112 551 1136.3517 551.3322ZM1129.2437 567.3369c-.3389.1206-1.7662-3.5863-4.3715-7.65-2.5754-4.09-5.4343-6.8316-5.2009-7.0938.18-.251 3.5215 2.199 6.2049 6.4518C1128.58 563.2706 1129.5316 567.2614 1129.2437 567.3369ZM1113.0418 552.5932c.1945.0332-.1082 1.5226.4027 3.8181.4576 2.32 1.9267 5.2333 3.7924 8.4242a32.0581 32.0581 0 0 1 2.282 4.76 39.3051 39.3051 0 0 1 1.0624 4.1393 5.4747 5.4747 0 0 0 2.0283 3.0213c-.0135.0652-.44.0718-1.0585-.3252a4.8358 4.8358 0 0 1-1.7692-2.4305c-.4522-1.2008-.6833-2.59-1.2894-4.015a40.2694 40.2694 0 0 0-2.296-4.5691c-1.8532-3.1625-3.32-6.3547-3.5824-8.8612C1112.2915 554.0474 1112.9214 552.5415 1113.0418 552.5932ZM1110.4287 574.1854c-.0979.1-1.388-.777-3.1792-2.61a12.7671 12.7671 0 0 1-2.5591-3.77 18.0269 18.0269 0 0 1-1.0979-5.4363c-.7295-7.7116.1323-13.9634.438-13.9226.3489.0244.029 6.227.7484 13.813a19.2933 19.2933 0 0 0 .93 5.1368 13.71 13.71 0 0 0 2.1761 3.6265C1109.4519 572.93 1110.5621 574.0525 1110.4287 574.1854ZM1101.6327 575.6576c-.1625.0579-.683-.92-1.93-2.2474a23.3867 23.3867 0 0 1-2.109-2.5367 8.2111 8.2111 0 0 1-1.3667-3.9684c-.2254-2.981.5182-5.4806.7484-7.2695.2968-1.7921.2847-2.9193.4561-2.9408.1544-.0266.4713 1.1345.3825 3.0227-.0327 1.8809-.6155 4.41-.4 7.0782.127 2.7168 1.8592 4.5551 2.9472 6.0884C1101.4888 574.4055 1101.7876 575.6148 1101.6327 575.6576Z"></path>
      <path fill="#161a1c" d="M1176.6967,593.7514c-.1975.0987-.913-2.19-3.6112-4.6674a21.9263,21.9263,0,0,0-5.3029-3.5163,51.4681,51.4681,0,0,0-7.4215-2.708,79.2886,79.2886,0,0,1-7.6354-2.5625,25.1231,25.1231,0,0,1-5.7738-3.282,14.8013,14.8013,0,0,1-3.1068-3.233c-.5945-.88-.8-1.4344-.7421-1.4681.1728-.1249,1.3326,1.9384,4.35,4.0234a27.6052,27.6052,0,0,0,5.6852,2.9419c2.2555.8862,4.8446,1.6173,7.5693,2.44a45.4563,45.4563,0,0,1,7.565,2.8652,20.6586,20.6586,0,0,1,5.4021,3.8964,13.0482,13.0482,0,0,1,2.5662,3.6883A3.4413,3.4413,0,0,1,1176.6967,593.7514Z"></path>
      <path fill="#ffc92a" d="M839.9716,517.8014c1.3662.1371,21.14,7.0966,21.14,7.0966s8.0622-2.7186,15.4022-.5881,44.6484,10.522,44.6484,10.522l47.9781-62.085s19.2779-32.4531,37.6486-34.4582l-14.605,91.4348s-39.0117,51.5509-57.8191,58.013-84.91-17.9664-86.6219-27.1543l-22.0615-13.7861Z"></path>
      <path fill="#161a1c" d="M1152.1331 636.1574a10.6961 10.6961 0 0 1-2.4413-.8494 44.134 44.134 0 0 1-6.2055-3.3421c-5.0471-3.1932-11.1988-8.82-16.8456-15.9152-2.8479-3.5295-5.369-7.0309-7.6137-10.2394-2.1962-3.2241-4.3682-6.0479-5.5557-8.87a10.7679 10.7679 0 0 1-.7226-7.0506 6.1979 6.1979 0 0 1 .7782-1.785c.2437-.3723.4121-.5368.4416-.5167a20.8309 20.8309 0 0 0-.7681 2.4061 10.8559 10.8559 0 0 0 1.0413 6.605c1.2077 2.6191 3.4282 5.3818 5.68 8.575 2.2884 3.1659 4.8233 6.6288 7.646 10.1272a81.3621 81.3621 0 0 0 16.3879 15.964C1148.7816 634.6252 1152.2326 635.94 1152.1331 636.1574ZM1129.2231 508.1007c.3464.0171.2021 7.1439.5755 15.91.3505 8.7694 1.0818 15.8584.7382 15.9042-.1577.02-.5449-1.73-.9471-4.5956s-.7979-6.8462-.9816-11.2594c-.1808-4.4119-.1156-8.4125.05-11.3S1129.0645 508.0934 1129.2231 508.1007ZM1157.7242 457.3346c.0252.2762-2.8105.1279-6.8361 1.8237-4.05 1.6118-8.8633 5.5431-12.6873 11.03a53.8905 53.8905 0 0 0-7.3933 15.3963c-1.2572 4.2194-1.5512 6.957-1.764 6.9332a6.1056 6.1056 0 0 1 .0334-1.9432 16.8278 16.8278 0 0 1 .3-2.257 28.12 28.12 0 0 1 .6174-2.9552 48.12 48.12 0 0 1 7.2327-15.8614 36.6936 36.6936 0 0 1 6.5218-7.1323 23.6991 23.6991 0 0 1 6.8268-3.9927c.5331-.19 1.03-.3992 1.5189-.54q.7285-.15 1.4106-.2913a8.6962 8.6962 0 0 1 2.2729-.2871A6.05 6.05 0 0 1 1157.7242 457.3346ZM1001.71 457.3346a3.6849 3.6849 0 0 1-.3817 1.0022c-.356.7577-.7839 1.6679-1.2974 2.7605-.5876 1.1855-1.29 2.6426-2.0177 4.3755-.74 1.7259-1.6637 3.6551-2.4829 5.873a154.7855 154.7855 0 0 0-5.3314 15.6979 151.4421 151.4421 0 0 0-5.6331 40.0921 154.8358 154.8358 0 0 0 .8 16.56c.1762 2.358.5322 4.4668.7686 6.33.2224 1.8663.4956 3.46.7338 4.7615.1925 1.1917.3529 2.1843.4863 3.0108a3.6681 3.6681 0 0 1 .0906 1.0683 3.6148 3.6148 0 0 1-.3254-1.0178l-.7071-2.9732c-.3089-1.2922-.65-2.8806-.9363-4.7455-.3-1.8619-.7164-3.9741-.9477-6.3394a139.12 139.12 0 0 1-1.06-16.6573 142.8621 142.8621 0 0 1 5.6747-40.39 139.1494 139.1494 0 0 1 5.6088-15.7191c.8743-2.21 1.8564-4.1259 2.6579-5.8331.7895-1.7138 1.5551-3.1471 2.2081-4.304.5934-1.0544 1.0878-1.9326 1.499-2.6637A3.61 3.61 0 0 1 1001.71 457.3346ZM1120.5287 434.02a3.6408 3.6408 0 0 1-.9219.5009c-.6215.2888-1.5381.7185-2.741 1.2235-2.3969 1.0315-5.91 2.4378-10.3213 4.0416a300.3809 300.3809 0 0 1-35.4938 10.3145l-.5746.13-.1364-.5778c-.261-1.104-.5539-2.2843-.883-3.4679-1.7067-6.1875-3.76-12.0494-5.0411-17.6865l.9862.2274c-4.9937 6.085-9.4922 11.4835-13.5226 15.6766l-.3128.3253-.2973-.3246a45.2463 45.2463 0 0 1-4.1636-5.61l-2.8767-4.36c-1.587-2.3838-2.654-3.5492-2.59-3.6139a3.6785 3.6785 0 0 1 .8613.7789 29.759 29.759 0 0 1 2.1088 2.5627c.8676 1.1489 1.8779 2.59 3.0508 4.2538a47.8779 47.8779 0 0 0 4.2178 5.3978l-.6093.0009c3.889-4.22 8.3257-9.69 13.257-15.7928l.7231-.8947.2636 1.1221c1.3006 5.5374 3.37 11.3792 5.0937 17.6227.332 1.1951.6288 2.3937.8926 3.5174l-.7105-.4471a357.8856 357.8856 0 0 0 35.4867-9.925c4.4341-1.4985 7.9828-2.7845 10.4262-3.6863A29.1952 29.1952 0 0 1 1120.5287 434.02Z"></path>
      <path fill="#161a1c" d="M1050.5882,644.93a2.042,2.042,0,0,1-.5149-.2524c-.3247-.194-.8347-.4494-1.4452-.8709a17.4941,17.4941,0,0,1-4.4459-4.7093,27.8482,27.8482,0,0,1-3.7035-9.5563,68.5412,68.5412,0,0,1-1.2394-13.5131c-.0159-20.0333-.2957-47.7466,1.86-78.283,1.0941-15.2661,2.82-29.7652,5.08-42.8385a296.8438,296.8438,0,0,1,7.9585-34.3167c5.7887-19.2343,11.3776-30.3715,11.3776-30.3715a2.1011,2.1011,0,0,1-.1609.553c-.1551.421-.3462.9386-.5814,1.5752q-.8547,2.195-2.34,6.0076c-1.0933,2.5774-2.1379,5.8418-3.4474,9.5932-1.3782,3.7293-2.6042,8.0878-4.0389,12.8784a311.7582,311.7582,0,0,0-7.6853,34.2664c-2.1941,13.0436-3.8819,27.5046-4.9736,42.7387-2.152,30.4678-2.0069,58.1713-2.2065,78.1933a69.611,69.611,0,0,0,1.05,13.3838,27.9785,27.9785,0,0,0,3.4428,9.4415C1047.56,643.6,1050.7586,644.7621,1050.5882,644.93Z"></path>
      <path fill="#161a1c" d="M1086.2014,601.8427a17.4049,17.4049,0,0,1-3.28-.3149c-2.1028-.2672-5.1294-.7716-8.85-1.4978a209.9964,209.9964,0,0,1-55.7543-19.5427c-3.36-1.7553-6.0383-3.2506-7.8475-4.3546a17.4076,17.4076,0,0,1-2.7585-1.8015,17.4814,17.4814,0,0,1,2.9829,1.3955c1.8745.9773,4.6061,2.3553,8.0016,4.0078a250.89,250.89,0,0,0,55.55,19.471c3.6841.829,6.6784,1.4581,8.7531,1.8651A17.49,17.49,0,0,1,1086.2014,601.8427Z"></path>
      <g opacity=".3">
        <path d="M1148.421 577.0708c.0128.0014.0286.0025.0411.0044-.0894-.0714-.1981-.1309-.2848-.2037ZM1182.5149 587.3944c-.7384-3.9915-4.0815-7.1277-7.8577-8.6171s-7.9491-1.58-12.0047-1.4019a96.7837 96.7837 0 0 1-14.19-.3c4.0067 3.1734 11.0028 4.5411 16.4633 6.8364 3.0762 1.293 6.2314 2.6376 8.6161 4.972a33.5918 33.5918 0 0 0 2.9035 2.9055 4.25 4.25 0 0 0 3.84.9082C1182.2609 592.0108 1182.8959 589.4513 1182.5149 587.3944Z"></path>
      </g>
      <g opacity=".3">
        <path d="M990.5106,484.0018c-6.8417,7.62-11.7631,17.0453-12.7235,27.24a48.5667,48.5667,0,0,0,6.7362,29.4421l.0927-.3593C982.3827,520.7271,983.9087,502.5887,990.5106,484.0018Z"></path>
      </g>
    </g>
  </g>
  <path fill="#f5f5f5" d="M294.2151 204.5919A77.4214 77.4214 0 0 1 313.11 196.38l3.8921-18.7037 31.6-.5542 4.5477 18.5535a77.3924 77.3924 0 0 1 19.174 7.5428L388.2955 192.75l22.7371 21.9538-9.899 16.3256a77.3752 77.3752 0 0 1 8.2112 18.9l18.7018 3.8921.555 31.6L410.0482 289.97a77.4473 77.4473 0 0 1-7.5427 19.1717l10.4666 15.9722L391.0215 347.851l-16.3275-9.9a77.4063 77.4063 0 0 1-18.8984 8.211l-3.8932 18.7036-31.5991.5545-4.5485-18.555a77.48 77.48 0 0 1-19.1727-7.5429L280.6115 349.791l-22.7376-21.9532 9.9-16.3261a77.3831 77.3831 0 0 1-8.2126-18.8985l-18.7026-3.8923-.5542-31.6 18.5545-4.5495A77.5 77.5 0 0 1 266.4012 233.4l-10.4676-15.9712 21.9512-22.7373 16.33 9.9006Zm16.845 42.0962a33.904 33.904 0 1 0 47.94-.8428A33.9036 33.9036 0 0 0 311.06 246.6881ZM168.9941 147.3971a34.5277 34.5277 0 0 1 8.4233-3.661l1.735-8.3376 14.0873-.2471 2.0273 8.2708a34.5 34.5 0 0 1 8.5476 3.3627l7.12-4.667 10.1359 9.7869-4.4129 7.2778a34.483 34.483 0 0 1 3.66 8.4254l8.3372 1.735.2473 14.087-8.2711 2.0278a34.5107 34.5107 0 0 1-3.3624 8.5466l4.666 7.12-9.7854 10.1361-7.2786-4.4132a34.5131 34.5131 0 0 1-8.4248 3.6605l-1.7356 8.3379-14.0864.2471-2.0276-8.2716a34.5392 34.5392 0 0 1-8.5471-3.3627l-7.1195 4.667-10.1362-9.7867 4.4132-7.278a34.49 34.49 0 0 1-3.6612-8.4246l-8.3374-1.7353-.2471-14.0867 8.2713-2.0284a34.5539 34.5539 0 0 1 3.3624-8.5463l-4.6662-7.12 9.7856-10.1359 7.28 4.4134Zm7.51 18.7661a15.114 15.114 0 1 0 21.371-.3756A15.1135 15.1135 0 0 0 176.5036 166.1632ZM462.0034 179.3922a45.2912 45.2912 0 0 1 11.0534-4.8039l2.277-10.9416 18.486-.3241 2.66 10.8536a45.2754 45.2754 0 0 1 11.2167 4.4126l9.3429-6.1241 13.3009 12.843-5.7907 9.55a45.28 45.28 0 0 1 4.8037 11.0565l10.94 2.2768.3246 18.4858-10.8536 2.6611a45.3026 45.3026 0 0 1-4.4126 11.2154l6.1231 9.3434-12.8409 13.3011-9.5517-5.7911a45.2835 45.2835 0 0 1-11.0554 4.8033L495.75 273.1514l-18.4853.3244-2.6609-10.8544a45.3314 45.3314 0 0 1-11.2156-4.4126l-9.3429 6.1241L440.7441 251.49l5.7909-9.5508a45.27 45.27 0 0 1-4.8041-11.0555l-10.9408-2.277-.3244-18.4855L441.32 207.46a45.3325 45.3325 0 0 1 4.4124-11.2154l-6.1236-9.3432L452.45 173.6005l9.5532 5.7917Zm9.8541 24.6261a19.8336 19.8336 0 1 0 28.0447-.4931A19.8334 19.8334 0 0 0 471.8575 204.0183Z"></path>
  <g>
    <path fill="#e9b376" d="M255.0873,753.0335l55.235-59.7831,23.2178-76.59,26.3135,4.4127s-10.8835,80.7017-23.1571,99.9692-53.1926,73.2561-53.1926,73.2561Z"></path>
    <path fill="#e9b376" d="M336.9149,624.634s-8.6974-3.5651-11.5837-10.77a46.6784,46.6784,0,0,1-3.0427-12.1194c-.8209-7.586,2.366-11.4705,5.4848-8.6022s3.3247,10.5439,5.1,7.853,3.51-30.3634,6.3968-33.8137,4.0053,1.1129,4.0053,1.1129.4352-6.2017,3.3252-7.1949,3.7864,2.9852,3.7864,2.9852.4382-4.154,3.3314-3.5086,3.5894,25.7558,4.2324,26.7219c0,0-2.4336-14.9673.9-16.8382s5.1246,6.3849,6.6926,12.9384.8977,14.7758-.9173,21.4141c-2.264,8.2789-3.41,20.18-11.1925,21.8149S336.9149,624.634,336.9149,624.634Z"></path>
    <path d="M350.9611 565.0218c-.4516 7.0891-.6679 14.1851-.6226 21.2318a38.7419 38.7419 0 0 1 5.5132.5407c.9056.18.3074 1.4723-.5831 1.3329a39.4866 39.4866 0 0 0-17.0728.9279c-.934.25-1.0837-1.0474-.15-1.2971a39.6981 39.6981 0 0 1 4.2788-.9176.44.44 0 0 1-.1487-.3419 69.1578 69.1578 0 0 1 .6626-16.6773c.1546-.8495 1.594-.8648 1.4546.0254a67.5475 67.5475 0 0 0-.66 16.3036c.0064.2076 1.8251 1.4753 1.691 1.6176 1.8333-.2765 1.774-1.5139 3.5874-1.5267q-.068-10.57.6228-21.232C349.5919 564.149 351.0183 564.1615 350.9611 565.0218ZM350.1676 617.024c-2.0128-8.1948-8.0192-13.4581-15.4788-13.7732-.8447-.0286-.7472-1.5343.0975-1.5057 8.0976.3265 14.4661 6.0782 16.6627 14.8994A.6686.6686 0 1 1 350.1676 617.024Z" opacity=".2"></path>
    <path fill="none" stroke="#000" stroke-linecap="round" stroke-linejoin="round" stroke-width="1.325" d="M357.536,573.3717a82.2221,82.2221,0,0,0,.87,13.9267" opacity=".2"></path>
    <path fill="#161a1c" d="M432.8626,575.7645l17.3637,16.66s-41.6194-5.1853-58.5424,45.44l-93.49-60.9442L317.37,542.4375l46.99-11.0367Z"></path>
    <path fill="#fff" d="M432.8626,575.7645l17.3637,16.66s-41.6194-5.1853-58.5424,45.44l-93.49-60.9442L317.37,542.4375l46.99-11.0367Z" opacity=".7" style="isolation:isolate"></path>
    <path fill="#161a1c" d="M293.0434,573.3717l86.0353,53.6792s18.0953-34.4895,45.12-46.716c12.8609-5.8185,19.4775-6.9632,19.4775-6.9632L356.302,517.5984S314.4419,513.7566,293.0434,573.3717Z"></path>
    <path fill="#fff" d="M293.0434,573.3717l86.0353,53.6792s18.0953-34.4895,45.12-46.716c12.8609-5.8185,19.4775-6.9632,19.4775-6.9632L356.302,517.5984S314.4419,513.7566,293.0434,573.3717Z" opacity=".9"></path>
    <path fill="none" stroke="#263238" stroke-linecap="round" stroke-linejoin="round" stroke-width="1.325" d="M319.2081 566.862A54.7154 54.7154 0 0 1 358.9959 532.51M330.55 576.43a54.7158 54.7158 0 0 1 39.7877-34.352M341.8929 585.9968c6.2232-17.2209 24.112-32.6658 42.0565-36.3107M355.1223 593.6745c5.9489-16.34 23.7632-31.6074 40.9165-35.066M368.26 602.89c5.9486-16.34 23.7632-31.6075 40.9162-35.066"></path>
    <path fill="#e9b376" d="M324.3407,609.64c0-.974-4.2423-12.9635-2.4167-15.86s17.3558-7.3025,16.477-3.7875-4.8334,7.9089-4.8334,7.9089,9.43,3.9545,9.2188,12.7422-11.8085,10.372-11.8085,10.372Z"></path>
    <g>
      <path fill="#ffc92a" d="M167.722,974.1478c-2.1111-38.0935-7.22-83.4318-15.2411-122.8556-1.9857-9.76-12.4347-16.4309-23.7354-15.2005l-65.7966,7.1625c-10.9468.7159-22.1083,4.3714-29.0024,11.8063-10.5439,11.3712-8.5222,27.744-5.95,42.1838l15.0963,84.7578c1.5919,8.9386,3.9259,18.9289,12.5986,23.913,6.9971,4.0212,16.0831,3.5238,24.429,2.82q31.1281-2.6247,62.1248-6.2942c7-.8288,14.5225-1.9187,19.505-6.2776C168.0509,990.651,168.1524,981.9141,167.722,974.1478Z"></path>
      <path d="M153.9819,864.4086A14.8078,14.8078,0,0,0,139.31,851.2545l-56.4494-.1614a14.8,14.8,0,0,0-2.3192.176l-2.6154.4071a14.8063,14.8063,0,0,0-12.2609,17.4377L91.0519,999.0667c10.1671,8.7533,68.5333,2.4161,72.5874-7.93C166.8969,982.8238,157.7161,897.5883,153.9819,864.4086Z" opacity=".2" style="isolation:isolate"></path>
      <polygon fill="#161a1c" points="200.222 807.821 218.288 805.347 244.36 1007.981 226.294 1010.456 200.222 807.821"></polygon>
      <polygon fill="#161a1c" points="87.246 807.836 105.312 805.361 131.384 1007.996 113.317 1010.471 87.246 807.836"></polygon>
      <polygon fill="#fff" points="200.222 807.821 218.288 805.347 244.36 1007.981 226.294 1010.456 200.222 807.821" opacity=".3"></polygon>
      <polygon fill="#fff" points="87.246 807.836 105.312 805.361 131.384 1007.996 113.317 1010.471 87.246 807.836" opacity=".4"></polygon>
      <path fill="#161a1c" d="M237.1224,889.7446H100.89a14.7629,14.7629,0,0,1-14.63-12.8811l-9.674-75.5373a11.424,11.424,0,0,1,11.3173-12.8545H224.1353a14.7362,14.7362,0,0,1,14.63,12.881l9.6741,75.4578a11.4223,11.4223,0,0,1-11.3174,12.9341Z"></path>
      <path fill="#fff" d="M237.1224,889.7446H100.89a14.7629,14.7629,0,0,1-14.63-12.8811l-9.674-75.5373a11.424,11.424,0,0,1,11.3173-12.8545H224.1353a14.7362,14.7362,0,0,1,14.63,12.881l9.6741,75.4578a11.4223,11.4223,0,0,1-11.3174,12.9341Z" opacity=".6" style="isolation:isolate"></path>
      <polygon fill="#161a1c" points="222.158 1200.321 247.576 1200.321 250.703 1065.997 252.002 1009.251 217.758 1009.251 219.057 1065.997 222.158 1200.321"></polygon>
      <polygon fill="#fff" points="222.158 1200.321 247.576 1200.321 250.703 1065.997 252.002 1009.251 217.758 1009.251 219.057 1065.997 222.158 1200.321" opacity=".4" style="isolation:isolate"></polygon>
      <polygon points="252.002 1009.251 250.703 1067.561 219.057 1067.561 217.758 1009.251 252.002 1009.251" opacity=".2" style="isolation:isolate"></polygon>
      <polygon fill="#161a1c" points="351.923 1200.321 340.871 1013.253 311.107 1013.253 326.559 1200.321 351.923 1200.321"></polygon>
      <polygon fill="#fff" points="326.532 1200.321 351.897 1200.321 342.514 1040.95 340.871 1012.882 311.107 1012.882 313.412 1040.95 326.532 1200.321" opacity=".5" style="isolation:isolate"></polygon>
      <polygon fill="#161a1c" points="143.175 1200.321 158.654 1013.253 128.863 1013.253 117.811 1200.321 143.175 1200.321"></polygon>
      <polygon fill="#fff" points="143.202 1200.321 156.321 1040.95 158.627 1012.882 128.863 1012.882 127.22 1040.95 117.837 1200.321 143.202 1200.321" opacity=".5" style="isolation:isolate"></polygon>
      <polygon points="158.627 1012.882 156.321 1042.037 127.22 1042.037 128.863 1012.882 158.627 1012.882" opacity=".2" style="isolation:isolate"></polygon>
      <path fill="#161a1c" d="M111.8737,1002.5986H357.86a10.6547,10.6547,0,0,1,10.6547,10.6548h0a10.6547,10.6547,0,0,1-10.6547,10.6547H111.8737a10.6549,10.6549,0,0,1-10.6547-10.6547h0A10.6549,10.6549,0,0,1,111.8737,1002.5986Z"></path>
      <path fill="#fff" d="M111.8737,1002.5986H357.86a10.6547,10.6547,0,0,1,10.6547,10.6548h0a10.6547,10.6547,0,0,1-10.6547,10.6547H111.8737a10.6549,10.6549,0,0,1-10.6547-10.6547h0A10.6549,10.6549,0,0,1,111.8737,1002.5986Z" opacity=".6" style="isolation:isolate"></path>
      <path fill="#ffc92a" d="M98.837,788.4717,71.7936,954.0907,84.78,981.876s26.5192-127.7394,30.9687-152.5726,2.9823-40.8317,2.9823-40.8317C112.66,787.3985,105.95,786.7764,98.837,788.4717Z"></path>
      <polygon fill="#ffc92a" points="76.495 805.912 56.719 843.987 56.719 846.291 81.694 841.214 76.495 805.912"></polygon>
      <path fill="none" stroke="#263238" stroke-linecap="round" stroke-linejoin="round" stroke-width="1.325" d="M69.1342 952.6889c2.7707-11.3 4.3854-17.8854 7.1561-29.1858M51.5154 856.0992c3.6606-5.9488 10.4062-21.5151 10.4062-21.5151M50.1441 952.6889s-8.8763-46.7358-13.2877-85.7979c0 0-.6074-14.3722 6.6052-18.738" opacity=".3"></path>
    </g>
    <g>
      <polygon points="283.896 1016.348 286.175 1045.503 315.304 1045.503 313.66 1016.348 283.896 1016.348" opacity=".2" style="isolation:isolate"></polygon>
      <path fill="#e9b376" d="M293.4452,982.7882l45.211,24.0349s-12.19,33.4344-14.5511,49.082c-4.9335,32.6918-2.8938,117.9975-2.8938,117.9975l23.1375,1.1018s41.3777-138.9255,46.85-159.2c5.3149-19.6927,9.1459-34.3114,0-46.4652s-66.486-30.3-66.486-30.3Z"></path>
      <path fill="#09a44a" d="M324.5535,1006.0643c-18.924-2.65-57.5936-8.9584-87.1991-10.4692l-34.4556-1.6963c-76.677-4.0286,75.4535-73.9912,75.4535-73.9912s50.8143,14.3984,90.9153,30.4335C348.4352,970.3784,340.1381,989.6847,324.5535,1006.0643Z"></path>
      <path fill="#09a44a" d="M145.4658,921.06s-4.6733,10.6821-5.0054,31.3432c-.4609,28.65,12.0322,52.8745,62.8608,52.8745,93.0635,0,84.4041-50.0886,76.5378-94.2448Z"></path>
      <path d="M256.9972,931.8883l19.8467-9.3086.9139,11.8493s37.5457,23.6169,51.1758,36.6356c13.32,12.7229,1.0872,29.1036,1.0872,29.1036l-12.298,15.9026-52.2474-17.2952Z" opacity=".2" style="isolation:isolate"></path>
      <path fill="#e9b376" d="M224.7913,1000.9426l47.3791,21.0018s-12.4583,37.0771-14.1522,52.8111c-2.5945,24.0991-6.4917,110.2095-6.4917,110.2095l24.36-6.1774s43.3546-127.5875,48.8265-147.8622c5.3151-19.6927,9.1461-34.3114,0-46.4653s-60.06-39.29-60.06-39.29Z"></path>
      <path fill="#09a44a" d="M257.619,1016.7191c-28.6707-4.6184-55.52-5.3913-83.17-14.2708-7.342-2.4118-24.8242-39.0824-23.0219-51.5659,6.255-43.8382,96.2014-26.3981,96.2014-26.3981s41.1323,30.6536,60.4939,42.3438Z"></path>
      <polygon fill="#09a44a" points="321.114 1169.166 320.794 1133.514 356.68 1133.514 345.079 1173.441 332.179 1181.858 321.114 1169.166"></polygon>
      <polygon fill="#fff" points="321.114 1169.166 320.794 1133.514 356.68 1133.514 345.079 1173.441 332.179 1181.858 321.114 1169.166" opacity=".7"></polygon>
      <path fill="#09a44a" d="M346.1893,1165.8986h-7.7536a5.2753,5.2753,0,0,0-4.4138,2.903c-4.4713,7.6976-7.8312,4.788-12.6947-2.4488-3.0918-.4542-3.924,4.0186-4.1763,5.2206l-5.7963,26.5782c-.5033,2.22.5158,4.5333,2.2765,5.1684a2.6706,2.6706,0,0,0,.9634.16h61.4293c9.77,0,12.6063-11.9985,6.1085-14.0335-18.0972-5.0411-29.25-11.2815-34.8436-17.9182C346.2513,1170.3666,347.3167,1169.4976,346.1893,1165.8986Z"></path>
      <path fill="#fff" d="M384.6947,1198.3586h-73.37c-.3967,2.1548.6,4.3462,2.3062,4.9614a2.67,2.67,0,0,0,.9631.16h61.4293A9.4013,9.4013,0,0,0,384.6947,1198.3586Z" opacity=".7"></path>
      <path fill="#161a1c" d="M363.0142,1173.4557a4.3766,4.3766,0,0,0,1.3159-3.1906,1.9881,1.9881,0,0,0-.6326-1.723c-2.43-2.17-12.1239,3.5418-13.2124,4.2118a.5009.5009,0,0,0-.26.3271.5891.5891,0,0,0,.26.6938,28.379,28.379,0,0,0,7.2643,1.1805A7.25,7.25,0,0,0,363.0142,1173.4557Zm.0758-3.9886a.787.787,0,0,1,.2531.7342,3.51,3.51,0,0,1-.9618,2.3292c-2.202,2.0739-7.5174,1.1807-10.3775.51C356.0282,1170.8077,361.7486,1168.2869,363.09,1169.4671Z"></path>
      <path fill="#161a1c" d="M350.8143,1173.9026c2.9107-1.5317,9.0106-7.5622,8.6817-10.7528a1.8232,1.8232,0,0,0-1.7466-1.691c-5.3152-.766-7.5932,11.2633-7.5932,11.7738a.6374.6374,0,0,0,.1266.574.4245.4245,0,0,0,.3035,0Zm6.758-11.4549c.987.1277.987.5743.987.7342.2786,1.9462-4.1508,6.9555-7.3149,9.0615.6581-2.8079,2.6073-9.8275,5.9736-9.8275Z"></path>
      <path fill="none" stroke="#263238" stroke-linecap="round" stroke-linejoin="round" stroke-width="1.325" d="M351.5718 1173.4411a9.5128 9.5128 0 0 0-6.5842 5.3465M356.3905 1178.0137a9.5134 9.5134 0 0 0-6.5845 5.3464M362.3858 1181.8581a9.5144 9.5144 0 0 0-6.5845 5.3467"></path>
      <path d="M313.7228,1187.2934s-3.1307,9.1331-2.5865,11.4914a12.1131,12.1131,0,0,0,2.3188,4.4321s2.8516.2846,4.4843-1.1667a18.8878,18.8878,0,0,0,1.789-2.0841,7.5045,7.5045,0,0,0-3.2849-11.6677Z" opacity=".2" style="isolation:isolate"></path>
      <g>
        <polygon fill="#09a44a" points="252.002 1168.669 254.314 1129.349 291.661 1132.09 278.97 1171.493 261.909 1181.858 252.002 1168.669"></polygon>
        <polygon fill="#fff" points="252.002 1168.669 254.314 1129.349 291.661 1132.09 278.97 1171.493 261.909 1181.858 252.002 1168.669" opacity=".7"></polygon>
        <path fill="#09a44a" d="M280.1718,1165.8986h-7.7536a5.2751,5.2751,0,0,0-4.4137,2.903c-4.4713,7.6976-7.8313,4.788-12.6948-2.4488-3.0917-.4542-3.924,4.0186-4.1763,5.2206l-5.7962,26.5782c-.5033,2.22.5158,4.5333,2.2764,5.1684a2.6711,2.6711,0,0,0,.9635.16h61.4293c9.77,0,12.606-11.9985,6.1082-14.0335-18.0972-5.0411-29.25-11.2815-34.8434-17.9182C280.2338,1170.3666,281.2993,1169.4976,280.1718,1165.8986Z"></path>
        <path fill="#161a1c" d="M296.9967,1173.4557a4.3767,4.3767,0,0,0,1.316-3.1906,1.9885,1.9885,0,0,0-.6327-1.723c-2.43-2.17-12.1238,3.5418-13.2124,4.2118a.5012.5012,0,0,0-.26.3271.5891.5891,0,0,0,.26.6938,28.38,28.38,0,0,0,7.2643,1.1805A7.25,7.25,0,0,0,296.9967,1173.4557Zm.0758-3.9886a.7868.7868,0,0,1,.2532.7342,3.5107,3.5107,0,0,1-.9619,2.3292c-2.202,2.0739-7.5174,1.1807-10.3775.51C290.0107,1170.8077,295.7312,1168.2869,297.0725,1169.4671Z"></path>
        <path fill="#161a1c" d="M284.7968,1173.9026c2.9107-1.5317,9.0107-7.5622,8.6818-10.7528a1.8234,1.8234,0,0,0-1.7467-1.691c-5.3152-.766-7.5932,11.2633-7.5932,11.7738a.6372.6372,0,0,0,.1267.574.4245.4245,0,0,0,.3035,0Zm6.7581-11.4549c.987.1277.987.5743.987.7342.2786,1.9462-4.1508,6.9555-7.3149,9.0615.6581-2.8079,2.6072-9.8275,5.9735-9.8275Z"></path>
        <path fill="none" stroke="#263238" stroke-linecap="round" stroke-linejoin="round" stroke-width="1.325" d="M285.5543 1173.4411a9.513 9.513 0 0 0-6.5842 5.3465M290.373 1178.0137a9.5131 9.5131 0 0 0-6.5844 5.3464M296.3683 1181.8581a9.5143 9.5143 0 0 0-6.5844 5.3467"></path>
        <path fill="#fff" d="M318.677,1198.3586h-73.37c-.3965,2.1548.6,4.3462,2.3061,4.9614a2.6711,2.6711,0,0,0,.9635.16h61.4293A9.4009,9.4009,0,0,0,318.677,1198.3586Z" opacity=".7"></path>
      </g>
    </g>
    <g>
      <path fill="#09a44a" d="M248.713,751.5056l42.3213-39.656,40.5251,30.4735s-45.0668,56.4508-53.8,65.2632S248.713,751.5056,248.713,751.5056Z"></path>
      <path d="M248.713,751.5056l42.3213-39.656,40.5251,30.4735s-45.0668,56.4508-53.8,65.2632S248.713,751.5056,248.713,751.5056Z" opacity=".4" style="isolation:isolate"></path>
      <path d="M279.2232,805.9123q-5.1051-22.0752-10.2108-44.15l18.3354,34.8937Z" opacity=".4" style="isolation:isolate"></path>
      <path fill="#09a44a" d="M140.1578,933.2236c3.01-13.4713,2.3032-35.46,2.3032-35.46,0-49.1292,1.872-109.9049,3.7159-126.9055.723-6.6664-8.7925-14.86,8.4774-19.7423,7.1723-2.0276,17.7407-3.7169,31.0495-4.4922,18.4478-1.0747,42.07-.718,68.3907.0249,0,0,10.6918,19.0041,23.6651,55.0537,0,0,4.0414,37.7578,6.8037,62.1521l7.3094,55.3084C282.0979,934.33,228.8314,945.9324,140.1578,933.2236Z"></path>
      <path d="M140.3672,933.9686c3.01-13.4713,2.3029-35.46,2.3029-35.46,0-49.1289,1.8723-109.9046,3.7162-126.9055.723-6.6664-7.0571-15.9336,10.2131-20.8157,6.9333-1.96,16.7492-3.5874,29.1044-4.1636,18.1425-.8463,41.4366-.7358,68.3907.0249,0,0,10.6974,19.0558,23.6707,55.1054,0,0,4.2449,38.4508,7.0072,62.8451l7.31,55.3084C282.307,935.0744,229.0405,946.6772,140.3672,933.9686Z" opacity=".4" style="isolation:isolate"></path>
      <path fill="#09a44a" d="M122.1423,792.27l.84,54.0211L174.1366,835.86s1.5793-40.2335.85-68.6408c-.3827-14.9037-8.978-17.984-19.1549-16.315C135.9521,754.1642,121.8292,772.127,122.1423,792.27Z"></path>
      <path d="M122.1423,792.27l.84,54.0211L174.1366,835.86s1.5793-40.2335.85-68.6408c-.3827-14.9037-8.978-17.984-19.1549-16.315C135.9521,754.1642,121.8292,772.127,122.1423,792.27Z" opacity=".4" style="isolation:isolate"></path>
      <path d="M173.6738,842.2682l11.7305-3.16s-7.26-49.7462-7.55-48.875,1.6854,43.8514,1.6854,43.8514l-8.4673,2.4Z" opacity=".4" style="isolation:isolate"></path>
    </g>
    <g>
      <polygon fill="#161a1c" points="179.884 1204.908 168.513 1204.908 163.543 911.173 184.855 911.173 179.884 1204.908"></polygon>
      <polygon fill="#161a1c" points="530.359 1202.099 519.011 1202.099 514.017 916.872 535.353 916.872 530.359 1202.099"></polygon>
      <polygon fill="#161a1c" points="404.949 1202.099 393.578 1202.099 388.608 916.872 409.919 916.872 404.949 1202.099"></polygon>
      <rect width="386.168" height="23.537" x="158.79" y="893.335" fill="#161a1c"></rect>
      <polygon fill="#fff" points="530.359 1202.099 519.011 1202.099 514.017 916.872 535.353 916.872 530.359 1202.099" opacity=".3" style="isolation:isolate"></polygon>
      <polygon fill="#fff" points="404.949 1202.099 393.578 1202.099 388.608 916.872 409.919 916.872 404.949 1202.099" opacity=".3" style="isolation:isolate"></polygon>
      <rect width="360.709" height="51.813" x="174.199" y="911.173" fill="#161a1c"></rect>
      <rect width="145.03" height="46.114" x="389.877" y="916.871" fill="#fff" opacity=".3" style="isolation:isolate"></rect>
      <polygon points="163.639 916.872 163.883 931.273 534.907 931.273 534.907 916.872 163.639 916.872" opacity=".2" style="isolation:isolate"></polygon>
    </g>
    <g>
      <rect width="171.253" height="19.533" x="255.087" y="873.715" fill="#09a44a"></rect>
      <rect width="79.2" height="11.28" x="347.14" y="878.063" fill="#fff" opacity=".8"></rect>
      <rect width="85.626" height="19.533" x="255.087" y="873.715" opacity=".2"></rect>
    </g>
    <g>
      <rect width="171.252" height="19.533" x="266.975" y="854.182" fill="#161a1c"></rect>
      <path fill="#fff" d="M438.2278,869.81h-73.56a5.64,5.64,0,0,1-5.64-5.64h0a5.64,5.64,0,0,1,5.64-5.64h73.56Z" opacity=".8"></path>
      <rect width="85.626" height="19.533" x="266.975" y="854.182" opacity=".3"></rect>
    </g>
    <g>
      <path fill="#e9b376" d="M132.1177,844.4281s4.964,38.4683,9.5675,47.2383c1.9261,3.669,10.0284,11.5045,20.8329,11.2479,29.4792-.7,90.3439-18.4957,89.4839-21.2137l-6.889-23.6681-66.7737,7.594-5.8773-29.4251Z"></path>
      <path fill="#e9b376" d="M239.11,863.9978s1.3156-9.294,7.5723-13.8864,10.0308-9.9248,14.9182-13.0176,6.1,2.5508,4.0914,6.2818-7.7223,9.8082-4.6759,10.8628,30.2889-4.1037,34.3457-2.16-.0883,4.1561-.0883,4.1561,6.1169-1.1113,7.7936,1.4437-1.9571,4.4069-1.9571,4.4069,4.1336-.6022,4.2235,2.3605-24.07,9.8445-24.8465,10.7064c0,0,13.901-6.0576,16.5379-3.29s-4.92,6.5439-10.8824,9.6831-14.0955,4.5221-20.9763,4.4039c-8.5818-.1471-20.3964,1.6838-23.9048-5.4527S239.11,863.9978,239.11,863.9978Z"></path>
    </g>
    <g>
      <path fill="#e9b376" d="M192.3466,695.4924c1.3618,9.708.5948,18.8327.0262,28.62-.2242,6.5736-4.0045,16.4982-6.669,22.512l40.57,25.5631c-1.0018-24.3357.3433-39.5356,15.1592-45.6316C261.6554,717.9681,192.3466,695.4924,192.3466,695.4924Z"></path>
      <path d="M192.3466,695.4924a148.8732,148.8732,0,0,1,1.1927,29.3138c8.4019,12.51,19.1891,24.49,33.0509,29.1547-.3181-5.3008,0-21.4685,14.8159-27.5645C261.6554,717.9681,192.3466,695.4924,192.3466,695.4924Z" opacity=".2" style="isolation:isolate"></path>
      <path fill="#161a1c" d="M243.924,618.3119s20.8324,11.8209,17.2808,35.6483-42.4069-16.6977-42.4069-16.6977Z"></path>
      <path fill="#e9b376" d="M164.093,680.8355c14.63,28.4657,21.5215,45.932,44.6068,53.7508,34.7471,11.8739,69.7063-19.0036,64.9885-51.6569-4.0816-29.42-27.3524-70.952-64.644-68.7787S149.5156,652.4494,164.093,680.8355Z"></path>
      <path fill="#161a1c" d="M154.18,660.7188s-14.8954-17.6784,4.2407-33.2629c5.7591-4.6714,16.58-20.9533,23.0457-31.11,3.1755-4.9884,10.9752-3.96,12.4125,1.7763l.0311.1264q5.7114-4.74,10.9828-9.9648a17.5741,17.5741,0,0,1,24.0556-.3724c5.0787,4.5391,9.6727,9.8252,10.0189,14.3129l4.0315-3.5312a5.4132,5.4132,0,0,1,8.88,5.1177c-2.3,11.6383-7.4347,26.62-18.7958,30.2716-19.2156,6.1755-39.12,3.87-32.5473,30.0559s-7.1826,35.2243-7.1826,35.2243l-1.0337,26.08s-23.8539-2.2529-35.7808-28.5717S154.18,660.7188,154.18,660.7188Z"></path>
      <path fill="#e9b376" d="M196.9053,690.6421s-12.669-14.6038-19.7192-6.4935,3.6841,35.8073,16.6713,31.6726S205.6783,697.8778,196.9053,690.6421Z"></path>
      <path fill="none" stroke="#000" stroke-linecap="round" stroke-linejoin="round" stroke-width="1.325" d="M184.87,692.2462c-2.551,5.2436.845,12.1808,6.0316,15.4509" opacity=".3"></path>
    </g>
  </g>
</svg>
