<svg xmlns="http://www.w3.org/2000/svg" viewBox="0 0 24 24" id="upload">
  <g>
    <path fill="#2ecf83" d="M12,1a1,1,0,0,0-1,1V16a1,1,0,0,0,2,0V2A1,1,0,0,0,12,1Z"></path>
    <path fill="#c2f2d6" d="M4,23a3,3,0,0,1-3-3V17a1,1,0,0,1,2,0v3a1,1,0,0,0,1,1H20a1,1,0,0,0,1-1V17a1,1,0,0,1,2,0v3a3,3,0,0,1-3,3Z"></path>
    <path fill="#2ecf83" d="M20 22.75H4A2.752 2.752 0 011.25 20V17a.75.75 0 011.5 0v3A1.252 1.252 0 004 21.25H20A1.252 1.252 0 0021.25 20V17a.75.75 0 011.5 0v3A2.752 2.752 0 0120 22.75zM18 8a1.008 1.008 0 01-.641-.231L12 3.3 6.641 7.769A1.012 1.012 0 016 8a1 1 0 01-.641-1.769l6-5a1 1 0 011.282 0l6 5A1 1 0 0118 8z"></path>
    <path fill="#2ecf83" d="M18,7.75a.745.745,0,0,1-.48-.174L12,2.977l-5.52,4.6a.75.75,0,0,1-.96-1.152l6-5a.747.747,0,0,1,.96,0l6,5A.75.75,0,0,1,18,7.75Z"></path>
  </g>
</svg>
