<svg xmlns="http://www.w3.org/2000/svg" xml:space="preserve" id="Noticeboard" x="0" y="0" version="1.1" viewBox="0 0 66 66" enable-background="new 0 0 66 66">
  <g fill="#000000" class="color000000 svgShape">
    <g fill="#000000" class="color000000 svgShape">
      <linearGradient id="SVGID_1_" x1="43.857" x2="43.857" y1="2.305" y2="50.576" gradientUnits="userSpaceOnUse">
        <stop offset="0" stop-color="#283efd" class="stopColorfdc528 svgShape"></stop>
        <stop offset=".716" stop-color="#2f44f6" class="stopColorf6a62f svgShape"></stop>
        <stop offset="1" stop-color="#5b6bf5" class="stopColore86d3d svgShape"></stop>
      </linearGradient>
      <path d="M51.48,18.97c-0.2,0-0.39-0.06-0.56-0.18L35.67,7.63c-0.42-0.31-0.52-0.91-0.21-1.33
			c0.31-0.42,0.91-0.52,1.33-0.21l15.24,11.16c0.42,0.31,0.52,0.91,0.21,1.33C52.06,18.83,51.77,18.97,51.48,18.97z" fill="url(#SVGID_1_)"></path>
    </g>
    <g fill="#000000" class="color000000 svgShape">
      <linearGradient id="SVGID_00000100353093922463673100000004923017089252754344_" x1="22.21" x2="22.21" y1="2.305" y2="50.576" gradientUnits="userSpaceOnUse">
        <stop offset="0" stop-color="#283efd" class="stopColorfdc528 svgShape"></stop>
        <stop offset=".716" stop-color="#2f44f6" class="stopColorf6a62f svgShape"></stop>
        <stop offset="1" stop-color="#5b6bf5" class="stopColore86d3d svgShape"></stop>
      </linearGradient>
      <path d="M14.52,18.97
			c-0.29,0-0.58-0.14-0.77-0.39c-0.31-0.43-0.22-1.02,0.21-1.33L29.33,5.99c0.42-0.31,1.02-0.22,1.33,0.21
			c0.31,0.43,0.22,1.02-0.21,1.33L15.09,18.78C14.92,18.91,14.72,18.97,14.52,18.97z" fill="url(#SVGID_00000100353093922463673100000004923017089252754344_)"></path>
    </g>
    <g fill="#000000" class="color000000 svgShape">
      <linearGradient id="SVGID_00000127734859622011813440000009800189418982701213_" x1="33" x2="33" y1="2.305" y2="50.576" gradientUnits="userSpaceOnUse">
        <stop offset="0" stop-color="#283efd" class="stopColorfdc528 svgShape"></stop>
        <stop offset=".716" stop-color="#2f44f6" class="stopColorf6a62f svgShape"></stop>
        <stop offset="1" stop-color="#5b6bf5" class="stopColore86d3d svgShape"></stop>
      </linearGradient>
      <path d="M54.49,64.45H11.51
			c-3.68,0-6.68-3-6.68-6.68V23.73c0-3.68,3-6.68,6.68-6.68h42.98c3.68,0,6.68,3,6.68,6.68v34.03
			C61.17,61.45,58.17,64.45,54.49,64.45z M11.51,18.96c-2.63,0-4.77,2.14-4.77,4.77v34.03c0,2.63,2.14,4.77,4.77,4.77h42.98
			c2.63,0,4.77-2.14,4.77-4.77V23.73c0-2.63-2.14-4.77-4.77-4.77H11.51z" fill="url(#SVGID_00000127734859622011813440000009800189418982701213_)"></path>
    </g>
    <g fill="#000000" class="color000000 svgShape">
      <linearGradient id="SVGID_00000001640357561720889240000009136044579644941979_" x1="33" x2="33" y1="2.305" y2="50.576" gradientUnits="userSpaceOnUse">
        <stop offset="0" stop-color="#283efd" class="stopColorfdc528 svgShape"></stop>
        <stop offset=".716" stop-color="#2f44f6" class="stopColorf6a62f svgShape"></stop>
        <stop offset="1" stop-color="#5b6bf5" class="stopColore86d3d svgShape"></stop>
      </linearGradient>
      <path d="M33,9.42c-2.19,0-3.98-1.76-3.98-3.93
			S30.81,1.55,33,1.55s3.98,1.76,3.98,3.93S35.19,9.42,33,9.42z M33,3.46c-1.14,0-2.07,0.91-2.07,2.02S31.86,7.51,33,7.51
			s2.07-0.91,2.07-2.02S34.14,3.46,33,3.46z" fill="url(#SVGID_00000001640357561720889240000009136044579644941979_)"></path>
    </g>
    <g fill="#000000" class="color000000 svgShape">
      <linearGradient id="SVGID_00000041990197101946692470000018004433461041347465_" x1="32.999" x2="32.999" y1="2.305" y2="50.576" gradientUnits="userSpaceOnUse">
        <stop offset="0" stop-color="#283efd" class="stopColorfdc528 svgShape"></stop>
        <stop offset=".716" stop-color="#2f44f6" class="stopColorf6a62f svgShape"></stop>
        <stop offset="1" stop-color="#5b6bf5" class="stopColore86d3d svgShape"></stop>
      </linearGradient>
      <path d="M51.11,58.97H14.89
			c-2.5,0-4.53-2.03-4.53-4.53V27.05c0-2.5,2.03-4.53,4.53-4.53h36.22c2.5,0,4.53,2.03,4.53,4.53v27.39
			C55.63,56.94,53.6,58.97,51.11,58.97z M14.89,24.44c-1.44,0-2.62,1.17-2.62,2.62v27.39c0,1.44,1.17,2.62,2.62,2.62h36.22
			c1.44,0,2.62-1.17,2.62-2.62V27.05c0-1.44-1.17-2.62-2.62-2.62H14.89z" fill="url(#SVGID_00000041990197101946692470000018004433461041347465_)"></path>
    </g>
    <g fill="#000000" class="color000000 svgShape">
      <linearGradient id="SVGID_00000111155356542752119430000004203449898599822489_" x1="21.843" x2="21.843" y1="2.305" y2="50.576" gradientUnits="userSpaceOnUse">
        <stop offset="0" stop-color="#283efd" class="stopColorfdc528 svgShape"></stop>
        <stop offset=".716" stop-color="#2f44f6" class="stopColorf6a62f svgShape"></stop>
        <stop offset="1" stop-color="#5b6bf5" class="stopColore86d3d svgShape"></stop>
      </linearGradient>
      <path d="M19.85,40.28c-1.31,0-2.5-0.91-2.79-2.25
			l-1.3-5.88c-0.16-0.75-0.03-1.51,0.38-2.16c0.41-0.64,1.05-1.09,1.8-1.26l5.28-1.16c0.75-0.16,1.51-0.03,2.16,0.38
			c0.64,0.41,1.09,1.05,1.26,1.8l1.3,5.88c0.16,0.75,0.03,1.51-0.38,2.16c-0.41,0.64-1.05,1.09-1.8,1.25l-5.28,1.16c0,0,0,0,0,0
			C20.26,40.26,20.05,40.28,19.85,40.28z M20.26,39.28L20.26,39.28L20.26,39.28z M23.84,29.42c-0.07,0-0.14,0.01-0.21,0.02
			l-5.28,1.16c-0.25,0.05-0.46,0.2-0.6,0.42c-0.14,0.22-0.18,0.47-0.13,0.72l1.3,5.88c0.11,0.52,0.63,0.84,1.14,0.73l5.28-1.16
			c0.25-0.05,0.46-0.2,0.6-0.42c0.14-0.22,0.18-0.47,0.13-0.72l-1.3-5.88c-0.05-0.25-0.2-0.46-0.42-0.6
			C24.19,29.47,24.02,29.42,23.84,29.42z" fill="url(#SVGID_00000111155356542752119430000004203449898599822489_)"></path>
    </g>
    <g fill="#000000" class="color000000 svgShape">
      <linearGradient id="SVGID_00000072965971737144944460000017981487306750710682_" x1="20.805" x2="20.805" y1="2.305" y2="50.576" gradientUnits="userSpaceOnUse">
        <stop offset="0" stop-color="#283efd" class="stopColorfdc528 svgShape"></stop>
        <stop offset=".716" stop-color="#2f44f6" class="stopColorf6a62f svgShape"></stop>
        <stop offset="1" stop-color="#5b6bf5" class="stopColore86d3d svgShape"></stop>
      </linearGradient>
      <path d="M21.16,31.77c-0.44,0-0.83-0.3-0.93-0.75
			l-0.72-3.26c-0.11-0.51,0.21-1.02,0.73-1.14c0.51-0.11,1.02,0.21,1.14,0.73l0.72,3.26c0.11,0.51-0.21,1.02-0.73,1.14
			C21.3,31.77,21.23,31.77,21.16,31.77z" fill="url(#SVGID_00000072965971737144944460000017981487306750710682_)"></path>
    </g>
    <g fill="#000000" class="color000000 svgShape">
      <linearGradient id="SVGID_00000005975223952513850870000003752983794666631076_" x1="27.737" x2="27.737" y1="2.305" y2="50.576" gradientUnits="userSpaceOnUse">
        <stop offset="0" stop-color="#283efd" class="stopColorfdc528 svgShape"></stop>
        <stop offset=".716" stop-color="#2f44f6" class="stopColorf6a62f svgShape"></stop>
        <stop offset="1" stop-color="#5b6bf5" class="stopColore86d3d svgShape"></stop>
      </linearGradient>
      <path d="M29.74,54.88
			c-0.21,0-0.42-0.02-0.62-0.07l-5.28-1.16c-1.54-0.34-2.52-1.87-2.18-3.41l1.3-5.88c0.16-0.75,0.61-1.38,1.25-1.8
			c0.65-0.41,1.41-0.55,2.16-0.38l5.28,1.16c0.75,0.16,1.39,0.61,1.8,1.26c0.41,0.64,0.55,1.41,0.38,2.16l-1.3,5.88
			c-0.16,0.75-0.61,1.38-1.25,1.8C30.8,54.72,30.28,54.88,29.74,54.88z M25.74,44.01c-0.18,0-0.36,0.05-0.51,0.15
			c-0.22,0.14-0.36,0.35-0.42,0.6l-1.3,5.88c-0.11,0.51,0.21,1.02,0.73,1.14l5.28,1.16l0,0c0.25,0.05,0.5,0.01,0.72-0.13
			c0.21-0.14,0.36-0.35,0.42-0.6l1.3-5.88c0.05-0.25,0.01-0.5-0.13-0.72c-0.14-0.21-0.35-0.36-0.6-0.42l-5.28-1.16
			C25.88,44.02,25.81,44.01,25.74,44.01z" fill="url(#SVGID_00000005975223952513850870000003752983794666631076_)"></path>
    </g>
    <g fill="#000000" class="color000000 svgShape">
      <linearGradient id="SVGID_00000171694202996339246510000008743297783319341954_" x1="28.775" x2="28.775" y1="2.305" y2="50.576" gradientUnits="userSpaceOnUse">
        <stop offset="0" stop-color="#283efd" class="stopColorfdc528 svgShape"></stop>
        <stop offset=".716" stop-color="#2f44f6" class="stopColorf6a62f svgShape"></stop>
        <stop offset="1" stop-color="#5b6bf5" class="stopColore86d3d svgShape"></stop>
      </linearGradient>
      <path d="M28.42,46.37
			c-0.07,0-0.14-0.01-0.21-0.02c-0.52-0.11-0.84-0.62-0.73-1.14l0.72-3.26c0.11-0.51,0.62-0.84,1.14-0.73
			c0.52,0.11,0.84,0.62,0.73,1.14l-0.72,3.26C29.25,46.06,28.85,46.37,28.42,46.37z" fill="url(#SVGID_00000171694202996339246510000008743297783319341954_)"></path>
    </g>
    <g fill="#000000" class="color000000 svgShape">
      <linearGradient id="SVGID_00000121253240986117403660000014639922360106772407_" x1="41.554" x2="41.554" y1="2.305" y2="50.576" gradientUnits="userSpaceOnUse">
        <stop offset="0" stop-color="#283efd" class="stopColorfdc528 svgShape"></stop>
        <stop offset=".716" stop-color="#2f44f6" class="stopColorf6a62f svgShape"></stop>
        <stop offset="1" stop-color="#5b6bf5" class="stopColore86d3d svgShape"></stop>
      </linearGradient>
      <path d="M48.42,35.61H34.68
			c-1.05,0-1.91-0.86-1.91-1.91v-3.56c0-1.05,0.86-1.91,1.91-1.91h13.74c1.05,0,1.91,0.86,1.91,1.91v3.56
			C50.33,34.75,49.48,35.61,48.42,35.61z M48.42,33.7v0.95V33.7L48.42,33.7z M34.68,30.14v3.56h13.74l0-3.56H34.68z" fill="url(#SVGID_00000121253240986117403660000014639922360106772407_)"></path>
    </g>
    <g fill="#000000" class="color000000 svgShape">
      <linearGradient id="SVGID_00000116202102779933304390000000283131130769706655_" x1="41.554" x2="41.554" y1="2.305" y2="50.576" gradientUnits="userSpaceOnUse">
        <stop offset="0" stop-color="#283efd" class="stopColorfdc528 svgShape"></stop>
        <stop offset=".716" stop-color="#2f44f6" class="stopColorf6a62f svgShape"></stop>
        <stop offset="1" stop-color="#5b6bf5" class="stopColore86d3d svgShape"></stop>
      </linearGradient>
      <path d="M49.38,40.85H33.73
			c-0.53,0-0.95-0.43-0.95-0.95c0-0.53,0.43-0.95,0.95-0.95h15.65c0.53,0,0.95,0.43,0.95,0.95C50.33,40.42,49.91,40.85,49.38,40.85z
			" fill="url(#SVGID_00000116202102779933304390000000283131130769706655_)"></path>
    </g>
    <g fill="#000000" class="color000000 svgShape">
      <linearGradient id="SVGID_00000163043281946680145020000001959954067872727703_" x1="43.605" x2="43.605" y1="2.305" y2="50.576" gradientUnits="userSpaceOnUse">
        <stop offset="0" stop-color="#283efd" class="stopColorfdc528 svgShape"></stop>
        <stop offset=".716" stop-color="#2f44f6" class="stopColorf6a62f svgShape"></stop>
        <stop offset="1" stop-color="#5b6bf5" class="stopColore86d3d svgShape"></stop>
      </linearGradient>
      <path d="M49.38,45.71H37.83
			c-0.53,0-0.95-0.43-0.95-0.95c0-0.53,0.43-0.95,0.95-0.95h11.55c0.53,0,0.95,0.43,0.95,0.95C50.33,45.28,49.91,45.71,49.38,45.71z
			" fill="url(#SVGID_00000163043281946680145020000001959954067872727703_)"></path>
    </g>
    <g fill="#000000" class="color000000 svgShape">
      <linearGradient id="SVGID_00000134961229292386852160000001238345403738109588_" x1="45.808" x2="45.808" y1="2.305" y2="50.576" gradientUnits="userSpaceOnUse">
        <stop offset="0" stop-color="#283efd" class="stopColorfdc528 svgShape"></stop>
        <stop offset=".716" stop-color="#2f44f6" class="stopColorf6a62f svgShape"></stop>
        <stop offset="1" stop-color="#5b6bf5" class="stopColore86d3d svgShape"></stop>
      </linearGradient>
      <path d="M49.38,50.57h-7.14
			c-0.53,0-0.95-0.43-0.95-0.95s0.43-0.95,0.95-0.95h7.14c0.53,0,0.95,0.43,0.95,0.95S49.91,50.57,49.38,50.57z" fill="url(#SVGID_00000134961229292386852160000001238345403738109588_)"></path>
    </g>
  </g>
</svg>
