<svg xmlns="http://www.w3.org/2000/svg" enable-background="new 0 0 32 32" viewBox="0 0 32 32" id="video-icon">
  <path d="M20,18c0,0.3510742-0.184082,0.6767578-0.4853516,0.8574219l-5,3C14.3564453,21.9526367,14.1782227,22,14,22
	c-0.1699219,0-0.3398438-0.0429688-0.4926758-0.1298828C13.1938477,21.6928711,13,21.3603516,13,21v-6
	c0-0.3603516,0.1938477-0.6928711,0.5073242-0.8701172c0.3129883-0.1777344,0.6982422-0.1728516,1.0073242,0.0126953l5,3
	C19.815918,17.3232422,20,17.6489258,20,18z M29,15v6c0,4.9624023-4.0375977,9-9,9h-8c-4.9624023,0-9-4.0375977-9-9v-6
	c0-4.7104492,3.7011719-8,9-8h1.9196167l-2.7003784-3.3754883c-0.3452148-0.4311523-0.2753906-1.0605469,0.15625-1.4052734
	c0.4306641-0.3442383,1.0600586-0.2749023,1.4052734,0.15625L16,6.3995361l3.2192383-4.0240479
	c0.3447266-0.4326172,0.9746094-0.5,1.4052734-0.15625c0.4316406,0.3447266,0.5014648,0.9741211,0.15625,1.4052734L18.0803833,7H20
	C25.2988281,7,29,10.2895508,29,15z M27,15c0-4.1445313-3.515625-6-7-6h-8c-3.484375,0-7,1.8554688-7,6v6
	c0,3.8598633,3.1401367,7,7,7h8c3.8598633,0,7-3.1401367,7-7V15z"></path>
</svg>
