<svg xmlns="http://www.w3.org/2000/svg" xml:space="preserve" id="customer-feedback-giving-rating-based-on-experience" x="0" y="0" enable-background="new 0 0 2950 2950" version="1.1" viewBox="0 0 2950 2950">
  <g>
    <ellipse cx="1466.9" cy="2230.9" fill="#f1f2f0" rx="1421" ry="93"></ellipse>
    <g>
      <g>
        <g>
          <path fill="#f4c998" d="M2625,812.8l-4.6,19.9l8.1,3.4c0,0,23.8,20.1,33.8-4.3c3.9-9.5-6.2-18.8-15.3-14.1
					c-0.1,0.1-0.3,0.1-0.4,0.2c-0.3,0.2-0.6-0.2-0.4-0.5l5.8-6.3c1-1.1,0.9-2.7-0.1-3.7l0,0c-1-0.9-2.4-1-3.5-0.2l-7.2,5.4
					c-1.6,1.2-3.6,1.8-5.6,1.5L2625,812.8z"></path>
        </g>
        <g>
          <g>
            <polygon fill="#f4c998" points="2467.1 1129.6 2471 1167.7 2437.7 1171.9 2433.7 1133.8"></polygon>
            <path fill="#353434" d="M2436.7,1192.7l88.3-11.1c1.3-0.2,2-1.3,2.3-2.9c1-5.9-3.8-11.1-9.7-11.2c-11-0.2-27.9-5.4-44.6-14.5
						c-0.4-0.2-0.9-0.3-1.3-0.2l-36.3,4.5c-1.1,0.1-2,1.1-2,2.3l0.2,30.3C2433.6,1191.7,2435,1192.9,2436.7,1192.7z"></path>
          </g>
          <g>
            <rect width="37.9" height="33.9" x="2070.8" y="804.3" fill="#f4c998" transform="rotate(42.979 2089.737 821.113)"></rect>
            <path fill="#353434" d="M2074.7,779.7l-61.2,65.7c-0.9,1-0.7,2.3,0.1,3.6c3,5.1,10.1,5.8,14.8,2c8.6-7,25.1-14.1,43.9-18.2
						c0.4-0.1,0.9-0.3,1.2-0.7l25.1-27c0.8-0.8,0.8-2.1,0.1-3l-19.8-22.5C2077.8,778.4,2075.9,778.4,2074.7,779.7z"></path>
          </g>
          <path fill="#353434" d="M2404.8,861.8l50,127.1c2.7,6.9,4.4,14.2,5.1,21.7l12,135.8l-39.6,2.7l-25.1-119.4
					c-1.6-7.8-4.5-15.3-8.4-22.2l-56.6-100.3l-133.3,25.4c-14.9,3.7-30.4-0.8-40.8-11.8l-86.4-81.9l26.6-29.1l81.8,62
					c5.6,4.9,13.7,5.8,20.4,2.4l75.6-31.8c0,0,28.3-21.8,55.2-38.4L2404.8,861.8z"></path>
        </g>
        <g>
          <g>
            <path fill="#6e2a19" d="M2219.2,706.3c-4.4-25.4,11.1-49.3,34.6-53.4c23.5-4.1,46.5,13.2,50.9,38.5c4.4,25.4-11.5,49.4-35,53.4
						C2246.3,749,2223.6,731.7,2219.2,706.3z M2296,693c-3.6-21-21.8-35.5-40.9-32.2c-19.1,3.3-31.7,23.1-28.1,44.1
						c3.6,21,22.2,35.4,41.3,32.1C2287.5,733.7,2299.7,714,2296,693z"></path>
          </g>
          <rect width="14.3" height="15.4" x="2254.2" y="651" fill="#fad503" transform="rotate(80.166 2261.366 658.669)"></rect>
          <rect width="14.3" height="15.4" x="2267.9" y="728.8" fill="#fad503" transform="rotate(80.166 2274.99 736.461)"></rect>
          <path fill="#7d3820" d="M2183.8,780.9L2160.8,648c-0.2-0.9,0.5-1.8,1.4-2l86.8-15c0.9-0.2,1.8,0.5,2,1.4l23.1,132.9
					c0.2,0.9-0.5,1.8-1.4,2l-86.8,15C2184.9,782.5,2184,781.9,2183.8,780.9z"></path>
          <path fill="#6e2a19" d="M2242.8,771.8c-18.4-43.2-26.3-88.3-23.4-135.2c0.1-2.2,1.8-4.1,4-4.4l31.7-5.5l24.7,142.4l-31.7,5.5
					C2245.9,775.1,2243.7,773.9,2242.8,771.8z"></path>
          <path fill="#b45c27" d="M2246.1,771.3c-18.4-43.2-26.3-88.3-23.4-135.2c0.1-2.2,1.8-4.1,4-4.4l31.7-5.5l24.7,142.4l-31.7,5.5
					C2249.2,774.5,2247,773.3,2246.1,771.3z"></path>
          <g>
            <path fill="#fabd14" d="M2213.8,717.2l-3.4-19.3c-0.1-0.5,0.2-0.9,0.7-1l25.2-4.4c0.5-0.1,0.9,0.2,1,0.7l3.4,19.3
						c0.1,0.5-0.2,0.9-0.7,1l-25.1,4.4C2214.3,718,2213.9,717.7,2213.8,717.2z"></path>
            <rect width="21.9" height="16.1" x="2214.6" y="697.2" fill="#fad503" transform="rotate(170.164 2225.555 705.192)"></rect>
          </g>
        </g>
        <g>
          <path fill="#f4c998" d="M2323.5,710.3l-1.4-20.4l-8.7-0.9c0,0-28.5-12.4-31.1,13.9c-1,10.2,11.3,16.2,18.7,9
					c0.1-0.1,0.2-0.2,0.3-0.3c0.3-0.3,0.7,0,0.5,0.4l-3.7,7.7c-0.6,1.3-0.1,2.9,1.2,3.6l0,0c1.2,0.6,2.6,0.3,3.4-0.8l5.3-7.3
					c1.2-1.6,3-2.7,4.9-3.1L2323.5,710.3z"></path>
        </g>
        <path fill="#5facf2" d="M2625.3 836.2c0 0-45.2-8.8-69.4-14.1-9.3-2-17.6-7.2-23.5-14.6l-28.7-35.7c0 0 3.9-42.3 27.5-42.8 0 0 0 0 .1.1 1 1.4 1.9 3 3 4.8 7.6 13.3 17.4 37 22.2 48.8 2 5.1 6.2 9 11.3 10.7 19.1 6.5 63.8 19 63.8 19L2625.3 836.2zM2489.9 688.4c-19 18.8-59 29.8-61.7 30.6-.1 0-.1 0-.1 0l-35.4-13.8-76.3 8.2-1.8-25.9 68.5-14.2c6.9-1.4 14-1.8 21.1-1.2 14.9 1.4 42.3 4.1 60.6 6.9 6.9 1 13.1 3.2 19 6.1C2485.9 686.1 2487.9 687.3 2489.9 688.4z"></path>
        <path fill="#5facf2" d="M2411.7,876.4c0,0,60.5-61.6,96.7-100.5l18.3-19.6c9.4-10.1,8.8-25.8-1.3-35.2
				c-5.1-4.8-18.4-17.1-31.2-28.9c-16.2-15-41.5-14-56.5,2.2c-36.4,39.6-97.5,105.7-105.6,113.3
				C2316,822.8,2411.7,876.4,2411.7,876.4z"></path>
        <g>
          <path fill="#f4c998" d="M2513.2,711.7c1.8-1.7,3.1-2.9,3.1-2.9s10.3,6.7,11.5,7.1c2.5,0.7,10.3-2.7,16.7-9.4
					c6.3-6.8,12-14.3,14.3-17.4c2.3-3.1,11.6-15.8,4.4-29.6c-7.2-13.8-26.5-20.7-39.7-13c-13.2,7.7-18.8,17.5-19.6,22.7
					c-0.8,5.1-4.1,12.4-5.8,14.9c-0.7,1-3.2,3.8-6.1,6.8c-5.4,5.7-5.4,14.6-0.1,20.3l0,0C2497.5,717.2,2507.2,717.5,2513.2,711.7z"></path>
          <path fill="#353434" d="M2518.2,664.4c-0.2,2-1.6,5.8-1.6,5.8c3.5-0.5,17.3-12,18.7-16.9c-1.3,3.1,21.3,15.9,27.5,18.8
					c1.3,0.6,2.3,2.2,2,3.8c-0.3,1.8-3.5,9-4.4,10.8c2.1-2,3.8-4.2,5.7-6.3c1.8-2,14.9-4.3,15.4-10.7c0.7-9.2-26-26.7-29.4-28.5
					c-3.8-2-17.1-6.6-21.7-2.7c-5.2-1.2-9.7-1.1-15.1,6.3c-2.6,3.5-5.1,7.2-7.6,10.8c-2.5,3.6-3.7,7.4-5.2,11.4
					c-1.3,3.5-2.3,7.1-3.5,10.6c-0.2,0.6-2,5.7-0.9,6.1c0.2,0.1,4.1-2.5,5.1-3.1c1.6-1.1,2.7-2.5,3.9-3.9c0.4-0.5,1.1-1,1.2-1.7
					c0.3-1.1-0.8-1.8-1.3-2.5c-1.8-2.5-1-5.7,0.4-8.1c1.6-2.6,4.2-5.6,7.6-4.5c1.8,0.6,3.2,2.3,3.2,4.2
					C2518.2,664.2,2518.2,664.3,2518.2,664.4z"></path>
        </g>
      </g>
    </g>
    <g>
      <g>
        <circle cx="2624.2" cy="1905.1" r="316.4" fill="#70b744"></circle>
        <path fill="#97ca4a" d="M2624.2,2230.9c179.6,0,325.8-146.1,325.8-325.8s-146.1-325.8-325.8-325.8
				c-179.6,0-325.8,146.1-325.8,325.8S2444.6,2230.9,2624.2,2230.9z M2624.2,1598.1c169.3,0,307,137.7,307,307s-137.7,307-307,307
				c-169.3,0-307-137.7-307-307S2454.9,1598.1,2624.2,1598.1z"></path>
      </g>
      <g>
        <g>
          <path fill="#353434" d="M2623.2,2041.5c70.5,0,130.7-35.1,153.5-89.5c3.2-7.6-0.4-16.2-7.9-19.4c-7.6-3.1-16.2,0.4-19.4,7.9
					c-18.2,43.4-67.6,71.3-126.2,71.3c-0.2,0-0.4,0-0.6,0c-45.6-0.1-102-18.9-123.5-71.2c-3.2-7.6-11.8-11.1-19.4-8.1
					c-7.6,3.1-11.2,11.8-8.1,19.3c22.6,55,80.4,89.4,150.8,89.6C2622.7,2041.5,2623,2041.5,2623.2,2041.5z"></path>
        </g>
        <g>
          <g>
            <circle cx="2762" cy="1831.4" r="23.4" fill="#353434"></circle>
          </g>
          <g>
            <circle cx="2486.5" cy="1831.4" r="23.4" fill="#353434"></circle>
          </g>
        </g>
      </g>
      <path fill="#f1f2f0" d="M2830,1654.9l-11,20.1c-1.8,3.3-4.5,5.9-7.7,7.7l-20.1,11l20.1,11c3.3,1.8,5.9,4.5,7.7,7.7l11,20.1l11-20.1
			c1.8-3.3,4.5-5.9,7.7-7.7l20.1-11l-20.1-11c-3.3-1.8-5.9-4.5-7.7-7.7L2830,1654.9z"></path>
    </g>
    <g>
      <g>
        <circle cx="325.8" cy="1905.1" r="316.4" fill="#e63a48"></circle>
        <path fill="#e02342" d="M325.8,2230.9c179.6,0,325.8-146.1,325.8-325.8s-146.1-325.8-325.8-325.8S0,1725.5,0,1905.1
				S146.1,2230.9,325.8,2230.9z M325.8,1598.1c169.3,0,307,137.7,307,307s-137.7,307-307,307s-307-137.7-307-307
				S156.5,1598.1,325.8,1598.1z"></path>
      </g>
      <g>
        <g>
          <path fill="#353434" d="M332.6,1932.4c70.5,0,130.7,35.1,153.5,89.5c3.2,7.6-0.4,16.2-7.9,19.4c-7.6,3.1-16.2-0.4-19.4-7.9
					c-18.2-43.4-67.6-71.3-126.2-71.3c-0.2,0-0.4,0-0.6,0c-45.6,0.1-102,18.9-123.5,71.2c-3.2,7.6-11.8,11.1-19.4,8.1
					c-7.6-3.1-11.2-11.8-8.1-19.3c22.6-55,80.4-89.4,150.8-89.6C332.1,1932.4,332.4,1932.4,332.6,1932.4z"></path>
        </g>
        <g>
          <g>
            <circle cx="471.3" cy="1832.4" r="23.4" fill="#353434"></circle>
          </g>
          <g>
            <circle cx="195.9" cy="1832.4" r="23.4" fill="#353434"></circle>
          </g>
        </g>
      </g>
      <path fill="#f1f2f0" d="M539.4,1655.9l-11,20.1c-1.8,3.3-4.5,5.9-7.7,7.7l-20.1,11l20.1,11c3.3,1.8,5.9,4.5,7.7,7.7l11,20.1l11-20.1
			c1.8-3.3,4.5-5.9,7.7-7.7l20.1-11l-20.1-11c-3.3-1.8-5.9-4.5-7.7-7.7L539.4,1655.9z"></path>
    </g>
    <g>
      <path fill="#fdbe10" d="M1158.6,1904.8c0,175,141.5,316.5,316.5,316.5c174.2,0,316.5-141.5,316.5-316.5
			c0-174.2-142.3-315.7-316.5-315.7C1300.1,1589,1158.6,1730.5,1158.6,1904.8z"></path>
      <path fill="#e9a422" d="M1475,2230.9c179.6,0,325.8-146.1,325.8-325.8s-146.1-325.8-325.8-325.8s-325.8,146.1-325.8,325.8
			S1295.4,2230.9,1475,2230.9z M1475,1598.1c169.3,0,307,137.7,307,307s-137.7,307-307,307s-307-137.7-307-307
			S1305.7,1598.1,1475,1598.1z"></path>
      <g>
        <path fill="#f1f2f0" d="M1680.8,1654.9l-11,20.1c-1.8,3.3-4.5,5.9-7.7,7.7l-20.1,11l20.1,11c3.3,1.8,5.9,4.5,7.7,7.7l11,20.1
				l11-20.1c1.8-3.3,4.5-5.9,7.7-7.7l20.1-11l-20.1-11c-3.3-1.8-5.9-4.5-7.7-7.7L1680.8,1654.9z"></path>
        <g>
          <g>
            <g>
              <g>
                <circle cx="1612.7" cy="1831.4" r="23.4" fill="#353434"></circle>
              </g>
              <g>
                <circle cx="1337.3" cy="1831.4" r="23.4" fill="#353434"></circle>
              </g>
            </g>
          </g>
        </g>
      </g>
      <rect width="231.2" height="30.8" x="1359.5" y="1993.3" fill="#353434" transform="rotate(-180 1475.15 2008.74)"></rect>
    </g>
    <path fill="#c4c4c4" d="M325.8,1467.3c136.4-322.1,577.3-369.8,861.9-228.2c98.6,48.5,186.3,125.9,233.5,226.9l-5.8,0.7
		c76.4-293.2,263.2-633.6,597.6-662.7c-331.9,33.4-516.7,371.6-591.6,664c0,0-2.1,8.5-2.1,8.5l-3.7-7.9
		C1222.1,1081.1,505.7,1054.2,325.8,1467.3L325.8,1467.3z"></path>
  </g>
</svg>
