<svg xmlns="http://www.w3.org/2000/svg" enable-background="new 0 0 3000 3000" viewBox="0 0 3000 3000" id="school"><path fill="#0e4275" d="M2827.51,1441.93l138.28-19.28l9.21,66.05l-225.32,31.41l-60.06-430.9l87.04-12.13L2827.51,1441.93z"></path><path fill="#f7c19b" d="M2756.72 1527.68l-9.72 1.06-1.15-4.05c0 0-8.22-12.41 3.92-15.84 4.73-1.34 8.61 3.98 5.83 8.04-.04.06-.08.11-.12.17-.1.14.07.31.21.21l3.31-2.39c.56-.41 1.35-.29 1.77.25l0 0c.39.5.35 1.22-.09 1.68l-2.98 3.1c-.67.69-1.04 1.62-1.03 2.58L2756.72 1527.68zM2742.85 1662.17l1.78 9.62-3.95 1.45c0 0-11.76 9.13-16.09-2.72-1.69-4.62 3.32-8.88 7.58-6.42.06.03.12.07.18.11.15.09.3-.09.19-.22l-2.64-3.12c-.45-.53-.4-1.32.12-1.79l0 0c.47-.43 1.19-.44 1.68-.04l3.32 2.74c.74.61 1.69.91 2.65.83L2742.85 1662.17z"></path><path fill="#37424c" d="M2782.61,1570.84c0,0-15.42,3.89-8.72,21.15l28.71,20.07l21.18,15.99l12.2,2.16
							c0,0,25.44-0.26,14.34-20.82c0,0,4.1-14.88-11.12-20.53c0,0-1.87-7.96-12.86-9"></path><path fill="#f7c19b" d="M2797.58,1577.03c-0.64,2.02-1.27,7.6-2.7,9.52c-0.75,1-0.6,2.4,0.33,3.23c2.51,2.25,4.38,4.92,11.8,4.68
							c1.28-0.04,2.32-1.04,2.37-2.32c0.18-4.43,3.79-16.53,6.13-19.63c0,0,19.75-31.35-11.46-30.41c-0.55,0.02-1.43,0.18-1.96,0.35
							l-2.86,0.93c-2.44,0.79-4.4,2.61-5.36,4.99c-2.88,7.13-7.61,22.1,1.85,25.13C2797.22,1573.98,2798.05,1575.54,2797.58,1577.03
							z"></path><path fill="#37424c" d="M2797.72,1576.58l0.32-1.22c0.18-0.67-0.29-1.28-0.96-1.44c-2.1-0.51-6.68-2.15-6.8-9.81
							c-0.15-9.2,6.02-17.33,14.67-20.45l0.5-0.18c0.33-0.12,0.74,0.04,0.84,0.38c0.48,1.68-2.91,5.94-1.11,9.9
							c2.12,4.68,2.95,9.84,1.39,14.74l-0.24,0.75c-0.69,2.15-0.87,4.39-0.48,6.58c0.79,4.44-1.96,17.65,6.22,18.58
							c2.58,0.29,14.26-8.12,14.01-10.7l0,0c-0.16-1.66,0.02-3.33,0.52-4.92l6.05-19.01c0.42-1.33,0.7-2.7,0.78-4.1
							c0.41-7.18-0.82-27.82-28.63-25.93c0,0-9.58,1.18-12.76,11.17l-4.82,15.13c-0.19,0.59-0.32,1.19-0.39,1.8
							c-0.26,2.15-1.2,8.04-4.01,12.37c-0.12,0.19-0.2,0.41-0.2,0.64l0,0"></path><path fill="#f7c19b" d="M2761.17 1802.18l-8.88 119.62h16.59c-3.04-22.68 10.47-68.6 22.38-112.29L2761.17 1802.18zM2797.44 1809.13l24.25 112.36 13.57-7.4-1.27-5.89c-3.52-16.36-5.49-33.02-5.89-49.75l-1.33-56.27L2797.44 1809.13z"></path><path fill="#fa5669" d="M2827.8,1641.53l-6.95,5.92c-1.29,24.95,8.49,38.59,8.49,38.59l-21.09,15.18l-40.52-16.72
									c6.92-15.54,10.46-32.99,11.77-51.71c-11-14.66-1.86-27.01-1.86-27.01l-25.32-21.35c-3.1-2.62-4.97-6.42-5.14-10.48
									l-1.95-46.63l13.12-3.34l2.71,40.47c0.23,3.44,2.32,6.48,5.44,7.93l28.79,13.41c2.45,14.79,15.28,4.3,15.28,4.3l0,0
									c12.45,1.99,22.02,12.69,21.74,25.3C2832.15,1622.07,2830.9,1630.62,2827.8,1641.53z"></path><path fill="#48495b" d="M2767.73,1684.49c-14.11,40.47-19.25,86.69-17.88,137.11l9.25-3.05c10.74-3.54,22.29-3.85,33.2-0.88
									l0.39,0.11c11.6,3.16,23.91,2.52,35.13-1.81l0,0c8-3.09,16.39-5.01,24.93-5.73l21.08-1.76
									c-11.7-18.28-21.59-37.68-27.22-59.66c-2-7.81-3.01-15.79-3.7-23.82c-0.8-9.33-3.64-26.36-13.58-38.96L2767.73,1684.49z"></path><polygon fill="#fa5669" points="2782.26 1646.42 2739.56 1661.08 2742.13 1674.97 2785.35 1660.7"></polygon><g><path fill="#37424c" d="M2820.16,1913.37h14.95l3.71,17.22c0.06,0.27,0.09,0.54,0.09,0.81v1.47c0,1.98-1.6,3.58-3.58,3.58H2797
					c-1.01,0-1.95-0.55-2.43-1.44l0,0c-0.67-1.22-0.33-2.76,0.79-3.58c10.07-4.39,18.6-10.07,24.46-17.94
					C2819.91,1913.41,2820.03,1913.37,2820.16,1913.37z"></path></g><g><path fill="#37424c" d="M2752.92,1913.37h15.58l3.71,17.22c0.06,0.27,0.09,0.54,0.09,0.81v1.47c0,1.98-1.6,3.58-3.58,3.58h-38.34
					c-1.01,0-1.95-0.55-2.43-1.44l0,0c-0.67-1.22-0.33-2.76,0.79-3.58C2738.87,1927.02,2747.06,1921.31,2752.92,1913.37z"></path></g><g><path fill="#0e4275" d="M1447.9,1063.11l58.12,431.16l-87.1,11.74l-24.9-184.69l-185.31,24.98l24.9,184.69l-87.1,11.74l-58.12-431.16
			l87.1-11.74l24.23,179.76l185.31-24.98l-24.23-179.76L1447.9,1063.11z"></path><path fill="#f7c19b" d="M1140.49,1548.76l8.78,4.31l2.46-3.41c0,0,11.96-8.87,1.71-16.23c-3.99-2.87-9.45,0.81-8.23,5.57
					c0.02,0.07,0.03,0.13,0.05,0.2c0.04,0.16-0.17,0.27-0.27,0.13l-2.29-3.38c-0.39-0.57-1.17-0.74-1.75-0.36l0,0
					c-0.54,0.34-0.75,1.03-0.49,1.61l1.74,3.93c0.39,0.88,0.42,1.88,0.09,2.78L1140.49,1548.76z"></path><polygon fill="#f7c19b" points="1037.16 1899.32 1034.67 1921.54 1019 1919.9 1021.11 1898.53"></polygon><path fill="#37424c" d="M1014.53,1934.24c0.05,1.24,1.07,2.21,2.31,2.21l35.87-0.01c2.78,0,5.04-2.26,5.04-5.04l0,0
						c0-0.49-0.5-1.54-0.89-1.85l-19.67-15.23c-0.69-0.55-1.57-0.31-2.28,0.22c-4.39,3.27-10.53,3.33-16.75,3.01
						c-0.62-0.03-1.19,0.31-1.47,0.86C1013.82,1924.13,1014.32,1929.43,1014.53,1934.24z"></path><polygon fill="#f7c19b" points="1099.82 1897.05 1100.3 1921.86 1084.61 1922.07 1083.88 1898.25"></polygon><path fill="#37424c" d="M1079.79,1934.24c0.05,1.24,1.07,2.21,2.31,2.21l35.87-0.01c2.78,0,5.04-2.26,5.04-5.04l0,0
						c0-0.49-0.5-1.54-0.88-1.85l-19.67-15.23c-0.69-0.55-1.57-0.31-2.28,0.22c-4.42,3.3-10.63,3.33-16.9,3
						c-0.52-0.03-1.01,0.26-1.24,0.72C1079.08,1924.04,1079.58,1929.39,1079.79,1934.24z"></path><path fill="#f7c19b" d="M1148.24 1646.4l2.6 9.43 4.18-.43c0 0 14.57 3.06 13.28-9.49-.5-4.89-6.87-6.53-9.63-2.46-.04.06-.08.12-.12.17-.09.14-.31.05-.27-.12l1.01-3.96c.17-.67-.22-1.36-.89-1.55l0 0c-.61-.18-1.26.12-1.53.7l-1.79 3.91c-.4.88-1.12 1.56-2.02 1.91L1148.24 1646.4zM1081.61 1574.21c-.49.08-.72.64-.42 1.04l5.33 7.17c.28.37.51.65.4 1.01-.33.95-.76 1.76-1.29 2.46-2.28 3.03-6.18 3.86-9.75 3.86-3.66.02-6.95-.85-7.73-1.15-.14-.05-.24-.16-.29-.29l-4.19-12.8c-.07-.2-.23-.35-.44-.41-9.69-3.07-12.55-14.9-12.55-14.9-4.76-26.3 15.08-27.96 25.05-27.22 3.33.25 6.31 2.17 7.94 5.08C1100.93 1568.99 1085.95 1573.56 1081.61 1574.21z"></path><path fill="#29354e" d="M1062.67,1557.26l3.61,7.32c0.42,0.85,1.57,1,2.19,0.28l0,0c0.32-0.36,0.41-0.87,0.25-1.32l-2.06-5.69
						c-0.45-1.26-0.19-2.65,0.67-3.67c1.63-1.95,3.81-5.6,1.78-9.61c-0.44-0.86-0.05-1.92,0.85-2.28c3.12-1.25,9.22-4.08,10.85-7.66
						c0.3-0.66,0.66-1.29,1.07-1.89c1.16-1.67,2.95-5.21,0.08-8.37c-0.48-0.52-1.24-0.67-1.87-0.36l-5.34,2.64
						c-0.37,0.18-0.82,0.06-1.04-0.29l-2.77-4.33c-0.3-0.47-0.97-0.5-1.32-0.07l-4.61,5.71c-1,1.24-2.61,1.81-4.18,1.48
						c-3.24-0.68-9.33-0.84-15.33,5.05c-5.34,5.24-6.09,13.44-5.85,19.05c0.15,3.68,1.94,7.1,4.86,9.35l6.83,5.27
						c0.25,0.2,0.49,0.41,0.71,0.64c1.67,1.74,8.25,10.08,11.37,6.82c0.09-0.09,0.1-0.23,0.05-0.34l-1-5.15
						c-0.53-1.08-1.36-1.98-2.4-2.59c-2.79-1.64-8.11-5.46-4.55-9.21c1.18-1.25,2.86-1.96,4.58-1.95
						C1061.13,1556.11,1062.22,1556.36,1062.67,1557.26z"></path><polygon fill="#48495b" points="1100.94 1696.07 1103.05 1904.27 1079.73 1904.27 1068.92 1747.36 1038.26 1904.27 1017.64 1904.27 1027.56 1705.03 1068.92 1685.51"></polygon><path fill="#2b91cc" d="M1027.8,1682.64l5.44-25.8c0,0-11.09-53.56,31.28-76.25c0.2-0.11,0.5-0.2,0.71-0.29
						c0.04,0.04,0.07,0.07,0.11,0.11c2.03,2.06,3.88,3.47,5.93,4.14c3.14,1.13,6.39,0.58,10.02-1.93c1.1-0.69,2.23-1.62,3.4-2.69
						l31.35,3.85l22.82-36.93l14.46,4.33l-18.84,45.11c-2.45,5.85-8.34,9.52-14.68,9.11l-12.17-0.76l-4.29,25.87
						c8.44,9.59,14.79,17.43,14.79,17.43l31.87-3.48l2.64,13.34l-32.32,6.82c-7.75,0.87-15.46-1.91-20.87-7.53l-0.45-0.46l-0.8,4.85
						l2.75,34.6l0,0c-14.84,5.95-30.27,10.31-46.03,13l-28.1,4.79c-1.86,0.32-3.54-1.22-3.35-3.1
						C1024.4,1701.31,1025.84,1691.93,1027.8,1682.64z"></path></g><g><path fill="#0e4275" d="M1904.15,1133.17c33.86,19.11,60.66,45.61,80.4,79.47c19.73,33.87,29.61,71.99,29.61,114.37
			c0,42.8-9.88,81.13-29.61,115c-19.74,33.87-46.65,60.36-80.72,79.47c-34.08,19.12-71.47,28.67-112.19,28.67
			c-40.73,0-78.13-9.55-112.2-28.67c-34.08-19.11-60.98-45.6-80.72-79.47c-19.74-33.86-29.61-72.2-29.61-115
			c0-42.39,9.87-80.51,29.61-114.37c19.73-33.86,46.64-60.36,80.72-79.47c34.07-19.11,71.46-28.68,112.2-28.68
			C1832.78,1104.5,1870.28,1114.06,1904.15,1133.17z M1722.15,1202.35c-20.16,11.64-35.84,28.26-47.06,49.87
			c-11.22,21.61-16.83,46.54-16.83,74.8s5.61,53.19,16.83,74.79c11.22,21.61,26.9,38.34,47.06,50.18
			c20.15,11.84,43.32,17.76,69.5,17.76s49.24-5.92,69.18-17.76c19.95-11.84,35.53-28.46,46.75-49.86s16.83-46.44,16.83-75.11
			s-5.61-53.7-16.83-75.11c-11.22-21.4-26.8-37.91-46.75-49.55c-19.94-11.62-43-17.45-69.18-17.45
			C1765.46,1184.9,1742.3,1190.73,1722.15,1202.35z"></path><path fill="#f7c19b" d="M1917.76 1527.68l-9.72 1.06-1.15-4.05c0 0-8.22-12.41 3.92-15.84 4.73-1.34 8.61 3.98 5.83 8.04-.04.06-.08.11-.12.17-.1.14.07.31.21.21l3.31-2.39c.56-.41 1.35-.29 1.77.25l0 0c.39.5.35 1.22-.09 1.68l-2.98 3.1c-.67.69-1.04 1.62-1.03 2.58L1917.76 1527.68zM1903.89 1662.17l1.78 9.62-3.95 1.45c0 0-11.76 9.13-16.09-2.72-1.69-4.62 3.32-8.88 7.58-6.42.06.03.12.07.18.11.15.09.3-.09.19-.22l-2.64-3.12c-.45-.53-.39-1.32.12-1.79l0 0c.47-.43 1.19-.44 1.68-.04l3.32 2.74c.74.61 1.69.91 2.65.83L1903.89 1662.17z"></path><path fill="#37424c" d="M1943.65,1570.84c0,0-15.42,3.89-8.72,21.15l28.71,20.07l21.18,15.99l12.2,2.16
							c0,0,25.44-0.26,14.34-20.82c0,0,4.1-14.88-11.12-20.53c0,0-1.87-7.96-12.86-9"></path><path fill="#f7c19b" d="M1958.62,1577.03c-0.64,2.02-1.27,7.6-2.7,9.52c-0.75,1-0.6,2.4,0.33,3.23c2.51,2.25,4.38,4.92,11.8,4.68
							c1.28-0.04,2.32-1.04,2.37-2.32c0.18-4.43,3.79-16.53,6.13-19.63c0,0,19.75-31.35-11.46-30.41c-0.55,0.02-1.43,0.18-1.96,0.35
							l-2.86,0.93c-2.44,0.79-4.4,2.61-5.36,4.99c-2.88,7.13-7.61,22.1,1.85,25.13C1958.26,1573.98,1959.09,1575.54,1958.62,1577.03
							z"></path><path fill="#37424c" d="M1958.76,1576.58l0.32-1.22c0.18-0.67-0.29-1.28-0.96-1.44c-2.1-0.51-6.68-2.15-6.8-9.81
							c-0.15-9.2,6.02-17.33,14.67-20.45l0.5-0.18c0.33-0.12,0.74,0.04,0.84,0.38c0.48,1.68-2.91,5.94-1.11,9.9
							c2.12,4.68,2.95,9.84,1.39,14.74l-0.24,0.75c-0.69,2.15-0.87,4.39-0.48,6.58c0.79,4.44-1.96,17.65,6.22,18.58
							c2.58,0.29,14.26-8.12,14.01-10.7l0,0c-0.16-1.66,0.02-3.33,0.52-4.92l6.05-19.01c0.42-1.33,0.7-2.7,0.78-4.1
							c0.41-7.18-0.82-27.82-28.63-25.93c0,0-9.58,1.18-12.76,11.17l-4.82,15.13c-0.19,0.59-0.32,1.19-0.39,1.8
							c-0.26,2.15-1.2,8.04-4.01,12.37c-0.13,0.19-0.2,0.41-0.2,0.64l0,0"></path><path fill="#f7c19b" d="M1922.21 1802.18l-8.88 119.62h16.59c-3.04-22.68 10.47-68.6 22.38-112.29L1922.21 1802.18zM1958.48 1809.13l24.25 112.36 13.57-7.4-1.27-5.89c-3.52-16.36-5.49-33.02-5.89-49.75l-1.33-56.27L1958.48 1809.13z"></path><path fill="#fa5669" d="M1988.84,1641.53l-6.95,5.92c-1.29,24.95,8.49,38.59,8.49,38.59l-21.09,15.18l-40.52-16.72
									c6.92-15.54,10.46-32.99,11.77-51.71c-11-14.66-1.87-27.01-1.87-27.01l-25.32-21.35c-3.1-2.62-4.97-6.42-5.14-10.48
									l-1.95-46.63l13.12-3.34l2.71,40.47c0.23,3.44,2.32,6.48,5.44,7.93l28.79,13.41c2.45,14.79,15.28,4.3,15.28,4.3l0,0
									c12.46,1.99,22.02,12.69,21.74,25.3C1993.19,1622.07,1991.94,1630.62,1988.84,1641.53z"></path><path fill="#48495b" d="M1928.77,1684.49c-14.11,40.47-19.25,86.69-17.88,137.11l9.25-3.05c10.74-3.54,22.29-3.85,33.2-0.88
									l0.39,0.11c11.6,3.16,23.91,2.52,35.13-1.81l0,0c8-3.09,16.39-5.01,24.93-5.73l21.08-1.76
									c-11.7-18.28-21.59-37.68-27.22-59.66c-2-7.81-3.01-15.79-3.7-23.82c-0.8-9.33-3.64-26.36-13.58-38.96L1928.77,1684.49z"></path><polygon fill="#fa5669" points="1943.31 1646.42 1900.6 1661.08 1903.18 1674.97 1946.39 1660.7"></polygon><g><path fill="#37424c" d="M1981.2,1913.37h14.95l3.71,17.22c0.06,0.27,0.09,0.54,0.09,0.81v1.47c0,1.98-1.6,3.58-3.58,3.58h-38.34
					c-1.01,0-1.95-0.55-2.43-1.44l0,0c-0.67-1.22-0.33-2.76,0.79-3.58c10.07-4.39,18.6-10.07,24.46-17.94
					C1980.96,1913.41,1981.08,1913.37,1981.2,1913.37z"></path></g><g><path fill="#37424c" d="M1913.96,1913.37h15.58l3.71,17.22c0.06,0.27,0.09,0.54,0.09,0.81v1.47c0,1.98-1.6,3.58-3.58,3.58h-38.34
					c-1.01,0-1.95-0.55-2.43-1.44l0,0c-0.67-1.22-0.33-2.76,0.79-3.58C1899.91,1927.02,1908.1,1921.31,1913.96,1913.37z"></path></g></g><g><path fill="#0e4275" d="M2437.27,1166.23c33.86,19.11,60.66,45.61,80.4,79.47c19.73,33.87,29.61,71.99,29.61,114.37
			c0,42.8-9.88,81.13-29.61,115c-19.74,33.87-46.65,60.36-80.72,79.47c-34.08,19.12-71.47,28.67-112.19,28.67
			c-40.73,0-78.13-9.55-112.2-28.67c-34.08-19.11-60.98-45.6-80.72-79.47c-19.74-33.86-29.61-72.2-29.61-115
			c0-42.39,9.87-80.51,29.61-114.37c19.73-33.86,46.64-60.36,80.72-79.47c34.07-19.11,71.46-28.68,112.2-28.68
			C2365.9,1137.55,2403.39,1147.12,2437.27,1166.23z M2255.26,1235.41c-20.16,11.64-35.84,28.26-47.06,49.87
			s-16.83,46.54-16.83,74.8s5.61,53.19,16.83,74.79c11.22,21.61,26.9,38.34,47.06,50.18c20.15,11.84,43.32,17.76,69.5,17.76
			s49.24-5.92,69.18-17.76c19.95-11.84,35.53-28.46,46.75-49.86s16.83-46.44,16.83-75.11s-5.61-53.7-16.83-75.11
			c-11.22-21.4-26.8-37.91-46.75-49.55c-19.94-11.62-43-17.45-69.18-17.45C2298.58,1217.96,2275.41,1223.79,2255.26,1235.41z"></path><path fill="#8a4224" d="M2561.73,1735.1v45.75c0,2.73,1.45,4.94,3.25,4.94h79.63c1.79,0,3.25-2.21,3.25-4.94v-45.75H2561.73z"></path><rect width="6.39" height="5.4" x="2622.16" y="1750.67" fill="#bf6f31"></rect><rect width="6.39" height="5.4" x="2581.34" y="1750.67" fill="#bf6f31"></rect><path fill="#bf6f31" d="M2561.73,1728.66v17.3c0,2.44,1.98,4.42,4.42,4.42h77.28c2.44,0,4.42-1.98,4.42-4.42v-17.3
								c0-1.79-1.45-3.25-3.25-3.25h-79.63C2563.18,1725.41,2561.73,1726.86,2561.73,1728.66z"></path><path fill="#8a4224" d="M2592.06,1725.41h1.51c1.81-9,13.83-10.32,17.52-10.51c1.49-0.07,2.6,0.34,3.42,1.27
								c2.32,2.65,1.43,8.52,1.32,9.24h1.5c0.22-1.48,0.9-7.24-1.7-10.21c-1.12-1.28-2.67-1.88-4.61-1.77
								C2607,1713.63,2593.88,1715.1,2592.06,1725.41z"></path><rect width="8.4" height="7.84" x="2580.34" y="1742.83" fill="#8a4224"></rect><g><rect width="8.4" height="7.84" x="2621.04" y="1742.83" fill="#8a4224"></rect></g><g><path fill="#f7c19b" d="M2439.92 1565.62l-12.5 6.48-3.65-4.83c0 0-17.51-12.38-2.99-23.31 5.65-4.26 13.63.86 12.02 7.75-.02.1-.05.19-.07.29-.06.24.26.38.39.17l3.19-4.94c.54-.84 1.65-1.1 2.51-.58l0 0c.79.47 1.11 1.45.75 2.3l-2.38 5.72c-.53 1.28-.54 2.72-.03 4L2439.92 1565.62zM2594.26 1701.72l13.25-4.78 2.98 5.27c0 0 15.72 14.58-.11 23.5-6.17 3.47-13.4-2.65-10.89-9.27.03-.09.07-.19.11-.28.09-.23-.21-.41-.36-.22l-3.81 4.47c-.65.76-1.78.87-2.57.25l0 0c-.72-.57-.91-1.59-.44-2.38l3.12-5.36c.7-1.2.9-2.62.56-3.96L2594.26 1701.72z"></path><polygon fill="#1d3557" points="2578.23 1628.59 2610.85 1700.4 2594.22 1706.69 2563.37 1656.99"></polygon><path fill="#1d3557" d="M2546.53,1723.27l-25.41-19.54c0,0-7.76-48.98-24.17-77.12l-24.74,0.71c-7.15,0.21-13.9-3.26-17.9-9.18
							l-29.1-47.08l15.55-9.11l28.32,41.56l28.37-9.57c1.23-1.23,2.65-2.23,4.23-2.97c9.1-4.23,40.71-16.47,59.3,7.62
							c19.54,24.79,25.89,45.83,27.36,92.63l0,0L2546.53,1723.27z"></path><polygon fill="#f7c19b" points="2604.27 1918.08 2618.11 1912.79 2611.16 1894.32 2597.32 1899.61"></polygon><path fill="#37424c" d="M2619.66,1909.83l7.09,8.5c0.59,0.71,0.96,1.52,1.06,2.37l0,0c0.26,2.12-1.18,4.14-3.62,5.09l-24.32,9.43
						c-2.08,0.81-4.37,1.25-6.7,1.29l0,0c-2.56,0.05-4.7-1.53-4.79-3.53l0,0c-0.04-0.81,0.28-1.61,0.9-2.26l12.55-16.38
						c0.3-0.39,0.75-0.7,1.28-0.89l12.96-4.47C2617.36,1908.54,2618.88,1908.9,2619.66,1909.83z"></path><polygon fill="#f7c19b" points="2504.66 1923.57 2518.66 1923.67 2518.77 1901.68 2504.77 1901.58"></polygon><path fill="#37424c" d="M2521.32,1920.34l3.55,10.48c0.3,0.88,0.34,1.77,0.14,2.59l0,0c-0.53,2.07-2.59,3.44-5.21,3.44
						l-26.09,0.03c-2.23,0-4.52-0.41-6.71-1.21l0,0c-2.4-0.88-3.84-3.13-3.2-5.02l0,0c0.26-0.77,0.84-1.4,1.65-1.78l17.61-10.75
						c0.42-0.26,0.95-0.38,1.52-0.36l13.7,0.5C2519.64,1918.31,2520.93,1919.19,2521.32,1920.34z"></path><path fill="#334d5e" d="M2596.87,1906.39l-39.79-79.94l-6.55-66.41l-19.64,59.38l-8.6,88.86h-21.5l4.3-99.41l16.02-105.14
						c0,0,41.82,7.82,67.23-12.51L2586,1820.2l29.7,78.17L2596.87,1906.39z"></path><path fill="#f7c19b" d="M2514.64,1581.14c0.44-0.03,0.75,0.42,0.57,0.82l-3.23,7.31c-0.18,0.38-0.32,0.67-0.15,0.96
							c0.48,0.76,1.01,1.38,1.61,1.89c2.59,2.19,6.15,2.15,9.27,1.44c3.2-0.71,5.89-2.12,6.52-2.53c0.11-0.07,0.18-0.19,0.2-0.31
							l1.12-12c0.02-0.19,0.13-0.35,0.3-0.44c7.84-4.6,8-15.48,8-15.48c-1.05-23.88-18.69-21.4-27.24-18.78
							c-2.85,0.88-5.08,3.14-5.92,6.01C2496.76,1580.41,2510.73,1581.43,2514.64,1581.14z"></path><path fill="#29354e" d="M2527.81,1562.61l-1.7,7.1c-0.2,0.82-1.17,1.18-1.85,0.68l0,0c-0.35-0.25-0.53-0.68-0.48-1.1l0.67-5.37
							c0.15-1.18-0.36-2.35-1.31-3.07c-1.81-1.38-4.43-4.13-3.45-8.03c0.21-0.84-0.34-1.68-1.19-1.82
							c-2.97-0.47-8.85-1.73-10.98-4.53c-0.39-0.51-0.83-1-1.31-1.43c-1.34-1.22-3.6-3.96-1.73-7.28c0.31-0.55,0.95-0.83,1.56-0.68
							l5.18,1.24c0.36,0.09,0.73-0.11,0.85-0.46l1.56-4.32c0.17-0.47,0.74-0.63,1.13-0.32l5.15,4.07c1.12,0.88,2.64,1.06,3.93,0.46
							c2.69-1.24,7.97-2.58,14.37,1.37c5.7,3.51,7.97,10.52,8.88,15.46c0.6,3.24-0.29,6.58-2.39,9.12l-4.92,5.95
							c-0.18,0.22-0.35,0.45-0.49,0.7c-1.11,1.85-5.2,10.43-8.56,8.2c-0.09-0.06-0.13-0.18-0.11-0.28l-0.15-4.69
							c0.25-1.05,0.8-2,1.58-2.73c2.11-1.98,5.99-6.37,2.15-8.94c-1.28-0.86-2.88-1.15-4.38-0.8
							C2528.92,1561.3,2528.02,1561.73,2527.81,1562.61z"></path></g></g><g><path fill="#0e4275" d="M436.47,1490.81c-16.39,17.03-37.28,29.12-62.67,36.27c-25.41,7.16-53.38,7.63-83.92,1.45
			c-46.84-9.49-82.31-28.01-106.4-55.58c-24.1-27.55-32.14-61.09-24.14-100.6l91.63,18.56c-2.09,18.65,1.3,33.87,10.16,45.62
			c8.85,11.76,23.05,19.61,42.6,23.57c19.55,3.96,36.05,2.01,49.52-5.87c13.46-7.86,21.85-19.95,25.15-36.24
			c2.64-13.03,0.81-24.42-5.48-34.18c-6.29-9.75-14.79-18.04-25.49-24.88c-10.7-6.83-26.07-15.24-46.08-25.23
			c-25.89-12.45-46.64-24.08-62.26-34.87s-27.95-25.26-37-43.42c-9.04-18.15-10.84-40.67-5.39-67.55
			c5.2-25.66,16.17-46.85,32.92-63.6c16.74-16.74,37.57-28.01,62.48-33.77s51.82-5.72,80.74,0.14
			c44.39,8.99,77.98,26.29,100.78,51.89s31.25,59.22,25.36,100.85l-94.08-19.05c1.67-16.62-1.82-30.79-10.47-42.51
			c-8.66-11.71-21.33-19.26-38.02-22.65c-17.52-3.55-32.56-2.03-45.12,4.53c-12.57,6.58-20.66,18.82-24.29,36.74
			c-2.72,13.44-0.96,25.14,5.29,35.09c6.25,9.96,14.82,18.38,25.73,25.24c10.9,6.88,26.2,15.06,45.9,24.56
			c25.88,12.45,46.63,24.07,62.26,34.87c15.62,10.8,27.84,25.26,36.69,43.36c8.83,18.12,10.54,40.61,5.09,67.49
			C463.35,1453.86,452.85,1473.77,436.47,1490.81z"></path><path fill="#f7c19b" d="M229.12 1532.42l13.6 7.06 3.97-5.26c0 0 19.05-13.47 3.26-25.37-6.15-4.63-14.83.93-13.08 8.44.02.1.05.21.08.32.06.26-.28.41-.43.19l-3.47-5.37c-.59-.91-1.8-1.19-2.73-.63l0 0c-.86.52-1.21 1.58-.82 2.5l2.59 6.23c.58 1.39.59 2.96.04 4.36L229.12 1532.42zM61.16 1680.53l-14.42-5.2-3.24 5.74c0 0-17.11 15.87.12 25.58 6.71 3.78 14.58-2.88 11.85-10.09-.04-.1-.08-.2-.12-.31-.1-.25.22-.45.4-.24l4.15 4.87c.71.83 1.94.95 2.79.27l0 0c.78-.62.99-1.73.48-2.59l-3.39-5.83c-.76-1.3-.98-2.85-.61-4.31L61.16 1680.53z"></path><polygon fill="#fb6107" points="78.6 1600.95 43.11 1679.09 61.2 1685.94 94.77 1631.86"></polygon><path fill="#fb6107" d="M113.1,1703.98l27.65-21.27c0,0,8.44-53.3,26.3-83.92l26.93,0.78c7.78,0.22,15.12-3.55,19.48-9.99
							l31.66-51.23l-16.93-9.92l-30.82,45.22l-30.87-10.42c-1.34-1.34-2.89-2.43-4.6-3.23c-9.9-4.61-44.3-17.93-64.53,8.29
							c-21.26,26.98-28.18,49.87-29.77,100.8l0,0L113.1,1703.98z"></path><rect width="21.8" height="16.46" x="35.66" y="1894.75" fill="#f7c19b" transform="rotate(-69.218 46.557 1903.059)"></rect><path fill="#37424c" d="M33.9,1906.78l-7.71,9.25c-0.65,0.77-1.04,1.66-1.15,2.57l0,0c-0.28,2.31,1.28,4.51,3.93,5.54l26.47,10.26
						c2.26,0.88,4.75,1.36,7.29,1.4l0,0c2.78,0.05,5.12-1.67,5.21-3.84l0,0c0.04-0.88-0.31-1.75-0.98-2.46l-13.66-17.82
						c-0.33-0.43-0.81-0.76-1.4-0.96l-14.1-4.86C36.39,1905.38,34.74,1905.77,33.9,1906.78z"></path><rect width="16.46" height="21.8" x="142.76" y="1899.18" fill="#f7c19b" transform="translate(-11.252 .923)"></rect><path fill="#37424c" d="M140.51,1918.44l-3.86,11.41c-0.32,0.96-0.37,1.92-0.15,2.82l0,0c0.57,2.26,2.82,3.74,5.66,3.75
						l28.39,0.04c2.43,0,4.92-0.45,7.3-1.32l0,0c2.62-0.96,4.17-3.4,3.48-5.46l0,0c-0.28-0.84-0.92-1.52-1.8-1.94l-19.17-11.7
						c-0.46-0.28-1.03-0.42-1.65-0.4l-14.91,0.55C142.34,1916.23,140.93,1917.19,140.51,1918.44z"></path><path fill="#334d5e" d="M58.32,1903.26l43.3-86.99l7.13-72.27l21.37,64.62l9.36,96.7h23.39l-4.68-108.18l-17.44-114.41
						c0,0-45.51,8.51-73.16-13.61l2.55,140.36l-32.32,85.07L58.32,1903.26z"></path><path fill="#f7c19b" d="M147.8,1549.31c-0.48-0.03-0.82,0.46-0.62,0.89l3.51,7.96c0.19,0.41,0.34,0.73,0.16,1.05
							c-0.52,0.83-1.1,1.51-1.76,2.05c-2.81,2.39-6.7,2.34-10.08,1.57c-3.48-0.77-6.41-2.31-7.09-2.76
							c-0.12-0.08-0.19-0.2-0.21-0.34l-1.22-13.05c-0.02-0.2-0.14-0.38-0.33-0.48c-8.53-5-8.7-16.84-8.7-16.84
							c1.15-25.99,20.34-23.29,29.64-20.44c3.1,0.96,5.53,3.42,6.44,6.54C167.26,1548.52,152.06,1549.62,147.8,1549.31z"></path><path fill="#29354e" d="M133.48,1529.14l1.85,7.73c0.21,0.9,1.27,1.28,2.01,0.74l0,0c0.38-0.28,0.58-0.74,0.52-1.2l-0.73-5.84
							c-0.16-1.29,0.39-2.56,1.42-3.34c1.97-1.5,4.82-4.49,3.76-8.74c-0.23-0.91,0.37-1.83,1.3-1.98c3.23-0.51,9.63-1.88,11.95-4.93
							c0.43-0.56,0.9-1.08,1.42-1.56c1.46-1.33,3.92-4.31,1.88-7.93c-0.34-0.6-1.03-0.9-1.7-0.74l-5.64,1.35
							c-0.39,0.09-0.79-0.12-0.93-0.5l-1.69-4.7c-0.18-0.51-0.81-0.69-1.23-0.35l-5.6,4.43c-1.22,0.96-2.87,1.15-4.28,0.5
							c-2.93-1.35-8.67-2.81-15.64,1.49c-6.2,3.82-8.67,11.44-9.66,16.82c-0.65,3.53,0.32,7.16,2.6,9.92l5.35,6.48
							c0.2,0.24,0.38,0.49,0.54,0.76c1.21,2.01,5.66,11.35,9.32,8.92c0.1-0.07,0.14-0.19,0.12-0.31l0.16-5.11
							c-0.27-1.14-0.87-2.17-1.72-2.97c-2.3-2.15-6.52-6.93-2.34-9.73c1.39-0.93,3.13-1.25,4.77-0.87
							C132.27,1527.72,133.25,1528.19,133.48,1529.14z"></path></g><g><path fill="#0e4275" d="M869.17,1102.56c40.91,16.11,73.54,43.91,97.89,83.41l-103.13,21.45c-26.91-33.44-63.35-45.39-109.32-35.83
			c-25.63,5.33-47.12,15.75-64.48,31.24c-17.37,15.5-29.33,34.97-35.92,58.41c-6.58,23.44-7,49-1.24,76.66
			c5.76,27.67,16.33,50.94,31.71,69.8c15.38,18.87,34.14,32.05,56.29,39.54c22.14,7.49,46.03,8.57,71.66,3.24
			c45.56-9.48,74.22-34.95,85.96-76.45l103.13-21.45c-6.58,45.93-25.43,84.34-56.56,115.22c-31.14,30.89-69.89,51.15-116.27,60.8
			c-39.87,8.3-78.41,6.66-115.62-4.92c-37.22-11.57-68.93-31.92-95.15-61.06c-26.23-29.13-43.69-64.65-52.41-106.56
			c-8.63-41.5-6.74-80.83,5.69-118.01c12.42-37.17,33.37-68.59,62.84-94.24c29.46-25.65,64.13-42.63,104-50.92
			C784.61,1083.23,828.26,1086.47,869.17,1102.56z"></path><path fill="#f7c19b" d="M701.09,1530.41l0.37-0.46c1.54-1.9,2.39-4.26,2.41-6.7l0.1-9.87c0.01-0.87,0.64-1.6,1.5-1.73l0,0
					c0.96-0.15,1.86,0.51,2.01,1.46l1.23,7.51c0.06,0.35,0.55,0.38,0.64,0.03c1.07-3.98,4.55-13.91,12.08-11.49
					c9.36,3.01,6.76,11.92,1.6,18.29c-5.16,6.36-10.45,11.7-10.45,11.7L701.09,1530.41z"></path><rect width="12.22" height="14.76" x="574.63" y="1902.17" fill="#f7c19b"></rect><rect width="11.91" height="14.68" x="638.61" y="1902.21" fill="#f7c19b"></rect><path fill="#37424c" d="M638.45 1912.91c2.32.94 7.23 2.32 12.14-.23.44-.23 1.02-.18 1.39.12l15.44 12.95c1.39 1.16 2.61 2.45 3.65 3.83l0 0c.49.65.52 1.47.07 2.14l0 0c-.47.7-1.38 1.14-2.36 1.14h-31.35c-.97 0-1.88-.37-2.44-1.01l0 0c-.44-.49-.64-1.1-.55-1.7l2.45-16.57C636.96 1912.99 637.77 1912.63 638.45 1912.91zM584.97 1723.76h63.47l5.22 182.37c0 1.26-1.02 2.28-2.28 2.28h-14.5c-1.17 0-2.15-.88-2.27-2.05l-11.75-126.51c-.2-1.88-1.78-3.31-3.68-3.31l0 0c-1.76 0-3.27 1.23-3.62 2.95l-24.99 127.08c-.22 1.07-1.16 1.83-2.24 1.83h-15.07c-1.35 0-2.4-1.16-2.28-2.5L584.97 1723.76z"></path><path fill="#bf6f31" d="M585.17,1724.91c8.93,3.19,36.81,11.28,66.32,0.52c1.79-0.65,2.99-2.34,2.99-4.24v-98.81
					c0-1.73-0.23-3.46-0.68-5.13l-0.19-0.71c-1.14-4.19-0.85-8.63,0.81-12.64l59.83-63.45c0.42-1.01-0.07-2.17-1.09-2.58
					l-11.07-10.71c-0.92-0.37-1.97,0.01-2.45,0.88l-58.1,48.21c-1.27,2.31-7.02,5.71-9.66,5.71l-23.39-1.9
					c-0.37,0-0.73,0.15-0.99,0.41l-22.21,21.94c-3.3,3.38-5.76,7.48-7.21,11.97l-16.09,50.11c-0.5,1.57-0.76,3.21-0.76,4.86v2.27
					c0,9.69,8.61,17.21,18.19,15.74c0.79-0.12,1.62-0.27,2.49-0.44l0.28,33.79C582.2,1722.59,583.39,1724.27,585.17,1724.91z"></path><path fill="#f7c19b" d="M608.09 1580.8c1.89 1.68 7.89 5.91 15.37-.17.33-.27.53-.67.53-1.09v-5.18c0-.95.78-1.69 1.74-1.71 2.93-.04 8.62-3.28 9.32-27.5.1-3.55-1.18-7.01-3.62-9.59-6.45-6.85-20.17-16.77-31.28 6.76 0 0-4.41 12.78 3.82 20.08 2.31 2.05 3.68 4.95 3.63 8.04l-.12 8.98C607.47 1579.94 607.69 1580.45 608.09 1580.8zM632.32 1643.53l.8-.4c.8-.4 1.39-1.11 1.65-1.96l1.86-6.13c.23-.75 1.08-1.12 1.78-.76l0 0c.5.25.78.8.68 1.35l-.72 4.13c-.05.31.34.49.54.25 1.52-1.83 5.12-5.47 8.6-3.81 4.57 2.18 6.01 12.15 2.39 14.54-3.01 1.99-7.92 2.89-9.48 3.14-.33.05-.66.14-.98.26l-1.89.71L632.32 1643.53z"></path><polyline fill="#bf6f31" points="573.61 1665 631.86 1642.99 637.79 1655.89 581.9 1686.91"></polyline><path fill="#b26028" d="M581.9,1687.09c-0.07,0-0.13-0.03-0.16-0.1c-0.05-0.09-0.02-0.2,0.07-0.25l55.74-30.93l-5.79-12.59
						l-58.08,21.95c-0.1,0.03-0.2-0.01-0.24-0.11s0.01-0.2,0.11-0.24l58.25-22.01c0.09-0.03,0.19,0.01,0.24,0.1l5.94,12.9
						c0.04,0.09,0.01,0.19-0.08,0.24l-55.89,31.02C581.96,1687.09,581.93,1687.09,581.9,1687.09z"></path><path fill="#37424c" d="M607.53,1575.33h-2.96c-3.3,0-6.45-1.38-8.68-3.81l0,0c-2.11-2.29-3.28-5.29-3.28-8.41v-4.23
					c0-1.09,0.14-2.17,0.43-3.22l3.87-14.37c0.52-1.94-0.67-3.91-2.63-4.37c-4.54-1.09-12.8-5.23-6.85-13.93
					c5.33-7.79,12.05-2.79,15.02,1.35c0.83,1.16,2.4,1.5,3.65,0.83l0,0c2.8-1.52,5.94-2.31,9.12-2.31h7.86
					c3.99,0,7.71,2.13,9.61,5.63c1.55,2.84,2.66,6.65,1.67,11.16c-0.06,0.26-0.35,0.39-0.58,0.27l-10.36-5.13
					c-0.64-0.3-1.39,0.08-1.53,0.77c-0.74,3.64-3.24,13.64-9.13,19.04c-0.98,0.9-2.55,0.63-3.2-0.53c-0.76-1.36-1.9-3.04-3.36-4.08
					c-3.07-2.19-6.95,1.42-4.98,4.63c0.65,1.06,1.69,2.3,3.31,3.71c1.73,1.51,2.78,3.66,2.9,5.96L607.53,1575.33z"></path><g><path fill="#37424c" d="M574.95,1914.25c1.89,1.15,6.2,2.94,11.67-0.06c0.55-0.3,1.24,0.03,1.34,0.65l2.83,16.97
					c0.01,0.09,0.02,0.17,0.02,0.26v2.77c0,0.88-0.72,1.6-1.6,1.6h-18.6c-0.88,0-1.6-0.72-1.6-1.6v-2.49c0-0.14,0.02-0.28,0.05-0.41
					l4.52-17.15C573.74,1914.2,574.42,1913.93,574.95,1914.25z"></path></g></g></svg>