<svg xmlns="http://www.w3.org/2000/svg" id="chat" viewBox="0 0 5000 5000">
  <ellipse cx="3731.479" cy="2977.474" rx="519.12" ry="273.326" style="fill:#ebf1f8" transform="rotate(-51.862 3731.48 2977.474)"></ellipse>
  <path d="M3894.7695,2203.3272c-118.4269,118.4013-275.9461,182.3692-407.9763,282.5429-130.2677,98.8364-224.7984,230.7417-302.6913,372.921-142.6411,260.3652-231.2024,555.596-425.2046,785.3932-324.9247,384.8761-891.5624,463.0299-1307.2641,176.6627C915.102,3451.2432,820.04338,2609.2305,1009.6437,2032.5146c109.6201-333.4368,330.0843-515.1299,658.5934-619.2551,385.5721-122.2121,776.0508-246.597,1168.1827-345.841,360.2953-91.1866,794.1711-113.9618,1071.6294,181.2463C4148.0833,1504.0545,4143.8945,1954.2619,3894.7695,2203.3272Z" style="fill:#ebf1f8"></path>
  <path d="M794.02938,2391.4974H2812.0143a26.3807,26.3807,0,0,1,26.3807,26.3807v800.5522a26.3797,26.3797,0,0,1-26.3797,26.3797H794.02848a26.3798,26.3798,0,0,1-26.3798-26.3798V2417.8781A26.3807,26.3807,0,0,1,794.02938,2391.4974Z" style="fill:#6babde"></path>
  <path d="M1017.7595,3116.0726v470.7966l542.5159-542.5159S1028.7971,3116.0726,1017.7595,3116.0726Z" style="fill:#6babde"></path>
  <path d="M1885.7829 2645.2852H1047.1801a36.78265 36.78265 0 0 1 0-73.5653h838.6028a36.78265 36.78265 0 0 1 0 73.5653ZM1031.0651 2744.5885H2586.0256a20.6605 20.6605 0 0 1 20.6605 20.6605v.0001a20.6604 20.6604 0 0 1-20.6604 20.6604H1031.065a20.6604 20.6604 0 0 1-20.6604-20.6604v-.0001A20.6605 20.6605 0 0 1 1031.0651 2744.5885ZM2586.0257 2865.9669H1031.065a20.72119 20.72119 0 0 1-20.6604-20.6605h0a20.72119 20.72119 0 0 1 20.6604-20.6605H2586.0257a20.72119 20.72119 0 0 1 20.6604 20.6605h0A20.72119 20.72119 0 0 1 2586.0257 2865.9669ZM2196.3901 3049.8673h85.7907a2.0615 2.0615 0 0 1 2.0615 2.0615v76.7971a2.0615 2.0615 0 0 1-2.0615 2.0615h-85.7897a2.0625 2.0625 0 0 1-2.0625-2.0625v-76.7961A2.0615 2.0615 0 0 1 2196.3901 3049.8673ZM2359.8634 3049.8673h85.7822a2.0606 2.0606 0 0 1 2.0606 2.0606v76.798a2.0615 2.0615 0 0 1-2.0615 2.0615h-85.7813a2.0615 2.0615 0 0 1-2.0615-2.0615v-76.7971A2.0615 2.0615 0 0 1 2359.8634 3049.8673Z" style="fill:#fff"></path>
  <rect width="89.913" height="80.92" x="2521.267" y="3049.867" rx="2.062" style="fill:#fff"></rect>
  <path d="M2187.9857,1413.1308H4205.9706a26.3807,26.3807,0,0,1,26.3807,26.3807v800.5521a26.3798,26.3798,0,0,1-26.3798,26.3798H2187.9848a26.3798,26.3798,0,0,1-26.3798-26.3798V1439.5115A26.3807,26.3807,0,0,1,2187.9857,1413.1308Z" style="fill:#5997d1" transform="rotate(180 3196.978 1839.787)"></path>
  <path d="M3982.2405,2137.706v470.7966l-542.5159-542.5159S3971.2029,2137.706,3982.2405,2137.706Z" style="fill:#5997d1"></path>
  <path d="M2333.6014,1491.1518h70.5597a2.0606,2.0606,0,0,1,2.0606,2.0606v63.0968a2.0615,2.0615,0,0,1-2.0615,2.0615h-70.5588a2.0615,2.0615,0,0,1-2.0615-2.0615v-63.0959A2.0615,2.0615,0,0,1,2333.6014,1491.1518Z" style="fill:#fff"></path>
  <rect width="74.689" height="67.219" x="2467.327" y="1491.152" rx="2.062" style="fill:#fff"></rect>
  <path d="M2605.1748 1491.1518h70.5735a2.0625 2.0625 0 0 1 2.0625 2.0625v63.0949a2.0615 2.0615 0 0 1-2.0615 2.0615h-70.5735a2.0625 2.0625 0 0 1-2.0625-2.0625v-63.0949A2.0615 2.0615 0 0 1 2605.1748 1491.1518ZM4033.9071 1769.4586H3080.6475a28.51565 28.51565 0 1 1 0-57.0313h953.2596a28.51565 28.51565 0 0 1 0 57.0313ZM3316.9269 2159.9066h-953.251a28.5156 28.5156 0 1 1 0-57.0312h953.251a28.5156 28.5156 0 1 1 0 57.0312Z" style="fill:#fff"></path>
  <rect width="118.14" height="57.031" x="3399.424" y="2102.875" rx="1.242" style="fill:#fff"></rect>
  <rect width="118.133" height="57.031" x="3557.273" y="2102.875" rx="1.242" style="fill:#fff"></rect>
  <path d="M4043.0679 1893.7079h-1578.57a19.3489 19.3489 0 0 1 0-38.6978h1578.57a19.3489 19.3489 0 0 1 0 38.6978ZM4043.0679 1977.2208h-1578.57a19.34885 19.34885 0 0 1 0-38.6977h1578.57a19.34885 19.34885 0 0 1 0 38.6977Z" style="fill:#fff"></path>
</svg>
