<svg xmlns="http://www.w3.org/2000/svg" viewBox="0 0 64 64" id="switch">
  <defs>
    <linearGradient id="a" x1="4" x2="60" y1="32" y2="32" gradientUnits="userSpaceOnUse">
      <stop offset="0" stop-color="#00c0ff"></stop>
      <stop offset="1" stop-color="#5558ff"></stop>
    </linearGradient>
  </defs>
  <path fill="url(#a)" d="M48.04881,19.98669H16.01331a12.01331,12.01331,0,0,0,0,24.02662h32.0355C63.9779,43.358,63.98957,20.64709,48.04881,19.98669Zm-32.0355,22.0244c-13.27612-.548-13.28181-19.47177.00006-20.02224l25.409.00006a12.0507,12.0507,0,0,0,.00019,20.02218Zm32.0355,0A10.02288,10.02288,0,0,1,38.03771,32c.55042-13.281,19.47379-13.27716,20.02219.00006A10.02286,10.02286,0,0,1,48.04881,42.01109Zm5.2128-12.3066L47.255,35.71114a1.00074,1.00074,0,0,1-1.41563,0l-3.00327-3.00332a1.00118,1.00118,0,0,1,1.41557-1.41564l2.29551,2.29552L51.846,28.28886A1.00119,1.00119,0,0,1,53.26161,29.70449Z"></path>
</svg>
