<svg xmlns="http://www.w3.org/2000/svg" xml:space="preserve" id="hand-holding-big-key-while-reset-password" x="0" y="0" style="enable-background:new 0 0 3000 3000" version="1.1" viewBox="0 0 3000 3000">
  <g>
    <ellipse cx="1988.2" cy="2602.4" rx="986.8" ry="67.1" style="fill:#eee"></ellipse>
    <g>
      <g>
        <g>
          <g>
            <path d="M2579.6,2602.7l-849.4-0.3c-14.1,0-25.6-11.5-25.6-25.6l0.3-668.7l900.7,0.3l-0.3,668.7
						C2605.3,2591.3,2593.8,2602.7,2579.6,2602.7z" style="fill:#ffa726"></path>
            <path d="M2605.5,2000.2c0-14.2-11.5-25.6-25.6-25.6l-849.4-0.3c-14.1,0-25.6,11.4-25.6,25.6l0-91.8l900.6,0.3
						L2605.5,2000.2z" style="fill:#f7991c"></path>
            <path d="M2545.7,1974.6l-0.2,602.5c0,14.2-11.5,25.6-25.6,25.6l59.8,0c14.1,0,25.6-11.4,25.6-25.6l0.3-668.7
						L2545.7,1974.6z" style="fill:#fb8c00"></path>
            <path d="M1764.6,1974.2l-0.2,602.5c0,14.2,11.5,25.6,25.6,25.6l-59.8,0c-14.1,0-25.6-11.4-25.6-25.6l0.3-668.7
						L1764.6,1974.2z" style="fill:#ffae43"></path>
          </g>
          <g>
            <g>
              <path d="M1780.4,1701.1l-0.1,236.5l117.1,0l0-24.6l0-71.9l0-140.1c0-130.3,106.1-236.3,236.5-236.3
							c130.3,0.1,236.3,106.1,236.3,236.4l-0.1,239.7l117.1,0l0.1-239.7c0.1-194.9-158.4-353.5-353.3-353.6
							C1939.1,1347.7,1780.5,1506.2,1780.4,1701.1z" style="fill:#414042"></path>
            </g>
            <path d="M1780.4 1937.6c0 9.1 26.2 16.6 58.5 16.6 32.3 0 58.5-7.4 58.6-16.5 0-9.1-26.2-16.6-58.5-16.6C1806.6 1921 1780.4 1928.4 1780.4 1937.6zM2370.2 1941c0 9.1 26.2 16.6 58.5 16.6 32.3 0 58.5-7.4 58.5-16.5 0-9.1-26.2-16.6-58.5-16.6C2396.4 1924.4 2370.2 1931.8 2370.2 1941z" style="fill:#414042"></path>
          </g>
        </g>
        <path d="M2237.3,2211.8c0-45.4-36.8-82.3-82.2-82.3c-45.4,0-82.3,36.8-82.3,82.2c0,28,14,52.7,35.4,67.5l-35.5,151.7
				l164.5,0.1l-35.4-151.7C2223.3,2264.5,2237.3,2239.8,2237.3,2211.8z" style="fill:#414042"></path>
      </g>
      <path d="M1185.4,563.9l-47.8,303.7l-8.4,53.3l0,0.1l26.2-6.1l123.3-29l86.3-20.2l29.3-6.9c3.6-0.8,7.2-1.5,11-1.8
			c1.2-0.1,2.4-0.2,3.7-0.3c6.2-0.6,12.3-0.5,18.4,0.1c2.7,0.3,5.4,0.7,8.1,1.2c1.3,0.3,2.7,0.6,4,0.9c1.3,0.3,2.7,0.6,4,1
			c0.5,0.2,1.1,0.4,1.6,0.5c2,0.6,4,1.3,6,2l0.3,0.2c1.3,0.5,2.5,1,3.8,1.5c1.2,0.5,2.5,1.1,3.8,1.8c3.8,1.9,7.8,3.7,11.7,5.5
			c4,1.8,7.9,3.5,11.8,5.3c7.9,3.4,15.9,6.7,23.9,9.8c8,3.1,16.1,6.1,24.2,8.9c5.8,2,11.5,4,17.4,5.8c10.5,3.4,21,6.5,31.7,9.4
			c8.3,2.1,16.6,4.1,24.9,6l0.1,0c8.3,1.9,16.7,3.6,25.1,5.2c8.3,1.6,16.8,3,25.3,4.3c16.9,2.5,33.9,4.4,51,5.7
			c7.2,0.5,14.5,0.9,21.8,1.2c2.6,0.1,5.3,0.2,7.9,0.3c20.1,0.6,40.2,0.3,60.3-0.8c21.4-1.3,42.9-3.5,64.2-6.8
			c5.7-0.9,11.7-1.5,17.5-2c5.9-0.5,11.7-0.7,17.6-0.6c11.8,0.1,23.4,1.1,34.9,3.1c2.9,0.5,5.7,1.1,8.5,1.7c2.9,0.6,5.7,1.2,8.6,1.9
			c2.6,0.7,5.1,1.4,7.8,2.2c0.2,0,0.4,0.1,0.6,0.1c2.8,0.9,5.6,1.9,8.5,2.7c5.4,1.8,10.9,4,16.3,6.4c1.4,0.6,2.7,1.2,4.1,1.7
			c1.4,0.6,2.7,1.2,4.1,1.8c0.6,0.3,1.2,0.6,1.8,0.9l13.8-26.8l54.1-105.4c-26.8-12.4-55.8-25.1-86.7-38.1
			c-28.3-11.9-46.6-39.9-45.7-70.7l2-69c0.3-17.7,17.1-30.6,34.3-26.7l24.9,5.6c51.4,11.5,97.8,39.1,132.3,78.6
			c63.1,62.4,104.1,189.4,159,275.1c10,15.7,27.6,23.5,44.7,21.8c7.9-0.7,15.9-3.4,23-8.2c0.3-0.3,0.6-0.5,1-0.7
			c20.4-13.9,28.3-43.9,16.6-65.6l-127.6-309.8l0.8,0.6L2493.9,796c28.1,20.7,67.1,16.8,90.6-8.8c13.1-14.3,13-35.7,1-49.9
			c-1.7-1.9-3.4-3.5-5.4-5.3l-118.3-92.7l47.3,1.9c15.5,0.6,29.5-7.3,37.1-19.7c3.2-5,5.4-10.8,6-17.1c2.4-19-3.6-37.5-15.5-51.3
			c-7.6-8.9-17.7-16-29.5-19.9L2339,476.9l-1.1-16.9l-1.6-24c-1.8-26-21-47.4-46.6-51.8c-90.1-15.8-184.1-27-282-32.7
			c-17.6-1.1-34.5-5.8-50.4-13.1c-24.6-11.4-88-19.7-240.9,43.4c-26.5,10.9-52.5,23.3-78.1,36.1c-56,28.6-201.2,97.7-355.6,130.7
			c-30.2,6.4-60.4,11.5-90.6,14.6C1189.8,563.6,1187.6,563.7,1185.4,563.9z" style="fill:#f7c19b"></path>
      <path d="m2236.1 605.8 257.8 190.1c28.1 20.7 67.2 16.9 90.7-8.8l-13.1-.9c-31.9-2-62.7-11.9-89.9-28.6L2236.1 605.8zM2323.3 990.2c-17.2 1.7-34.6-6-44.7-21.8-54.9-85.7-95.9-212.7-159-275.1-34.6-39.5-80.9-67.1-132.3-78.6l-24.9-5.6 24.5 5.1c73.8 15.7 140.5 55.1 190.1 111.9C2177 726.1 2328.3 985.1 2323.3 990.2z" style="fill:#eab896"></path>
      <polygon points="2338.9 477 2180.2 452.7 2337.8 460.1" style="fill:#eab896"></polygon>
      <path d="M2316.5 990.3c2.3.1 4.6.1 6.8-.1.6-.6-1.5-4.6-5.8-11.1C2317.5 982.9 2317.1 986.6 2316.5 990.3zM2406 611.4l56 27.8 47.2 1.9c15.5.6 29.4-7.3 37.1-19.7L2406 611.4z" style="fill:#eab896"></path>
      <g>
        <path d="M2816.8,1542.8l-473.3-454.4l47.2-49.7L2864,1493c4.6,4.4,4.8,11.7,0.4,16.3l-31.4,33
				C2828.7,1547,2821.4,1547.2,2816.8,1542.8z" style="fill:#ffa726"></path>
        <path d="M2864.4,1509.3l-3.9,4.1c4.4-4.6,4.2-11.9-0.4-16.3l-473.3-454.4l3.9-4.1l473.3,454.4
				C2868.7,1497.4,2868.8,1504.7,2864.4,1509.3z" style="fill:#f7991c"></path>
        <path d="m2737.2 1589.6 6.3 6c4.4 4.1 11.2 4 15.4-.4l64.4-67.8-22.1-21-64.4 67.8C2732.7 1578.6 2732.9 1585.5 2737.2 1589.6zM2735.8 1533 2735.8 1533c4.4 4.1 11.2 4 15.4-.4l36.9-38.8-15.8-15-36.9 38.8C2731.2 1522 2731.4 1528.9 2735.8 1533zM2647.5 1541.2l13.2 12.6c4.4 4.1 11.2 4 15.4-.4l82.8-87.2-29-27.6-82.8 87.2C2643 1530.2 2643.2 1537.1 2647.5 1541.2zM2418.9 842.2c-55.1-52.3-160.2-31-234.7 47.5-74.6 78.5-90.5 184.6-35.4 236.9 55 52.3 160.2 31 234.8-47.5C2458.1 1000.6 2474 894.5 2418.9 842.2zM2278.6 1069.5c-31.8 33.4-75.3 43.7-97.3 22.9-22-20.9-14-64.9 17.8-98.4 18.2-19.2 40.2-30.7 59.8-33.1 1.5-19.8 11.9-42.3 30.1-61.5 31.8-33.4 75.3-43.7 97.3-22.8 21.9 20.8 13.9 64.9-17.8 98.3-18.2 19.2-40.2 30.7-59.9 33.2C2307.2 1027.7 2296.8 1050.3 2278.6 1069.5z" style="fill:#ffa726"></path>
        <path d="M2383.6,1079.1c-1.3,1.4-2.6,2.8-4,4.1c71.3-78,85.6-181.3,31.5-232.7c-54.2-51.4-156.5-31.7-230.8,43.4
				c1.3-1.4,2.6-2.8,3.9-4.2c74.5-78.5,179.6-99.8,234.7-47.5C2474,894.5,2458.1,1000.6,2383.6,1079.1z" style="fill:#f7991c"></path>
      </g>
      <g>
        <path d="M1990.6,945.8c1.9,1,3.9,2,6,3.1l131.4,63.2l53.2,28.4l31.4,16.8c1,0.6,2.1,1.1,3,1.4c1,0.5,1.9,0.9,2.8,1.2
				c16.1,6.5,32.6,4.4,45.8-3.2c1.1-0.5,2.1-1.2,3.1-1.8c3-1.9,6-4.1,8.5-6.8l0.2,0c14.3-14,21-35.4,12.4-57.5
				c-6.7-16.7-18.4-35.3-37.7-55.6c-11.2-11.9-24.9-24.3-41.6-37.3c-1-0.8-2.2-1.8-3.3-2.6c-33.1-25.3-84-52.5-147.2-81.7
				C1987.1,839.5,1951.7,878.8,1990.6,945.8z" style="fill:#f7c19b"></path>
        <path d="M1984.7,943c1.3,0.6,2.7,1.2,4,1.9c2.6,1.3,5.3,2.6,7.8,4l131.5,63.3l53.2,28.4l31.5,16.7
				c0.9,0.5,1.8,1,2.9,1.5c0.9,0.5,1.9,0.9,2.8,1.2c16.1,6.5,32.5,4.4,45.8-3.2c1-0.5,2.1-1.2,3.1-1.8c3-1.9,5.9-4.2,8.5-6.8
				c-12.5,2.6-26.1,1-39-6.3l-45.7-25.6l-52.2-29.3l-125.7-63.3c-2.9-1.7-5.8-3.2-8.8-4.7c-22.2,0.8-28.1,9.1-13.8,26.8
				c-0.6-0.4-1.2-0.6-1.8-0.9C1987.4,944.2,1986,943.6,1984.7,943z" style="fill:#eab896"></path>
      </g>
      <path d="M1137.6,867.6l-8.5,53.4l0.1,0l0-0.1l26.2-6l123.3-28.8l86.3-20.3l29.4-6.9c3.6-0.8,7.2-1.5,10.9-1.9
			c1.2-0.1,2.4-0.2,3.7-0.3c6.2-0.6,12.3-0.5,18.4,0.1c2.7,0.3,5.4,0.7,8.1,1.2c1.3,0.3,2.7,0.6,4,0.9c1.3,0.3,2.7,0.7,4,1.1
			c0.6,0.1,1.1,0.3,1.6,0.5c2,0.5,4,1.2,6,2l0.3,0.2c1.3,0.5,2.5,1,3.8,1.5c1.2,0.5,2.5,1.1,3.8,1.7c3.8,1.9,7.8,3.7,11.7,5.5
			c4,1.8,7.9,3.5,11.8,5.3c7.9,3.4,15.9,6.7,23.9,9.8c8,3.2,16,6.1,24.1,8.9c5.8,2.1,11.7,4,17.5,5.8c10.6,3.4,21.1,6.5,31.7,9.4
			c8.3,2.1,16.6,4.1,24.9,6l0.1,0c8.3,1.9,16.7,3.6,25.1,5.2c8.3,1.6,16.8,3,25.3,4.3c16.9,2.5,33.9,4.4,51,5.7
			c7.2,0.5,14.5,0.9,21.8,1.2c2.6,0.1,5.3,0.2,7.9,0.3c20.1,0.6,40.3,0.3,60.3-0.8c21.4-1.3,42.9-3.5,64.2-6.8
			c5.7-0.9,11.7-1.6,17.5-2c5.8-0.4,11.7-0.6,17.6-0.6c11.8,0.1,23.4,1.1,34.9,3.1c2.9,0.5,5.7,1.1,8.5,1.7c2.9,0.6,5.7,1.2,8.6,1.9
			c2.6,0.7,5.2,1.4,7.8,2.2c0.2,0,0.4,0.1,0.6,0.1c2.8,0.9,5.6,1.9,8.5,2.7c5.3,1.8,10.9,4,16.3,6.4c1.4,0.6,2.7,1.2,4.1,1.7
			c1.4,0.6,2.7,1.2,4.1,1.8c0.6,0.3,1.2,0.6,1.8,0.9l13.8-26.8c-19-9.6-39.3-16.7-60-20.6c-24.1-4.5-48.8-5.4-73.4-2.2
			c-71.9,9.4-144.5,8-215.2-4.1c-70.8-12.1-139.6-34.7-204.4-67.6c-20.9-10.6-44.9-13.7-67.8-8.9l-29.9,6.4l-87.1,18.3L1137.6,867.6
			z" style="fill:#eab896"></path>
      <g>
        <polygon points="1058.4 1063.8 1398.1 993.3 1265.3 482.1 960.3 545.4" style="fill:#f5f5f5"></polygon>
        <polygon points="25 1392 1327.4 1067.8 1165.4 464.1 25 736.4" style="fill:#58595b"></polygon>
      </g>
      <path d="M1151.2 1027.3c3.7 16.4 20 26.7 36.5 23 16.4-3.7 26.7-20 23-36.5-3.7-16.4-20-26.7-36.5-23C1157.8 994.5 1147.5 1010.9 1151.2 1027.3zM1047.6 1051.8c3.7 16.4 20 26.7 36.5 23 16.4-3.7 26.7-20 23-36.5-3.7-16.4-20-26.7-36.5-23C1054.2 1019.1 1043.9 1035.4 1047.6 1051.8z" style="fill:#f5f5f5"></path>
    </g>
  </g>
</svg>
