<svg xmlns="http://www.w3.org/2000/svg" viewBox="0 0 1159 771" id="students-participate-in-school-running-sports-competitions">
  <g>
    <path fill="#eaf4fe" d="M980.92,559.32c-2.25,31.1-9.9,69-25.36,115.23-49.12-1.87-89.4-2.5-117.63-2.72-27.4-.22-37.34,0-145.3.18l-56.94.08c-156.05.24-174.82.47-189.72.38l-6.62-.06c-18.05-.19-49.79-.32-109.43-.19-18-7.86-53.59-26.55-77-65.34a155.73,155.73,0,0,1-18.71-47.56c-14.23-65.47,10.86-138.64,54.54-176,34.83-29.82,55.24-13.56,108.56-48.9,57.17-37.89,59.75-71.52,98.38-107,88.08-80.82,264.67-80.35,313.91-12.65,30.28,41.63-3.94,79.13,33.7,139.4,33.38,53.45,77.41,50,110.22,91.35C970.83,467.35,985.1,501.78,980.92,559.32Z"></path>
  </g>
  <g>
    <path fill="#add4f7" d="M587.06,572l-.28-.24c-7.85,15.23-27.26,23.41-43.65,18.39s-27.88-22.67-25.85-39.69S534.64,519,551.75,518a33.13,33.13,0,0,1,44.08-42.79c-5.22-2.3-.91-26.55.14-30.66a63.14,63.14,0,0,1,15.71-28.42c16.62-16.9,46.27-16.08,66-5.1,7.26-19.79,28.43-33.52,49.46-32.1s40.14,17.89,44.67,38.48c2.29,10.39,1.53,22.27,8.52,30.29,4.51,5.16,12,8.4,13.41,15.1a52,52,0,0,1,75.24,42c19.31-5.64,42,5.35,49.57,24s-1.09,42.34-18.87,51.74-42.24,3.2-53.38-13.55a36.81,36.81,0,0,1-33.2,12c-4.53-.75-9-2.38-13.56-2.31-5.61.08-10.85,2.67-16.35,3.78a32.18,32.18,0,0,1-30.08-10.23c-13.85,12.8-36.22,15.26-52.52,5.78a36.51,36.51,0,0,1-60-3C625.34,584.67,601.94,584.25,587.06,572Z"></path>
    <path fill="#fff" d="M605.25,492.59s-1.94-7,5.74-7.35,2.18,8.07-1.56,9.78S605.25,492.59,605.25,492.59Z"></path>
    <path fill="#fff" d="M606.05,497.76s-6,4.07-8.79-3.1S604.2,490,607,493,606.05,497.76,606.05,497.76Z"></path>
    <path fill="#fff" d="M609.33,496.27s4.8,5.44-1.94,9.12-5.49-6.29-2.87-9.47S609.33,496.27,609.33,496.27Z"></path>
    <path fill="#fff" d="M609.69,493.16s6.27-3.64,8.57,3.69-7.25,4.16-9.85,1S609.69,493.16,609.69,493.16Z"></path>
    <circle cx="608.06" cy="495.24" r="1.52" fill="#0562fe"></circle>
    <path fill="#fff" d="M627.1,430.66s-1.94-7,5.74-7.35,2.18,8.07-1.57,9.78S627.1,430.66,627.1,430.66Z"></path>
    <path fill="#fff" d="M627.9,435.83s-6,4.06-8.8-3.1,6.95-4.64,9.77-1.63S627.9,435.83,627.9,435.83Z"></path>
    <path fill="#fff" d="M631.18,434.34s4.8,5.44-1.95,9.12-5.49-6.3-2.87-9.48S631.18,434.34,631.18,434.34Z"></path>
    <path fill="#fff" d="M631.54,431.23s6.27-3.65,8.56,3.69-7.24,4.16-9.85,1S631.54,431.23,631.54,431.23Z"></path>
    <circle cx="629.91" cy="433.31" r="1.52" fill="#0562fe"></circle>
    <path fill="#fff" d="M723.9,546.18s-1.94-7,5.74-7.35,2.18,8.06-1.57,9.77S723.9,546.18,723.9,546.18Z"></path>
    <path fill="#fff" d="M724.7,551.35s-6,4.06-8.79-3.1,6.94-4.64,9.76-1.63S724.7,551.35,724.7,551.35Z"></path>
    <path fill="#fff" d="M728,549.86s4.8,5.43-2,9.11-5.49-6.29-2.87-9.47S728,549.86,728,549.86Z"></path>
    <path fill="#fff" d="M728.34,546.75s6.27-3.65,8.56,3.69-7.24,4.15-9.85,1S728.34,546.75,728.34,546.75Z"></path>
    <circle cx="726.71" cy="548.83" r="1.52" fill="#0562fe"></circle>
    <path fill="#fff" d="M646.62,536.05s-2.34-8.46,6.94-8.89,2.64,9.75-1.89,11.82S646.62,536.05,646.62,536.05Z"></path>
    <path fill="#fff" d="M647.59,542.3s-7.27,4.92-10.64-3.75,8.4-5.61,11.81-2S647.59,542.3,647.59,542.3Z"></path>
    <path fill="#fff" d="M651.56,540.49s5.81,6.58-2.36,11-6.64-7.61-3.47-11.45S651.56,540.49,651.56,540.49Z"></path>
    <path fill="#fff" d="M652,536.74s7.59-4.42,10.36,4.46-8.76,5-11.91,1.17S652,536.74,652,536.74Z"></path>
    <circle cx="650.02" cy="539.25" r="1.84" fill="#0562fe"></circle>
    <path fill="#fff" d="M875.11,539.91s-2.35-8.45,6.94-8.88,2.64,9.75-1.89,11.82S875.11,539.91,875.11,539.91Z"></path>
    <path fill="#fff" d="M876.07,546.17s-7.27,4.91-10.63-3.75,8.4-5.61,11.81-2S876.07,546.17,876.07,546.17Z"></path>
    <path fill="#fff" d="M880,544.36s5.81,6.58-2.35,11-6.64-7.61-3.47-11.46S880,544.36,880,544.36Z"></path>
    <path fill="#fff" d="M880.48,540.61s7.59-4.42,10.36,4.45-8.76,5-11.92,1.18S880.48,540.61,880.48,540.61Z"></path>
    <circle cx="878.51" cy="543.12" r="1.84" fill="#0562fe"></circle>
    <path fill="#fff" d="M731.21,484.37s-2.35-8.46,6.94-8.89,2.64,9.75-1.89,11.82S731.21,484.37,731.21,484.37Z"></path>
    <path fill="#fff" d="M732.17,490.62s-7.27,4.92-10.63-3.75,8.4-5.61,11.81-2S732.17,490.62,732.17,490.62Z"></path>
    <path fill="#fff" d="M736.14,488.82s5.81,6.57-2.35,11-6.64-7.62-3.47-11.46S736.14,488.82,736.14,488.82Z"></path>
    <path fill="#fff" d="M736.58,485.06s7.59-4.42,10.36,4.46-8.76,5-11.92,1.17S736.58,485.06,736.58,485.06Z"></path>
    <circle cx="734.61" cy="487.57" r="1.84" fill="#0562fe"></circle>
    <path fill="#fff" d="M795.61,535.47s-2.34-8.45,6.94-8.89,2.65,9.76-1.89,11.83S795.61,535.47,795.61,535.47Z"></path>
    <path fill="#fff" d="M796.58,541.73s-7.27,4.91-10.64-3.75,8.41-5.61,11.81-2S796.58,541.73,796.58,541.73Z"></path>
    <path fill="#fff" d="M800.55,539.92s5.81,6.58-2.35,11-6.65-7.61-3.48-11.46S800.55,539.92,800.55,539.92Z"></path>
    <path fill="#fff" d="M801,536.17s7.58-4.42,10.35,4.45-8.76,5-11.91,1.18S801,536.17,801,536.17Z"></path>
    <circle cx="799.01" cy="538.68" r="1.84" fill="#0562fe"></circle>
    <path fill="#fff" d="M704.68,409.23s1.37-4.93-4-5.18C692.9,403.75,703.75,415.81,704.68,409.23Z"></path>
    <path fill="#fff" d="M704.12,412.87s4.24,2.86,6.2-2.18C713.07,403.44,698.17,409.89,704.12,412.87Z"></path>
    <path fill="#fff" d="M701.81,411.82s-3.39,3.83,1.37,6.43C710,421.9,705.53,406.31,701.81,411.82Z"></path>
    <path fill="#fff" d="M701.55,409.63s-4.42-2.57-6,2.6C693.26,419.64,707.68,412.21,701.55,409.63Z"></path>
    <path fill="#0562fe" d="M703.78,411.09a1.08,1.08,0,0,1-2.15,0A1.08,1.08,0,0,1,703.78,411.09Z"></path>
    <path fill="#fff" d="M747.65,437.19s1.36-4.92-4-5.18C735.86,431.71,746.71,443.78,747.65,437.19Z"></path>
    <path fill="#fff" d="M747.08,440.84s4.24,2.86,6.2-2.19C756,431.41,741.14,437.85,747.08,440.84Z"></path>
    <path fill="#fff" d="M744.77,439.79s-3.38,3.83,1.37,6.42C753,449.87,748.49,434.27,744.77,439.79Z"></path>
    <path fill="#fff" d="M744.52,437.6s-4.42-2.58-6,2.59C736.23,447.61,750.65,440.17,744.52,437.6Z"></path>
    <path fill="#0562fe" d="M746.74,439.06a1.08,1.08,0,0,1-2.15,0A1.08,1.08,0,0,1,746.74,439.06Z"></path>
    <path fill="#fff" d="M674.21,468.3s1.37-4.93-4-5.18C662.42,462.82,673.27,474.88,674.21,468.3Z"></path>
    <path fill="#fff" d="M673.65,471.94s4.23,2.86,6.19-2.18C682.59,462.51,667.7,469,673.65,471.94Z"></path>
    <path fill="#fff" d="M671.33,470.89s-3.38,3.83,1.37,6.43C679.53,481,675.06,465.38,671.33,470.89Z"></path>
    <path fill="#fff" d="M671.08,468.7s-4.42-2.57-6,2.6C662.79,478.71,677.21,471.28,671.08,468.7Z"></path>
    <path fill="#0562fe" d="M673.3,470.16a1.08,1.08,0,0,1-2.15,0A1.08,1.08,0,0,1,673.3,470.16Z"></path>
    <path fill="#fff" d="M808,487.83s1.36-4.93-4.05-5.18C796.18,482.35,807,494.41,808,487.83Z"></path>
    <path fill="#fff" d="M807.4,491.47s4.24,2.87,6.2-2.18C816.35,482,801.46,488.49,807.4,491.47Z"></path>
    <path fill="#fff" d="M805.09,490.42s-3.38,3.83,1.37,6.43C813.29,500.5,808.81,484.91,805.09,490.42Z"></path>
    <path fill="#fff" d="M804.84,488.23s-4.42-2.57-6,2.6C796.54,498.24,811,490.81,804.84,488.23Z"></path>
    <path fill="#0562fe" d="M807.06,489.69a1.08,1.08,0,0,1-2.15,0A1.08,1.08,0,0,1,807.06,489.69Z"></path>
    <path fill="#fff" d="M562.12,539.72s1.37-4.93-4-5.18C550.33,534.24,561.18,546.3,562.12,539.72Z"></path>
    <path fill="#fff" d="M561.56,543.36s4.23,2.87,6.19-2.18C570.5,533.93,555.61,540.38,561.56,543.36Z"></path>
    <path fill="#fff" d="M559.24,542.31s-3.38,3.83,1.37,6.43C567.44,552.39,563,536.8,559.24,542.31Z"></path>
    <path fill="#fff" d="M559,540.12s-4.42-2.57-6,2.6C550.7,550.13,565.12,542.7,559,540.12Z"></path>
    <path fill="#0562fe" d="M561.21,541.58a1.08,1.08,0,0,1-2.15,0A1.08,1.08,0,0,1,561.21,541.58Z"></path>
  </g>
  <g>
    <path fill="#add4f7" d="M293.77,504c2.37,1.38,25.43-51.78,55.12-50.93,2.48.08,11.92.35,15.3,6.13,7.08,12.09-16.32,41.5-16.32,41.5a70.3,70.3,0,0,1,19.61-12.49c16-6.72,40-10.08,44.68-1.46,4.4,8.13-10,23.95-13.77,28,23.08-1,39.29,4.14,40.31,10.83.91,6-10.14,13.89-24.72,19.75a83.05,83.05,0,0,1,19.21-.83,86.41,86.41,0,0,1,41.23,14.41h-241s-39.37-63.46,18.65-40.23c-6.34-28.15,2-53.3,19.24-62.5,11.13-6,28.64-6.68,34.52,1.55C315.27,470.87,291.79,502.83,293.77,504Z"></path>
    <path fill="#add4f7" d="M329,521.32l-2-.29a272.52,272.52,0,0,1,15.26-53.92c10.46-26.16,29.61-60.19,61.35-73.78l.79,1.83C344.81,420.7,329.18,520.32,329,521.32Z"></path>
    <ellipse cx="404.85" cy="392.64" fill="#a7d4fa" rx="5.5" ry="12.86" transform="rotate(-38.27 404.797 392.61)"></ellipse>
    <path fill="#0562fe" d="M408.25,397.53c-.89.6-3.4-1.52-4.79-3.14-1.8-2.12-3.42-5.43-2.57-6.2s3.88.82,5.68,3.1S409.15,396.93,408.25,397.53Z"></path>
    <path fill="#add4f7" d="M349.83,498.27l-2-.13c0-.55,4-55.19,39.88-69.12l.73,1.86C353.79,444.35,349.86,497.74,349.83,498.27Z"></path>
    <ellipse cx="386.88" cy="431.31" fill="#a7d4fa" rx="4.56" ry="10.67" transform="rotate(-24.01 386.8 431.235)"></ellipse>
    <path fill="#0562fe" d="M388.61,435.94c-.84.3-2.42-1.92-3.2-3.51-1-2.07-1.65-5.06-.81-5.51s2.95,1.46,3.93,3.65S389.46,435.63,388.61,435.94Z"></path>
    <path fill="#add4f7" d="M340.62,500.54a158.39,158.39,0,0,1-8.25-35.74c-2.72-25.91,3-46,16.63-58l1.33,1.5c-31.76,28.13-8.08,90.92-7.84,91.55Z"></path>
    <ellipse cx="349.66" cy="407.52" fill="#a7d4fa" rx="4.56" ry="10.67" transform="rotate(-46.75 349.633 407.499)"></ellipse>
    <path fill="#0562fe" d="M353.05,411.12c-.66.6-3-.83-4.31-2-1.74-1.51-3.47-4-2.88-4.76s3.29.2,5,1.84S353.71,410.51,353.05,411.12Z"></path>
    <path fill="#fff" d="M369.09,522.36s1.29-4.66-3.83-4.9-1.45,5.38,1,6.52S369.09,522.36,369.09,522.36Z"></path>
    <path fill="#fff" d="M368.55,525.8s4,2.71,5.86-2.06-4.63-3.09-6.5-1.09S368.55,525.8,368.55,525.8Z"></path>
    <path fill="#fff" d="M366.37,524.81s-3.2,3.62,1.29,6.07,3.66-4.19,1.92-6.31S366.37,524.81,366.37,524.81Z"></path>
    <path fill="#fff" d="M366.13,522.74s-4.18-2.43-5.71,2.46,4.83,2.77,6.56.64S366.13,522.74,366.13,522.74Z"></path>
    <circle cx="367.21" cy="524.12" r="1.02" fill="#0562fe"></circle>
    <path fill="#fff" d="M397.19,491.86s1.29-4.65-3.82-4.89-1.46,5.37,1,6.51S397.19,491.86,397.19,491.86Z"></path>
    <path fill="#fff" d="M396.66,495.31s4,2.7,5.86-2.07-4.63-3.09-6.51-1.08S396.66,495.31,396.66,495.31Z"></path>
    <path fill="#fff" d="M394.47,494.31s-3.2,3.63,1.3,6.08,3.66-4.2,1.91-6.31S394.47,494.31,394.47,494.31Z"></path>
    <path fill="#fff" d="M394.23,492.24s-4.18-2.43-5.71,2.46,4.83,2.77,6.57.64S394.23,492.24,394.23,492.24Z"></path>
    <circle cx="395.32" cy="493.63" r="1.02" fill="#0562fe"></circle>
    <path fill="#fff" d="M345.68,467.4s1.29-4.66-3.82-4.9-1.46,5.37,1,6.51S345.68,467.4,345.68,467.4Z"></path>
    <path fill="#fff" d="M345.15,470.84s4,2.71,5.86-2.06-4.63-3.09-6.51-1.09S345.15,470.84,345.15,470.84Z"></path>
    <path fill="#fff" d="M343,469.85s-3.19,3.62,1.3,6.07,3.66-4.19,1.91-6.31S343,469.85,343,469.85Z"></path>
    <path fill="#fff" d="M342.72,467.78s-4.17-2.43-5.7,2.45,4.82,2.77,6.56.65S342.72,467.78,342.72,467.78Z"></path>
    <circle cx="343.81" cy="469.16" r="1.02" fill="#0562fe"></circle>
    <path fill="#fff" d="M255.35,538.31s1.82-6.55-5.37-6.88-2,7.55,1.46,9.15S255.35,538.31,255.35,538.31Z"></path>
    <path fill="#fff" d="M254.6,543.15s5.63,3.8,8.23-2.9-6.5-4.34-9.13-1.53S254.6,543.15,254.6,543.15Z"></path>
    <path fill="#fff" d="M251.53,541.75s-4.49,5.09,1.82,8.54,5.14-5.89,2.69-8.87S251.53,541.75,251.53,541.75Z"></path>
    <path fill="#fff" d="M251.19,538.84s-5.87-3.41-8,3.45,6.78,3.9,9.22.91S251.19,538.84,251.19,538.84Z"></path>
    <circle cx="252.72" cy="540.79" r="1.43" fill="#0562fe"></circle>
    <path fill="#fff" d="M325.57,501.9a2.62,2.62,0,0,0-2.69-3.45c-3.61-.17-1,3.78.73,4.59S325.57,501.9,325.57,501.9Z"></path>
    <path fill="#fff" d="M325.2,504.33a2.63,2.63,0,0,0,4.13-1.46c1.3-3.36-3.26-2.18-4.59-.77A1.31,1.31,0,0,0,325.2,504.33Z"></path>
    <path fill="#fff" d="M323.66,503.62a2.63,2.63,0,0,0,.91,4.29c3.17,1.72,2.58-3,1.35-4.45A1.3,1.3,0,0,0,323.66,503.62Z"></path>
    <path fill="#fff" d="M323.49,502.17a2.62,2.62,0,0,0-4,1.73c-1.08,3.44,3.4,2,4.62.45A1.29,1.29,0,0,0,323.49,502.17Z"></path>
    <circle cx="324.25" cy="503.14" r=".72" fill="#0562fe"></circle>
    <path fill="#fff" d="M290.86,531.57a2.62,2.62,0,0,0-2.7-3.45c-3.6-.17-1,3.78.74,4.59S290.86,531.57,290.86,531.57Z"></path>
    <path fill="#fff" d="M290.48,534a2.63,2.63,0,0,0,4.13-1.46c1.31-3.36-3.26-2.18-4.58-.77A1.31,1.31,0,0,0,290.48,534Z"></path>
    <path fill="#fff" d="M288.94,533.29a2.63,2.63,0,0,0,.92,4.29c3.16,1.73,2.58-3,1.34-4.45A1.3,1.3,0,0,0,288.94,533.29Z"></path>
    <path fill="#fff" d="M288.77,531.84a2.62,2.62,0,0,0-4,1.73c-1.08,3.44,3.4,1.95,4.63.45A1.3,1.3,0,0,0,288.77,531.84Z"></path>
    <circle cx="289.54" cy="532.81" r=".72" fill="#0562fe"></circle>
    <path fill="#fff" d="M391.93,547.44a2.62,2.62,0,0,0-2.69-3.45c-3.61-.17-1,3.78.73,4.59S391.93,547.44,391.93,547.44Z"></path>
    <path fill="#fff" d="M391.56,549.87a2.62,2.62,0,0,0,4.13-1.46c1.3-3.36-3.26-2.18-4.59-.76A1.3,1.3,0,0,0,391.56,549.87Z"></path>
    <path fill="#fff" d="M390,549.17a2.62,2.62,0,0,0,.91,4.28c3.17,1.73,2.58-3,1.35-4.45A1.3,1.3,0,0,0,390,549.17Z"></path>
    <path fill="#fff" d="M389.85,547.71a2.62,2.62,0,0,0-4,1.73c-1.08,3.44,3.4,1.95,4.62.45S389.85,547.71,389.85,547.71Z"></path>
    <circle cx="390.61" cy="548.68" r=".72" fill="#0562fe"></circle>
    <path fill="#fff" d="M285.73,467.5a2.62,2.62,0,0,0-2.7-3.45c-3.6-.16-1,3.79.74,4.59S285.73,467.5,285.73,467.5Z"></path>
    <path fill="#fff" d="M285.35,469.93a2.62,2.62,0,0,0,4.13-1.45c1.31-3.37-3.26-2.18-4.58-.77A1.3,1.3,0,0,0,285.35,469.93Z"></path>
    <path fill="#fff" d="M283.81,469.23a2.62,2.62,0,0,0,.92,4.28c3.16,1.73,2.58-2.95,1.34-4.45A1.3,1.3,0,0,0,283.81,469.23Z"></path>
    <path fill="#fff" d="M283.64,467.77a2.62,2.62,0,0,0-4,1.73c-1.08,3.45,3.4,2,4.63.46S283.64,467.77,283.64,467.77Z"></path>
    <circle cx="284.41" cy="468.75" r=".72" fill="#0562fe"></circle>
    <path fill="#fff" d="M275.63,498.58s1.47-5.3-4.34-5.57-1.66,6.11,1.18,7.41S275.63,498.58,275.63,498.58Z"></path>
    <path fill="#fff" d="M275,502.49s4.55,3.08,6.66-2.34-5.26-3.52-7.4-1.24S275,502.49,275,502.49Z"></path>
    <path fill="#fff" d="M272.54,501.36s-3.63,4.12,1.48,6.91,4.16-4.77,2.17-7.18S272.54,501.36,272.54,501.36Z"></path>
    <path fill="#fff" d="M272.27,499s-4.75-2.76-6.49,2.79,5.49,3.15,7.46.74S272.27,499,272.27,499Z"></path>
    <circle cx="273.51" cy="500.58" r="1.15" fill="#0562fe"></circle>
    <path fill="#fff" d="M325.4,538.61s1.47-5.3-4.34-5.57-1.66,6.11,1.18,7.4S325.4,538.61,325.4,538.61Z"></path>
    <path fill="#fff" d="M324.8,542.52s4.55,3.08,6.66-2.35-5.26-3.51-7.4-1.23S324.8,542.52,324.8,542.52Z"></path>
    <path fill="#fff" d="M322.31,541.39s-3.63,4.12,1.48,6.91,4.16-4.77,2.17-7.18S322.31,541.39,322.31,541.39Z"></path>
    <path fill="#fff" d="M322,539s-4.75-2.76-6.48,2.79,5.48,3.15,7.46.73S322,539,322,539Z"></path>
    <circle cx="323.28" cy="540.61" r="1.15" fill="#0562fe"></circle>
  </g>
  <g>
    <path fill="#6fafef" d="M980.75,558.81c-2.25,31.1-9.9,69-25.36,115.23-49.12-1.87-89.4-2.5-117.63-2.72-27.4-.22-37.34,0-145.3.18l-49.89.07h-7.05l-35.61.06c-123.48.22-140.43.4-154.11.32l-6.62-.06c-18.05-.19-49.79-.32-109.43-.19a182.77,182.77,0,0,1-43.54-26.66A155.22,155.22,0,0,1,258.35,615q-2.9-4.12-5.6-8.59A155.73,155.73,0,0,1,234,558.81Z"></path>
    <path fill="#fff" d="M243 588.35H948.67c9.54 0 19.08.14 28.61 0h1.25a1.5 1.5 0 0 0 0-3H272.9c-9.53 0-19.08-.14-28.61 0H243a1.5 1.5 0 0 0 0 3ZM258 620H942.33c9.24 0 18.49.14 27.74 0h1.21a1.5 1.5 0 0 0 0-3H287c-9.24 0-18.5-.14-27.74 0H258a1.5 1.5 0 0 0 0 3ZM288.66 649.63H935.09c8.73 0 17.47.13 26.2 0h1.15a1.5 1.5 0 0 0 0-3H316c-8.74 0-17.48-.14-26.21 0h-1.14a1.5 1.5 0 0 0 0 3Z"></path>
    <path fill="#fff" d="M908,558.81,642.57,671.57h-7.05l-35.61.06L865.06,558.81Z"></path>
  </g>
  <g>
    <path fill="#f5ac0e" d="M537.27,342.12c-1.32-1.16-3.33-1.4-5.13-1.54l-44.62-3.33a3.47,3.47,0,0,1-2-.54,3.51,3.51,0,0,1-1-1.82l-9.37-29.84-6.63,65.12c0-.14,33.87-.86,36.95-.94l19.11-.49c3.46-.08,8.83,1.42,11.73-1.11,1.94-1.69,1.47-4.48,1.58-6.81.22-4.4.5-8.8.74-13.2.1-1.7.15-3.56-.87-4.93A4.11,4.11,0,0,0,537.27,342.12Z"></path>
    <path fill="#fdc12e" d="M374.58,384.61c.29,6.56.66,13.14.88,19.71A29.32,29.32,0,0,0,398,431.83l33.22,7.88c9.75,2.31,16.56,1.08,23.58-6.27a39.32,39.32,0,0,0,3.56-4.29,48.49,48.49,0,0,0,6.14-11.66h0c0-.15.11-.29.16-.44a58.38,58.38,0,0,0,1.87-6.17c2.95-11.93,2.71-24.38,3.21-36.67,1.14-27.78,6.18-55.24,9.59-82.83.8-6.44,1.22-13.82-3.26-18.52a21.45,21.45,0,0,0-7-4.36q-11.37-5.17-23.14-9.38a29.36,29.36,0,0,0-36,14.26c-9.8,19-24,36.3-30.68,56.71C373.55,347.62,373.75,366,374.58,384.61Z"></path>
    <path fill="#b05f4a" d="M536.45,346.68c21.53-4.75,28.28-4.57,28.88-2.67l-1,5.09s5.69,1.06,3.76,4.9l-1.93,3.83a4,4,0,0,1,.29,1.81,4.75,4.75,0,0,1-2.54,3.51,10,10,0,0,1-.42,3.45,10.43,10.43,0,0,1-2.11,2.22c-3.47,2.68-8.11,2.05-17.24.67l-11.19-1.71a11.11,11.11,0,0,1-6.26-12.18A10.57,10.57,0,0,1,536.45,346.68Z"></path>
    <path fill="#b05f4a" d="M529.56,350.66s4-7.35,10.19-8.33,9.46-8.06,11.65-6.62a2.8,2.8,0,0,1,.91,1.06c1.54,2.79-1.1,7-2,8.39-1.3,2.06-5.1,8.11-12,8.41A13.83,13.83,0,0,1,529.56,350.66Z"></path>
    <path fill="#ae604a" d="M460.75,283.35c-13.14.89-16.43-13.16-16.43-13.16L449.7,250l2.27-8.51,17.66,7.67-1.56,18.57-.09,1S473.89,282.44,460.75,283.35Z"></path>
    <path fill="#9c3b26" d="M468.07,267.76c-9.14-2.6-15.19-11.57-18.37-17.73l2.27-8.51,17.66,7.67Z"></path>
    <path fill="#ae604a" d="M480.91,257.08c-4.07,2.27-8.23,1.86-11.27,1.55-8.36-.84-17.66-6.17-20.06-14.11-.41-1.35-.24-1.5-.37-9.2-.22-12.79-.71-13.13-.52-16.12.48-7.28,4.45-20.78,15.38-24.54,7.5-2.57,15.83.27,21.13,4.58a23.43,23.43,0,0,1,5.2,6,27.12,27.12,0,0,1,1.68,3.26c-.22,1.29-.5,3.29-.72,5.75,0,.3-.06.6-.07.89a93.16,93.16,0,0,0,.13,14.29C491.77,236.7,490.21,251.89,480.91,257.08Z"></path>
    <path fill="#9c3b26" d="M491.29 215.13a33.33 33.33 0 0 1-9.5 2.45c-10.11 1-13.91-3.45-18.73-.43-1.45.91-3.95 3.36-9 8.26-1.16 1.13-1.45 1.37-1.73 1.35-3.52-.27-4.58-19.87 11.34-25.28a29.5 29.5 0 0 1 26.69 3.75 27.12 27.12 0 0 1 1.68 3.26c-.22 1.29-.5 3.29-.72 5.75C491.33 214.54 491.3 214.84 491.29 215.13ZM479.77 238.13l-.37-.93c1.09-.43.84-4.92 0-8.83l1-.22C480.69 229.65 482.2 237.17 479.77 238.13Z"></path>
    <path fill="#fff" d="M467.68,239.42a8,8,0,0,0,3.28,3.82,8.77,8.77,0,0,0,9.13-.58Z"></path>
    <path fill="#421f19" d="M489.09 225.37a5.61 5.61 0 0 0-2.78-2.28 6 6 0 0 0-6.24 1.75l-.71-.7a7 7 0 0 1 7.28-2 6.62 6.62 0 0 1 3.28 2.68ZM476.28 225.68a6.23 6.23 0 0 0-3.12-2.28 7.33 7.33 0 0 0-7.06 1.78l-.68-.74a8.34 8.34 0 0 1 8-2 7.24 7.24 0 0 1 3.63 2.65Z"></path>
    <ellipse cx="471.85" cy="229.11" rx="2.24" ry="1.36" transform="rotate(-79.86 471.817 229.12)"></ellipse>
    <ellipse cx="485.43" cy="229.24" rx="2.24" ry="1.36" transform="matrix(.18 -.98 .98 .18 174.27 666.71)"></ellipse>
    <path fill="#421f19" d="M491.2,213.93l6.82,8.14a5.75,5.75,0,0,0,2.91,2.24c1.22.27,2.74-.68,2.53-1.91a3,3,0,0,0-.71-1.25l-2.9-3.55c1.67.22,3.19,1.13,4.84,1.47,1.27.27,3.38.1,4.07-1.23.85-1.63-1-3-2.28-3.75A97,97,0,0,0,496.27,209c4.93-1,10.72.24,14.55-3a2.86,2.86,0,0,0,1.05-1.54c.29-1.53-1.42-2.62-2.87-3.16a50.06,50.06,0,0,0-9.62-2.58,53.53,53.53,0,0,0,10.4-4.2c-.14-1-1.27-1.6-2.25-2-5.92-2.21-12.21-3.91-18.49-3.29-7.52.74-14.38,4.74-21.86,5.84a12.36,12.36,0,0,0,2.57-7.24,20.17,20.17,0,0,0-20.34,16l-1.72-1.87c-1.25.65-.94,2.47-1.05,3.88-.18,2.23-1.81,4-3,5.9A18.45,18.45,0,0,0,440.66,223c.17,2.3,1.29,5,3.59,5.18.12,4.35.85,9.35,4.54,11.67,1.21.76,3.07,1,3.86-.2a3.46,3.46,0,0,0,.32-2.21c-.45-5.38-1.28-10.91.22-16.1.78-2.67,2.6-5.46,5.37-5.72a11.66,11.66,0,0,0,1.78-.14,1.39,1.39,0,0,0,1.13-1.23,10.09,10.09,0,0,0,4.63.19,4.31,4.31,0,0,0,3.25-3,65.31,65.31,0,0,1,14.12,4,10.58,10.58,0,0,0,4.46,1.18C489.48,216.57,491.11,215.48,491.2,213.93Z"></path>
    <path fill="#ae604a" d="M456.6,229.22s-4.39-11.73-10.17-7.07-2.47,16.37,6,16.95S456.6,229.22,456.6,229.22Z"></path>
    <path fill="#421f19" d="M467.22,195.1c.46-1,.92-1.93,1.39-2.89a3.61,3.61,0,0,1,.9-1.33,3.75,3.75,0,0,1,1.5-.61c12.63-2.93,26.56-2,38.42,3.39-1.28-.57-4.8.4-6.32.52l-6.23.49-7.64.6-15,6-10,.2C465.21,199.36,466.21,197.22,467.22,195.1Z"></path>
    <path fill="#fdc12e" d="M398,373.62c-.08.14-.17.26-.26.39-1.18,1.56-3.36,1.92-5.31,2.16l-25.48,3.12-19-58.75c-1.57-4.85-3.34-10.47-1.2-15.43,1.76-4.1,5.93-6.71,9.49-9.15C368.12,287.8,380.54,280.39,393,273c8.44-5,16.93-10,26.1-13.56,3.7-1.42,7.71-2.6,11.59-1.8a16,16,0,0,1,7.61,4.34,18.59,18.59,0,0,1,6,12.3c.21,5.06-2.23,10-5.62,13.76s-7.71,6.66-12,9.48l-36.16,24a8.2,8.2,0,0,0-2.83,2.62c-1,1.8-.48,4,.05,6l10.15,37.49C398.47,369.63,399,371.9,398,373.62Z"></path>
    <path fill="#f5ac0e" d="M344.69 306.24c1.76-4.1 5.93-6.71 9.49-9.15 11.92-8.16 24.34-15.57 36.77-22.94 8.44-5 16.93-10 26.1-13.56 3.7-1.42 7.71-2.6 11.59-1.8a13.3 13.3 0 0 1 3.47 1.29l-1.37.51c-9.17 3.53-17.66 8.55-26.1 13.56-12.43 7.37-24.85 14.78-36.77 22.94-3.56 2.44-7.73 5.05-9.49 9.15-2.14 5-.37 10.58 1.2 15.43l18.47 57.13-13.17 1.62-19-58.75C344.32 316.82 342.55 311.2 344.69 306.24ZM374.58 384.61c.29 6.56.66 13.14.88 19.71a29.26 29.26 0 0 0 13 23.37l45.29 1.46h26.86l4.5-11.63-.65 0h0C457.68 417.12 400.51 413.19 374.58 384.61Z"></path>
    <path fill="#33354a" d="M525 644.41c-1.64 4.85 5.7 15.13 7.47 18.83l61.18-16.12c.32-2.5-2.09-4.66-4.57-5.1s-5 .31-7.45.85a48.18 48.18 0 0 1-30.43-4c-2.15-1.11-4.33-2.43-6.76-2.5a13.66 13.66 0 0 0-5.17 1.24l-12.1 4.62A3.42 3.42 0 0 0 525 644.41ZM280.42 457.63c-3-4.13-15.66-4-19.71-4.68l-21.87 59.37c1.86 1.69 5 1 6.79-.82s2.61-4.27 3.58-6.6a48.24 48.24 0 0 1 20.7-22.64c2.15-1.13 4.49-2.16 5.93-4.1a14 14 0 0 0 2-5L281 460.65A3.43 3.43 0 0 0 280.42 457.63Z"></path>
    <path fill="#232a57" d="M465.17,417.59c12.19,18.6,24.42,37.26,34.16,57.26,22.58,46.35,31.11,98.29,50.77,145.95,1.15,2.79,2.37,5.72,2,8.72-1,9.84-19.56,18.38-27.63,12.72-2.51-1.76-3.91-4.65-5.21-7.42C508.57,612,497.84,589.2,487.76,566.1c-9-20.63-17.53-41.58-29.09-60.9A220.23,220.23,0,0,0,431,468.4c-1.66-1.79-3.42-3.68-3.91-6.07a13.16,13.16,0,0,1,.43-5.46l6.86-30.59a106.39,106.39,0,0,0,30.71-8.75Z"></path>
    <path fill="#4144b6" d="M426.71,462.23l-7.52,33c-2.14,9.41-4.48,19.29-10.18,27.26-3.3,4.62-6.45,7.21-12.28,7.53-6.05.34-12-1.63-17.68-3.58q-51.72-17.79-102.15-39.06a5.76,5.76,0,0,1-3.18-2.33,5.53,5.53,0,0,1-.24-3.18,86.67,86.67,0,0,1,5.38-21.19,4.08,4.08,0,0,1,1.57-2.25,4.21,4.21,0,0,1,2.89-.09l92.3,19.24-1.54-65.42,60.79,14.29Z"></path>
    <path fill="#f5ac0e" d="M391.85,376.22,387.72,360l-6.58-25.92-1.53-6-.69,1.7,16.56-11.55L421.66,300l6.08-4.24c1.57-1.1.08-3.7-1.51-2.59l-16.56,11.54-26.18,18.25-6.08,4.23a1.58,1.58,0,0,0-.69,1.7l4.13,16.24L387.43,371l1.52,6c.48,1.87,3.37,1.08,2.9-.8Z"></path>
    <path fill="#b05f4a" d="M387.39,379.12c6.7,21,7.15,27.74,5.31,28.51l-5.16-.53s-.53,5.75-4.53,4.19l-4-1.57a4,4,0,0,1-1.78.46,4.74,4.74,0,0,1-3.73-2.22,9.83,9.83,0,0,1-3.47-.09,10.49,10.49,0,0,1-2.4-1.9c-3-3.21-2.79-7.88-2.25-17.1.33-5.73.58-9.94.66-11.31a11.11,11.11,0,0,1,11.55-7.35A10.56,10.56,0,0,1,387.39,379.12Z"></path>
    <path fill="#b05f4a" d="M382.79,372.63S390.48,376,392,382s8.9,8.68,7.66,11a2.78,2.78,0,0,1-1,1c-2.63,1.79-7.06-.45-8.53-1.2-2.18-1.11-8.54-4.34-9.48-11.18A13.77,13.77,0,0,1,382.79,372.63Z"></path>
    <path fill="red" d="M422.48,335.11a1.82,1.82,0,0,0,.8-.34L435,327.56l-5.68,33.36-4.64.22a2.62,2.62,0,0,0-1.39.32,2.18,2.18,0,0,0-.76,1.07c-1.31,3.36.33,6.71,4,6.81l16.66.45a2.13,2.13,0,0,0,1.43-.31,2.1,2.1,0,0,0,.59-1.38,9.47,9.47,0,0,0,.06-4,3.22,3.22,0,0,0-2.8-2.5c-.71,0-1.53.28-2.07-.19l6.3-43.82a2.36,2.36,0,0,0-.25-1.89,2.43,2.43,0,0,0-1.12-.62c-1.24-.4-2.51-.75-3.78-1a5,5,0,0,0-2.4-.15,5.48,5.48,0,0,0-2.26,1.5l-15.79,14.88a3.24,3.24,0,0,0-1.27,2c0,1,.89,1.82,1.72,2.44a1.64,1.64,0,0,0,.81.38Z"></path>
    <path fill="#8a9f03" d="M760.29,381.49l9-9.26L747.2,345.36l-2.71.66-12.29,3.27-3.42,9.3Z"></path>
    <path fill="#232a57" d="M750.87,297.64a49.86,49.86,0,0,0,3.41-8.18c3.93-11.35,8-23.22,7.34-35.41-.62-10.8-5.13-23.14-10.2-32.62a19.47,19.47,0,0,0-5.15-6.64c-3.36-2.49-7.82-2.92-12-2.64-7.57.53-14.84,3.11-21.77,6.2-4.16,1.86-8.4,4.05-11.06,7.76-2.12,2.95-3,6.59-3.61,10.17-2.22,13.63-.58,28.3-6.9,40.56-2.24,4.35-5.46,8.33-6.42,13.13-1.07,5.41,1,11,3.73,15.75,1.74,3,3.89,5.88,6.92,7.52,3.27,1.78,7.18,1.89,10.9,1.73a93.16,93.16,0,0,0,31.19-6.81c4.19-1.71,8.38-3.82,11.34-7.25A19.83,19.83,0,0,0,750.87,297.64Z"></path>
    <path fill="#33354a" d="M803.27 618.87c-1 5.25 6.21 15.22 8.06 18.91l51.15-23.31a4.92 4.92 0 0 0-4.37-4.85c-2.17-.21-4.26.85-6.33 1.68a34.72 34.72 0 0 1-26.48-.95c-1.94-.94-3.93-2.1-6-1.91a10.61 10.61 0 0 0-4.34 1.84l-10 6.1A3.58 3.58 0 0 0 803.27 618.87ZM577 449.39c-3-4-13.81-2.54-17.34-2.82L546 511c1.75 1.57 4.39.47 5.77-1.58s1.87-4.74 2.5-7.27c2.41-9.75 8.68-20.13 15.82-25.86 1.75-1.4 3.67-2.72 4.74-4.91a16.73 16.73 0 0 0 1.25-5.38l1.62-13.46A4.14 4.14 0 0 0 577 449.39Z"></path>
    <path fill="#232a57" d="M732.23,388c12.08,18.16,24.19,36.39,34.29,56.26,23.42,46.08,35.25,99.48,56.26,147.24,1.24,2.8,2.53,5.74,2.52,8.91,0,10.39-15.21,21.27-22.64,16.2-2.3-1.57-3.76-4.44-5.12-7.2-11.19-22.71-22.39-45.43-33-68.52-9.52-20.63-18.66-41.63-30.26-60.61a221.37,221.37,0,0,0-26.92-35.56c-1.58-1.69-3.26-3.49-3.89-5.93a16.86,16.86,0,0,1-.1-5.76l3.24-32.7A83,83,0,0,0,732.18,388Z"></path>
    <path fill="#4144b6" d="M703.05,438.77,699.45,474c-1,10.06-2.18,20.64-6.38,29.58-2.44,5.17-4.92,8.22-9.9,9.17-5.17,1-10.47-.44-15.5-1.88q-46-13.15-91.13-30.07a4.88,4.88,0,0,1-2.93-2.1,7.08,7.08,0,0,1-.48-3.3,110.66,110.66,0,0,1,2.78-22.72,4.65,4.65,0,0,1,1.15-2.52,3.07,3.07,0,0,1,2.49-.4l80.94,10.38-7-68.23L707,400.47Z"></path>
    <path fill="#fcb7af" d="M772.29,371.36c16,7.91,20.21,11.44,19.62,12.94L788.7,387s3,3.55-.11,5l-3.16,1.44a3.4,3.4,0,0,1-.73,1.3,3.86,3.86,0,0,1-3.4.93,7.68,7.68,0,0,1-2,2,8.47,8.47,0,0,1-2.46.33c-3.55-.06-6.16-2.81-11.24-8.31l-6.22-6.75a9,9,0,0,1,2.21-10.88A8.58,8.58,0,0,1,772.29,371.36Z"></path>
    <path fill="#fcb7af" d="M765.91,370.39s6.28-2.61,10.67-.11,10.07-.3,10.72,1.72a2.1,2.1,0,0,1,0,1.13c-.44,2.55-4.23,3.86-5.5,4.3-1.87.65-7.34,2.54-11.86-.76A11.26,11.26,0,0,1,765.91,370.39Z"></path>
    <path fill="#a2c800" d="M656.83,389.06l.12-.19c6.33-9.93,18.38-15.78,22.34-26.91,3.34-9.39-.07-19.67-2-29.46a109.94,109.94,0,0,1-1.62-28.64c.34-5,1.16-10.82,4.91-14.41,4.38-4.18,12.36-3.84,18-4,12.05-.32,24.17-.63,36.11,1,4.48.62,9.11,1.61,12.68,4.42,6.65,5.23,7.65,14.89,8,23.44.32,8.9.46,17.93-1.73,26.56s-7,16.91-14.58,21.36c-2.36,1.4-5.22,2.72-5.92,5.4-.51,2,.35,4,1,5.94a21.3,21.3,0,0,1,.07,14.14c-2.79,7.33-10.41,11.84-18,13s-15.4-.37-23-1.92l-34.64-7.1c-.85-.17-1.87-.51-2-1.38A1.94,1.94,0,0,1,656.83,389.06Z"></path>
    <path fill="#8a9f03" d="M668.5,366.81c3.25-3.37,6.65-6.81,8.42-11.33,4.61-11.8-3.53-25.38-1.66-38l11.63-.89c-2.41,12.89,6.24,26.83,1.52,38.91-1.77,4.52-5.17,8-8.42,11.33-6.75,7-13.37,14.48-17.23,23.76l40.83,9.59c2.12.5,4.26,1,6.41,1.36-5.88,1.41-12,0-17.9-1.36l-40.83-9.59C655.13,381.29,661.75,373.8,668.5,366.81Z"></path>
    <path fill="red" d="M712.7,319.31a4.84,4.84,0,0,1,2-1.05,12.12,12.12,0,0,1,11.62,2.83,6.71,6.71,0,0,1,2.06,3.38,6.45,6.45,0,0,1-.52,3.79,10.36,10.36,0,0,1-5.48,5.43,36,36,0,0,1,5.56,4.17,11.88,11.88,0,0,1,3.49,5.91,11.34,11.34,0,0,1-1.92,8.38,15.37,15.37,0,0,1-23.31,2.63c-.91-.87-2.15-1.73-2-3.16s1.83-2.43,3.32-2.28a10.33,10.33,0,0,1,4.07,1.81c2.3,1.37,5.1,2.47,7.61,1.52a7.65,7.65,0,0,0,3.91-4,8.27,8.27,0,0,0,.93-4.46,7.32,7.32,0,0,0-2.63-4.66,13,13,0,0,0-4.84-2.47,5,5,0,0,1-2.57-1.29c-1-1.24-.4-3.3,1-4.21s2.93-.93,4.33-1.58a4,4,0,0,0,2.46-3.68,3.6,3.6,0,0,0-2.18-2.87,5.53,5.53,0,0,0-3.7-.14,3.32,3.32,0,0,1-1.95.23,2.32,2.32,0,0,1-.9-.68,3,3,0,0,1-.91-2.21A2.13,2.13,0,0,1,712.7,319.31Z"></path>
    <path fill="#fcb7af" d="M730.64,309.18c-12.15,3-17.59-9.57-17.59-9.57l1.66-19.77.7-8.36,17.83,4.23,1.65,17.64.08,1S742.8,306.13,730.64,309.18Z"></path>
    <path fill="#e99569" d="M734.89,293.35c-9-.9-16.17-8.29-20.18-13.51l.7-8.36,17.83,4.23Z"></path>
    <path fill="#fcb7af" d="M745.12,281.21c-3.43,2.81-7.4,3.11-10.29,3.33-8,.62-17.57-2.81-21.16-9.85-.6-1.2-.47-1.37-1.88-8.55-2.35-11.95-2.87-12.19-3.19-15-.77-6.91.69-20.21,10.29-25.56,6.59-3.67,14.87-2.4,20.56.75a22.08,22.08,0,0,1,5.87,4.73,25.52,25.52,0,0,1,2.12,2.78c0,1.24.08,3.17.29,5.5,0,.29,0,.57.08.85a88.2,88.2,0,0,0,2.52,13.36C751.88,260.3,753,274.79,745.12,281.21Z"></path>
    <path fill="#e99569" d="M747.81,240.18a31.46,31.46,0,0,1-8.49,3.88c-9.29,2.66-13.6-.9-17.6,2.73-1.21,1.1-3.14,3.81-7,9.24-.9,1.26-1.13,1.54-1.4,1.56-3.33.34-7.62-17.84,6.39-25.57a28.07,28.07,0,0,1,25.62-1,25.52,25.52,0,0,1,2.12,2.78c0,1.24.08,3.17.29,5.5C747.75,239.62,747.78,239.9,747.81,240.18Z"></path>
    <path fill="#232a57" d="m740.89 263.67-.52-.85c.93-.58-.06-4.73-1.51-8.24l.92-.38C740.57 256.09 743 262.38 740.89 263.67ZM736.28 270.84a6.26 6.26 0 0 1-2.14-.37 6.63 6.63 0 0 1-3.21-2.61l.84-.55a5.53 5.53 0 0 0 2.71 2.22 6.16 6.16 0 0 0 6.24-1.55l.68.73A7.58 7.58 0 0 1 736.28 270.84Z"></path>
    <ellipse cx="731.94" cy="254.88" fill="#232a57" rx="1.3" ry="2.13"></ellipse>
    <ellipse cx="745.41" cy="252.75" fill="#232a57" rx="1.3" ry="2.13"></ellipse>
    <path fill="#232a57" d="M729.56 255.24a7.67 7.67 0 0 1-4.12-1.64l.63-.78s2.06 1.64 3.85 1.39a2.45 2.45 0 0 0 1.71-1.06l.81.59a3.44 3.44 0 0 1-2.39 1.47A4 4 0 0 1 729.56 255.24ZM748.68 252.94a7.5 7.5 0 0 1-4.11-1.64l.62-.77s2.06 1.63 3.86 1.39a2.47 2.47 0 0 0 1.71-1.06l.8.59a3.43 3.43 0 0 1-2.38 1.46A4.19 4.19 0 0 1 748.68 252.94ZM749.13 235.46a7.33 7.33 0 0 1-3 3.49A29.39 29.39 0 0 1 729 243.68c-2.09 0-4.25-.24-6.2.5a10.54 10.54 0 0 0-4.56 3.94c-1.19 1.66-2.16 3.48-3.45 5a5.22 5.22 0 0 1-3 2.07c-2.07.35-4-1.4-6-1.42a42.16 42.16 0 0 1-.33-10.1c.51-5.76 2.36-11.64 6.49-15.7s10.32-5.9 16.23-6.56c3.44-.39 7-.44 10.19 1 2.69 1.21 4.81 3.39 6.86 5.51 1.55 1.62 3.47 3.5 4 5.75A3.21 3.21 0 0 1 749.13 235.46Z"></path>
    <path fill="#fcb7af" d="M717.69,259.18s-6.08-10.25-10.71-4.92.42,15.75,8.45,14.88S717.69,259.18,717.69,259.18Z"></path>
    <path fill="#232a57" d="M712.82,261.11c-1.14-3.75-5.16-4.58-5.2-4.58l.19-1c.19,0,4.64.94,6,5.27Z"></path>
    <path fill="#232a57" d="M709.35,263.53c-1.78-2.55-.27-5.44.78-6.61l.75.67c-.1.11-2.48,2.83-.71,5.37Z"></path>
    <path fill="#a2c800" d="M708.42,295.94c-.33,11.77-21.6,24.59-53.59,31.75q6.48,7.4,13,14.78,11.46,13.08,22.94,26.14l.82.94-7.38,9.74c-.69-.36-1.4-.73-2.13-1.13a189.37,189.37,0,0,1-30.56-20.48l-1.68-1.39c-16.88-13.9-29.87-24.93-28.6-35.39,1.91-15.66,35.69-29.37,81.57-35.69C707.63,289.66,708.49,293.4,708.42,295.94Z"></path>
    <path fill="#fcb7af" d="M687.38,364c16.85,6,21.42,9,21,10.53l-2.87,3.07s3.46,3.16.49,5l-3,1.81a3.26,3.26,0,0,1-.57,1.38,3.88,3.88,0,0,1-3.26,1.32,7.91,7.91,0,0,1-1.76,2.2,8.66,8.66,0,0,1-2.4.62c-3.54.36-6.46-2.06-12.15-6.92l-7-6a9,9,0,0,1,.9-11.07A8.59,8.59,0,0,1,687.38,364Z"></path>
    <path fill="#fcb7af" d="M680.93,363.77s5.92-3.34,10.58-1.38,10-1.49,10.85.44a2.28,2.28,0,0,1,.18,1.12c-.14,2.58-3.75,4.33-5,4.92-1.77.86-7,3.4-11.86.65A11.2,11.2,0,0,1,680.93,363.77Z"></path>
  </g>
  <g>
    <path fill="#9dc8f5" d="M223.85 391.61a15.31 15.31 0 0 1-5.6-3c-4.65-4.06-5.72-11.5-2.75-16.91a16.09 16.09 0 0 1 15.61-7.83 18.75 18.75 0 0 1 19.3-18.2 11 11 0 0 0 3.53-.16c1.72-.52 2.91-2 4.19-3.3a18.68 18.68 0 0 1 14.3-5.13 14.62 14.62 0 0 1 7.22 2.2 18.48 18.48 0 0 1 5.31 5.92 18.06 18.06 0 0 1 2.39 8.72A16.58 16.58 0 0 1 300 362.17c3.33 6 2.56 13.54-.42 19.68a21.05 21.05 0 0 1-7.51 8.87c-5.17 3.21-11.65 3.18-17.74 3L235.17 393A41.84 41.84 0 0 1 223.85 391.61ZM610.68 264.33a15.2 15.2 0 0 0 5.59-3c4.65-4.05 5.72-11.5 2.75-16.91a16.1 16.1 0 0 0-15.61-7.83 18.75 18.75 0 0 0-19.3-18.2 10.91 10.91 0 0 1-3.52-.16c-1.73-.52-2.92-2-4.2-3.3a18.69 18.69 0 0 0-14.3-5.12 14.51 14.51 0 0 0-7.22 2.19 18.48 18.48 0 0 0-5.31 5.92 18.17 18.17 0 0 0-2.39 8.72 16.58 16.58 0 0 0-12.65 8.26c-3.33 6-2.56 13.55.42 19.69a21 21 0 0 0 7.51 8.86c5.17 3.21 11.65 3.19 17.74 3.06l39.16-.83A41.57 41.57 0 0 0 610.68 264.33ZM802.78 217.94c-4.69-1.13-9-3.29-11.91-7.43a16.83 16.83 0 0 1-.68-17.58 20.06 20.06 0 0 1 15-9.74 19.46 19.46 0 0 1 14.66-19c2.86-.65 5.88-.65 8.58-1.78s4.84-3.3 7.4-4.74A15.33 15.33 0 0 1 858.38 168c-.18-.93 6.91-1.9 7.63-1.92a18.63 18.63 0 0 1 7.94 1.47c4.93 2.09 7.07 8.35 6.37 13.42a20.88 20.88 0 0 1 13.82 10.25 17.94 17.94 0 0 1 0 17c-2.87 5-8.23 8.19-13.81 9.67s-11.43 1.47-17.2 1.45l-45.86-.19A63.62 63.62 0 0 1 802.78 217.94ZM316.47 231.12c-.3-.1-.61-.21-.91-.33a8.08 8.08 0 0 1-4.58-3.73 7.22 7.22 0 0 1-.45-4.24 11.22 11.22 0 0 1 5.74-8 10.63 10.63 0 0 1 10.09-13.16c1.22 0 2.53.13 3.59-.48a6.65 6.65 0 0 0 1.94-2.26 15.91 15.91 0 0 1 12.47-7c7.49-.27 15.3 5.33 15.32 13.26a5.07 5.07 0 0 1 5 3.55 8.47 8.47 0 0 1-.74 6.41c2.71 2.73 5 6.57 4 10.28-.78 2.72-3.27 4.7-6 5.61a26.45 26.45 0 0 1-8.42 1l-26.06.18C323.76 232.23 320 232.24 316.47 231.12ZM607.1 140c-.31-.1-.61-.2-.91-.32a8.12 8.12 0 0 1-4.58-3.73 7.26 7.26 0 0 1-.46-4.25 11.2 11.2 0 0 1 5.74-8A10.64 10.64 0 0 1 617 110.48c1.22 0 2.52.14 3.58-.47a6.58 6.58 0 0 0 1.94-2.27 16 16 0 0 1 12.48-7c7.48-.27 15.3 5.33 15.31 13.26a5.1 5.1 0 0 1 5 3.56 8.4 8.4 0 0 1-.75 6.4c2.72 2.74 5 6.57 4 10.28-.78 2.73-3.27 4.7-5.95 5.62a26.76 26.76 0 0 1-8.42 1l-26.07.18C614.39 141.07 610.6 141.08 607.1 140Z"></path>
  </g>
  <g>
    <path fill="red" d="M928.64,329.23l0,.18a135.52,135.52,0,0,0-63.25.95c-13.74,3.46-27.27,9-41.44,8.77-10.46-.17-20.59-3.48-30.43-7-2.4-.86-20-7.1-16.29-11.13a4.68,4.68,0,0,1,2.59-1.14,52.07,52.07,0,0,1,13.76-.9L786,301.52a3.26,3.26,0,0,1-.39-1.54c.15-1.93,3-2,4.83-1.5,15,4.15,30.25,8.51,45.76,7.5,19.67-1.29,37.93-11.16,57.55-13.09,11.9-1.18,24,.62,35.42,4a2.44,2.44,0,0,1,2.12,3.25Z"></path>
    <rect width="293.11" height="7.25" x="777.2" y="419.15" fill="#232a57" rx="3.62" transform="rotate(-87.75 923.806 422.753)"></rect>
    <rect width="25.53" height="10.55" x="905.14" y="566.57" fill="#232a57" rx="5.28" transform="rotate(-2.1 917.377 571.616)"></rect>
  </g>
  <g>
    <path fill="#f10700" d="M602.84 413.74a357.89 357.89 0 0 1 123.77 2.8c31.53 6.29 62.81 16.89 94.91 15.14 23.18-1.27 45.52-9 66.91-18q11.45-4.83 22.66-10.18c1.85-.88 9.11-5.81 11-4.89s1.23 9.58 1.35 11.68c.1 1.83.17 3.81-.86 5.33a8.57 8.57 0 0 1-4.12 2.69c-47.09 18.84-97.15 34.43-147.69 30.21-29.46-2.47-58.19-11.62-87.75-12.29-21.31-.49-42.44 3.45-63.45 7.06-2.49.43-5.24.81-7.39-.53a9.6 9.6 0 0 1-3-3.62A50.5 50.5 0 0 1 602.84 413.74ZM591.6 449.06a69.15 69.15 0 0 0-49.85 18.11c-21 19.47-27.61 49.52-40.63 75.06a155.56 155.56 0 0 1-9.8 16.58c-20.32 30-50.72 53-84.31 67.08-37.92 15.86-79.7 20.91-120.8 19.16A155.22 155.22 0 0 1 258.35 615c20.75 1.42 41.2 7.08 61.94 8.75a164 164 0 0 0 96.38-22.37 162.09 162.09 0 0 0 46.95-42.53A158.77 158.77 0 0 0 482 527.08c7-16.23 11.3-33.51 17.76-50s15.54-32.56 29.76-43.05c9.73-7.18 21.33-11.34 33-14.6 2.7-.76 5.89-1.38 8.07.38 1.66 1.35 2.13 3.64 2.68 5.71a38.38 38.38 0 0 0 12.15 19.19A37.08 37.08 0 0 0 591.6 449.06Z"></path>
  </g>
</svg>
