<svg xmlns="http://www.w3.org/2000/svg" viewBox="0 0 68 68" id="Attendance">
  <path d="M66 61.143H46.358l4.04-12.118c.073-.213.108-.403.108-.573l.059-9.878c-.751-1.507-1.89-2.073-3.608-1.788v5.63a1 1 0 1 1-2 0v-6.015c-.043-.097-.087-.194-.097-.302-.092-1.04-.51-1.33-.648-1.425-.395-.274-1.217-.496-2.899-.13v5.56a1 1 0 1 1-2 0v-6.14c-.184-.424-.56-.66-.864-.778-.793-.307-1.857-.178-2.93.302v5.756a1 1 0 1 1-2 0v-6a.988.988 0 0 1-.073-.364l.13-12.49a1.966 1.966 0 0 0-1.956-1.99 1.976 1.976 0 0 0-1.974 1.967l-.06 24.157a1.36 1.36 0 0 1-.913 1.292 1.35 1.35 0 0 1-1.521-.422l-6.851-8.16c-.48-.505-1.394-.567-1.986.012a1.411 1.411 0 0 0-.223 1.693l12.757 22.204H2a1 1 0 1 0 0 2h64a1 1 0 1 0 0-2z" fill="#4abeec" class="color000000 svgShape"></path>
  <path d="m21.795 35.907.16.19h5.653l.012-5.186c-2.333-1.34-3.768-3.735-3.768-6.414v-7.22c0-4.14 3.482-7.51 7.76-7.51 4.316 0 7.76 3.389 7.76 7.51v7.22c0 2.692-1.52 5.164-3.906 6.49l-.004.357c1.316-.431 2.613-.448 3.709-.023.71.274 1.282.716 1.674 1.278 1.754-.388 3.093-.292 4.107.23V5.858a1 1 0 0 0-1-1h-24.55a1 1 0 0 0-1 1v29.105a3.11 3.11 0 0 1 .988-.128c.92.02 1.774.4 2.405 1.073z" fill="#4abeec" class="color000000 svgShape"></path>
  <path d="M37.372 24.497v-7.22c0-3.018-2.548-5.51-5.76-5.51-3.176 0-5.76 2.472-5.76 5.51v7.22c0 1.542.657 2.958 1.774 3.973l.02-8.112c.014-2.184 1.79-3.957 3.96-3.957a3.964 3.964 0 0 1 3.97 4.013l-.085 8.14c1.173-1.027 1.881-2.494 1.881-4.057z" fill="#4abeec" class="color000000 svgShape"></path>
</svg>
