<svg xmlns="http://www.w3.org/2000/svg" viewBox="0 0 80 80" id="open-book">
  <path fill="#c3f7fc" d="M68.4 44.2c-1.9-9.6-5.7-19.3-12.9-26.1-6.5-6.2-16.1-9.7-24.8-7.4-.8.2-1.6.6-2.5 1.1-4.4 2.3-7.2 6.8-7.2 11.7v.1c.1 3.7 1.1 7.3 2.7 10.7.5.9.8 1.9.7 2.7-.4 2.7-3.3 4.2-5.6 5.6-3 1.8-5.7 4.3-6.8 7.6-1.2 3.4-.5 7.2 1 10.5s3.8 6.1 6.1 8.9l27.4.1c-1-6.1 3-12.5 8.9-14.4 4.7-1.5 10.7-.6 12.7-6 .6-1.7.6-3.5.3-5.1z"></path>
  <path fill="#fff" stroke="#000" stroke-miterlimit="10" d="M10 69.6h60M72.9 69.6h4M3.1 69.6h4"></path>
  <path fill="none" stroke="#fe7010" stroke-miterlimit="10" stroke-width=".5" d="M37.8 19.6c1.2 0 2.3-1 2.3-2.2 0 1.2 1 2.2 2.2 2.2-1.2 0-2.2 1-2.2 2.2-.1-1.2-1.1-2.2-2.3-2.2z"></path>
  <path fill="none" stroke="#50dd82" stroke-miterlimit="10" stroke-width=".5" d="M16.5 12.7c1.2 0 2.3-1 2.3-2.2 0 1.2 1 2.2 2.2 2.2-1.2 0-2.2 1-2.2 2.2 0-1.2-1-2.2-2.3-2.2z"></path>
  <path fill="none" stroke="#301f68" stroke-miterlimit="10" stroke-width=".5" d="M59 12.7c1.2 0 2.3-1 2.3-2.2 0 1.2 1 2.2 2.3 2.2-1.2 0-2.3 1-2.3 2.2-.1-1.2-1.1-2.2-2.3-2.2z"></path>
  <path fill="#546070" stroke="#000" stroke-linecap="round" stroke-linejoin="round" stroke-miterlimit="10" d="M9 30.4v36.7h26.1c0 1.4 2.2 2.4 4.9 2.4s4.9-1.1 4.9-2.4H71V30.4H9z"></path>
  <path fill="#fff" stroke="#000" stroke-linecap="round" stroke-linejoin="round" stroke-miterlimit="10" d="M13.1 27.1v36.7s9.8-4.7 26.9 0V27.1c-17.1-4.7-26.9 0-26.9 0zm53.8 0v36.7s-9.8-4.7-26.9 0V27.1c17.1-4.7 26.9 0 26.9 0z"></path>
  <path fill="#d3dce3" d="M55.3 33h6v1.5h-6zM44.2 40.3h17v1.5h-17zM44.2 47.6h17v1.5h-17zM44.2 54.9h17v1.5h-17z"></path>
  <g fill="#d3dce3">
    <path d="M18.3 33h8.4v1.5h-8.4zM18 40.3h17v1.5H18zM18 47.6h17v1.5H18zM18 54.9h17v1.5H18z"></path>
  </g>
  <path fill="#ff2e57" d="M52.4 30.6v5.8c0 .4-.3.8-.8.8H45c-.4 0-.8-.3-.8-.8v-5.8c0-.4.4-.8.8-.8h6.6c.4 0 .8.3.8.8z"></path>
</svg>
